<svg width="32" height="22" viewBox="0 0 32 22" fill="none" xmlns="http://www.w3.org/2000/svg">
<g clip-path="url(#clip0)">
<path d="M12.6693 16.08L13.0417 16.35L12.9008 15.91L13.2732 15.65H12.8203L12.6693 15.2L12.5184 15.65H12.0654L12.4378 15.91L12.2969 16.35L12.6693 16.08Z" fill="white"/>
<path d="M14.2797 16.08L14.6521 16.35L14.5112 15.91L14.8836 15.65H14.4307L14.2797 15.2L14.1287 15.65H13.6758L14.0482 15.91L13.9073 16.35L14.2797 16.08Z" fill="white"/>
<path d="M15.89 16.08L16.2624 16.35L16.1215 15.91L16.4939 15.65H16.041L15.89 15.2L15.7391 15.65H15.2861L15.6585 15.91L15.5176 16.35L15.89 16.08Z" fill="white"/>
<path d="M17.5004 16.08L17.8728 16.35L17.7319 15.91L18.1043 15.65H17.6514L17.5004 15.2L17.3494 15.65H16.8965L17.2689 15.91L17.128 16.35L17.5004 16.08Z" fill="white"/>
<path d="M19.1107 16.08L19.4831 16.35L19.3422 15.91L19.7146 15.65H19.2617L19.1107 15.2L18.9598 15.65H18.5068L18.8792 15.91L18.7383 16.35L19.1107 16.08Z" fill="white"/>
<path d="M13.9521 19.0001V18.9119C14.039 18.8255 14.1163 18.7475 14.184 18.6779C14.2516 18.6083 14.3084 18.5441 14.3543 18.4853C14.4002 18.4253 14.4352 18.3707 14.4593 18.3215C14.4835 18.2711 14.4956 18.2225 14.4956 18.1757C14.4956 18.1097 14.4775 18.0557 14.4412 18.0137C14.405 17.9717 14.35 17.9507 14.2764 17.9507C14.2281 17.9507 14.1834 17.9645 14.1423 17.9921C14.1012 18.0185 14.0638 18.0509 14.03 18.0893L13.9448 18.0047C13.9931 17.9519 14.0445 17.9099 14.0988 17.8787C14.1532 17.8463 14.2184 17.8301 14.2945 17.8301C14.402 17.8301 14.4865 17.8613 14.5481 17.9237C14.6097 17.9849 14.6405 18.0665 14.6405 18.1685C14.6405 18.2225 14.6284 18.2771 14.6043 18.3323C14.5813 18.3863 14.5487 18.4427 14.5064 18.5015C14.4654 18.5591 14.4159 18.6197 14.3579 18.6833C14.3011 18.7457 14.2383 18.8123 14.1695 18.8831C14.2009 18.8807 14.2335 18.8783 14.2673 18.8759C14.3011 18.8735 14.3331 18.8723 14.3633 18.8723H14.6985V19.0001H13.9521ZM15.3037 19.0217C15.1866 19.0217 15.0954 18.9701 15.0302 18.8669C14.9649 18.7637 14.9323 18.6155 14.9323 18.4223C14.9323 18.2291 14.9649 18.0821 15.0302 17.9813C15.0954 17.8805 15.1866 17.8301 15.3037 17.8301C15.4197 17.8301 15.5103 17.8805 15.5755 17.9813C15.6407 18.0821 15.6733 18.2291 15.6733 18.4223C15.6733 18.6155 15.6407 18.7637 15.5755 18.8669C15.5103 18.9701 15.4197 19.0217 15.3037 19.0217ZM15.3037 18.9029C15.3376 18.9029 15.3677 18.8939 15.3943 18.8759C15.4221 18.8567 15.4456 18.8279 15.465 18.7895C15.4855 18.7499 15.5012 18.7001 15.5121 18.6401C15.5229 18.5789 15.5284 18.5063 15.5284 18.4223C15.5284 18.3383 15.5229 18.2663 15.5121 18.2063C15.5012 18.1463 15.4855 18.0977 15.465 18.0605C15.4456 18.0221 15.4221 17.9939 15.3943 17.9759C15.3677 17.9579 15.3376 17.9489 15.3037 17.9489C15.2699 17.9489 15.2391 17.9579 15.2113 17.9759C15.1836 17.9939 15.1594 18.0221 15.1389 18.0605C15.1195 18.0977 15.1044 18.1463 15.0936 18.2063C15.0827 18.2663 15.0773 18.3383 15.0773 18.4223C15.0773 18.5903 15.0978 18.7127 15.1389 18.7895C15.1811 18.8651 15.2361 18.9029 15.3037 18.9029ZM15.9687 19.0001V18.8777H16.2332V18.0317H16.0231V17.9363C16.0762 17.9267 16.1221 17.9153 16.1608 17.9021C16.2006 17.8877 16.2363 17.8709 16.2677 17.8517H16.3818V18.8777H16.6209V19.0001H15.9687ZM17.2244 18.4421C17.263 18.4421 17.3035 18.4301 17.3457 18.4061C17.3892 18.3821 17.4297 18.3431 17.4671 18.2891C17.4575 18.1763 17.4309 18.0911 17.3874 18.0335C17.3439 17.9759 17.2854 17.9471 17.2117 17.9471C17.1839 17.9471 17.1573 17.9531 17.132 17.9651C17.1078 17.9771 17.0867 17.9945 17.0686 18.0173C17.0504 18.0389 17.0359 18.0653 17.0251 18.0965C17.0154 18.1277 17.0106 18.1619 17.0106 18.1991C17.0106 18.2747 17.0281 18.3341 17.0631 18.3773C17.0981 18.4205 17.1519 18.4421 17.2244 18.4421ZM17.17 19.0217C17.1084 19.0217 17.0541 19.0103 17.007 18.9875C16.9611 18.9647 16.9224 18.9359 16.891 18.9011L16.9743 18.8075C16.9985 18.8351 17.0269 18.8573 17.0595 18.8741C17.0933 18.8909 17.1283 18.8993 17.1646 18.8993C17.2056 18.8993 17.2443 18.8909 17.2805 18.8741C17.3168 18.8573 17.3488 18.8297 17.3765 18.7913C17.4043 18.7517 17.4267 18.7007 17.4436 18.6383C17.4605 18.5759 17.4695 18.4985 17.4708 18.4061C17.4345 18.4517 17.3922 18.4877 17.3439 18.5141C17.2956 18.5405 17.2473 18.5537 17.199 18.5537C17.0988 18.5537 17.019 18.5243 16.9599 18.4655C16.9007 18.4067 16.8711 18.3179 16.8711 18.1991C16.8711 18.1439 16.8801 18.0941 16.8983 18.0497C16.9164 18.0041 16.9405 17.9651 16.9707 17.9327C17.0021 17.9003 17.0384 17.8751 17.0794 17.8571C17.1217 17.8391 17.1658 17.8301 17.2117 17.8301C17.2684 17.8301 17.321 17.8415 17.3693 17.8643C17.4188 17.8871 17.4611 17.9219 17.4961 17.9687C17.5323 18.0143 17.5601 18.0719 17.5795 18.1415C17.6 18.2099 17.6103 18.2903 17.6103 18.3827C17.6103 18.4979 17.5982 18.5963 17.574 18.6779C17.5499 18.7583 17.5173 18.8243 17.4762 18.8759C17.4351 18.9263 17.388 18.9635 17.3349 18.9875C17.2829 19.0103 17.228 19.0217 17.17 19.0217Z" fill="white"/>
<path d="M12.81 5.2379H13.4411C13.5438 5.2379 13.6374 5.2469 13.7219 5.2649C13.8085 5.2809 13.883 5.3079 13.9454 5.3459C14.0098 5.3819 14.0591 5.4309 14.0933 5.4929C14.1295 5.5549 14.1477 5.6309 14.1477 5.7209C14.1477 5.8149 14.1195 5.9019 14.0631 5.9819C14.0088 6.0619 13.9242 6.1169 13.8095 6.1469V6.1589C13.9524 6.1829 14.0611 6.2339 14.1356 6.3119C14.2121 6.3879 14.2503 6.4919 14.2503 6.6239C14.2503 6.7219 14.2312 6.8069 14.193 6.8789C14.1547 6.9509 14.1014 7.0109 14.0329 7.0589C13.9665 7.1069 13.887 7.1429 13.7944 7.1669C13.7018 7.1889 13.6011 7.1999 13.4924 7.1999H12.81V5.2379ZM13.4109 6.0509C13.5498 6.0509 13.6494 6.0259 13.7098 5.9759C13.7722 5.9259 13.8034 5.8549 13.8034 5.7629C13.8034 5.6729 13.7712 5.6079 13.7068 5.5679C13.6424 5.5279 13.5458 5.5079 13.4169 5.5079H13.1603V6.0509H13.4109ZM13.4562 6.9299C13.6011 6.9299 13.7129 6.9029 13.7914 6.8489C13.8699 6.7949 13.9091 6.7119 13.9091 6.5999C13.9091 6.4979 13.8709 6.4229 13.7944 6.3749C13.7179 6.3249 13.6052 6.2999 13.4562 6.2999H13.1603V6.9299H13.4562ZM14.6117 5.2379H15.8014V5.5319H14.962V6.0329H15.6715V6.3269H14.962V6.9059H15.8316V7.1999H14.6117V5.2379ZM16.3059 6.7109C16.3763 6.7769 16.4569 6.8309 16.5474 6.8729C16.638 6.9129 16.7286 6.9329 16.8192 6.9329C16.9319 6.9329 17.0175 6.9099 17.0759 6.8639C17.1342 6.8179 17.1634 6.7569 17.1634 6.6809C17.1634 6.6409 17.1554 6.6069 17.1393 6.5789C17.1252 6.5509 17.104 6.5269 17.0759 6.5069C17.0497 6.4849 17.0175 6.4649 16.9792 6.4469C16.943 6.4289 16.9027 6.4109 16.8584 6.3929L16.5867 6.2759C16.5384 6.2559 16.4901 6.2309 16.4418 6.2009C16.3955 6.1709 16.3532 6.1349 16.3149 6.0929C16.2767 6.0509 16.2455 6.0019 16.2213 5.9459C16.1992 5.8899 16.1881 5.8259 16.1881 5.7539C16.1881 5.6759 16.2042 5.6039 16.2364 5.5379C16.2707 5.4699 16.317 5.4109 16.3753 5.3609C16.4337 5.3109 16.5032 5.2719 16.5837 5.2439C16.6662 5.2159 16.7558 5.2019 16.8524 5.2019C16.9671 5.2019 17.0779 5.2249 17.1846 5.2709C17.2912 5.3149 17.3828 5.3749 17.4593 5.4509L17.2812 5.6729C17.2168 5.6209 17.1503 5.5799 17.0819 5.5499C17.0134 5.5199 16.937 5.5049 16.8524 5.5049C16.7578 5.5049 16.6823 5.5259 16.6259 5.5679C16.5696 5.6079 16.5414 5.6639 16.5414 5.7359C16.5414 5.7739 16.5495 5.8069 16.5656 5.8349C16.5837 5.8609 16.6068 5.8849 16.635 5.9069C16.6652 5.9269 16.6994 5.9459 16.7377 5.9639C16.7759 5.9799 16.8152 5.9959 16.8554 6.0119L17.1242 6.1229C17.1825 6.1469 17.2359 6.1749 17.2842 6.2069C17.3325 6.2389 17.3738 6.2759 17.408 6.3179C17.4442 6.3599 17.4724 6.4089 17.4925 6.4649C17.5127 6.5189 17.5227 6.5819 17.5227 6.6539C17.5227 6.7339 17.5066 6.8089 17.4744 6.8789C17.4422 6.9489 17.3949 7.0109 17.3325 7.0649C17.2721 7.1169 17.1976 7.1589 17.1091 7.1909C17.0225 7.2209 16.9239 7.2359 16.8132 7.2359C16.6803 7.2359 16.5515 7.2109 16.4267 7.1609C16.3039 7.1109 16.1952 7.0399 16.1006 6.9479L16.3059 6.7109ZM18.2214 5.5319H17.6507V5.2379H19.1423V5.5319H18.5717V7.1999H18.2214V5.5319ZM10.7327 8.6379H11.1192L11.4755 9.6039L11.6053 9.9759H11.6174L11.7442 9.6039L12.0945 8.6379H12.4809V10.5999H12.1518V9.7029C12.1518 9.6569 12.1528 9.6069 12.1548 9.5529C12.1589 9.4989 12.1629 9.4449 12.1669 9.3909C12.1709 9.3349 12.176 9.2809 12.182 9.2289C12.1881 9.1749 12.1931 9.1249 12.1971 9.0789H12.185L12.025 9.5259L11.6838 10.4169H11.5208L11.1795 9.5259L11.0225 9.0789H11.0105C11.0145 9.1249 11.0185 9.1749 11.0225 9.2289C11.0286 9.2809 11.0336 9.3349 11.0376 9.3909C11.0437 9.4449 11.0477 9.4989 11.0497 9.5529C11.0537 9.6069 11.0558 9.6569 11.0558 9.7029V10.5999H10.7327V8.6379ZM13.8219 9.7959L13.7525 9.5559C13.7203 9.4519 13.6891 9.3449 13.6589 9.2349C13.6307 9.1249 13.6025 9.0159 13.5743 8.9079H13.5623C13.5341 9.0179 13.5059 9.1279 13.4777 9.2379C13.4495 9.3459 13.4193 9.4519 13.3871 9.5559L13.3177 9.7959H13.8219ZM13.9004 10.0689H13.2362L13.0822 10.5999H12.7259L13.369 8.6379H13.7797L14.4228 10.5999H14.0544L13.9004 10.0689ZM15.0165 9.5559H15.2973C15.4322 9.5559 15.5348 9.5279 15.6053 9.4719C15.6778 9.4159 15.714 9.3319 15.714 9.2199C15.714 9.1059 15.6778 9.0269 15.6053 8.9829C15.5348 8.9389 15.4322 8.9169 15.2973 8.9169H15.0165V9.5559ZM15.7442 10.5999L15.3185 9.8319H15.0165V10.5999H14.6662V8.6379H15.3335C15.4362 8.6379 15.5318 8.6479 15.6204 8.6679C15.709 8.6879 15.7855 8.7209 15.8499 8.7669C15.9143 8.8109 15.9646 8.8699 16.0009 8.9439C16.0391 9.0179 16.0582 9.1099 16.0582 9.2199C16.0582 9.3699 16.022 9.4909 15.9495 9.5829C15.8791 9.6749 15.7845 9.7409 15.6657 9.7809L16.1367 10.5999H15.7442ZM16.4738 8.6379H16.8241V9.5289H16.8331L17.5367 8.6379H17.9262L17.3193 9.4029L18.0288 10.5999H17.6423L17.1079 9.6759L16.8241 10.0269V10.5999H16.4738V8.6379ZM18.2755 8.6379H19.4651V8.9319H18.6257V9.4329H19.3353V9.7269H18.6257V10.3059H19.4953V10.5999H18.2755V8.6379ZM20.2988 8.9319H19.7281V8.6379H21.2198V8.9319H20.649V10.5999H20.2988V8.9319ZM11.98 12.0379H12.6443C12.753 12.0379 12.8526 12.0479 12.9432 12.0679C13.0358 12.0879 13.1153 12.1219 13.1817 12.1699C13.2482 12.2179 13.3005 12.2809 13.3387 12.3589C13.377 12.4349 13.3961 12.5299 13.3961 12.6439C13.3961 12.7519 13.377 12.8459 13.3387 12.9259C13.3005 13.0059 13.2471 13.0729 13.1787 13.1269C13.1123 13.1789 13.0328 13.2179 12.9402 13.2439C12.8496 13.2679 12.7509 13.2799 12.6443 13.2799H12.3302V13.9999H11.98V12.0379ZM12.6171 13.0009C12.907 13.0009 13.0519 12.8819 13.0519 12.6439C13.0519 12.5199 13.0157 12.4349 12.9432 12.3889C12.8707 12.3409 12.762 12.3169 12.6171 12.3169H12.3302V13.0009H12.6171ZM13.7669 12.0379H14.1171V13.7059H14.9384V13.9999H13.7669V12.0379ZM16.1219 13.1959L16.0525 12.9559C16.0203 12.8519 15.9891 12.7449 15.9589 12.6349C15.9307 12.5249 15.9025 12.4159 15.8743 12.3079H15.8623C15.8341 12.4179 15.8059 12.5279 15.7777 12.6379C15.7495 12.7459 15.7193 12.8519 15.6871 12.9559L15.6177 13.1959H16.1219ZM16.2004 13.4689H15.5362L15.3822 13.9999H15.0259L15.669 12.0379H16.0797L16.7228 13.9999H16.3544L16.2004 13.4689ZM16.8341 13.0249C16.8341 12.8649 16.8572 12.7219 16.9035 12.5959C16.9519 12.4679 17.0173 12.3599 17.0998 12.2719C17.1823 12.1839 17.279 12.1169 17.3897 12.0709C17.5004 12.0249 17.6192 12.0019 17.746 12.0019C17.8668 12.0019 17.9744 12.0269 18.0691 12.0769C18.1657 12.1269 18.2452 12.1849 18.3076 12.2509L18.1113 12.4669C18.061 12.4169 18.0067 12.3779 17.9483 12.3499C17.8919 12.3199 17.8255 12.3049 17.749 12.3049C17.6665 12.3049 17.591 12.3219 17.5225 12.3559C17.4561 12.3879 17.3977 12.4349 17.3474 12.4969C17.2991 12.5569 17.2608 12.6309 17.2327 12.7189C17.2065 12.8069 17.1934 12.9059 17.1934 13.0159C17.1934 13.2399 17.2417 13.4159 17.3383 13.5439C17.437 13.6699 17.5698 13.7329 17.7369 13.7329C17.8255 13.7329 17.902 13.7159 17.9664 13.6819C18.0328 13.6479 18.0942 13.5999 18.1506 13.5379L18.3469 13.7509C18.2663 13.8429 18.1747 13.9139 18.0721 13.9639C17.9694 14.0119 17.8557 14.0359 17.7309 14.0359C17.6041 14.0359 17.4863 14.0139 17.3776 13.9699C17.2689 13.9259 17.1743 13.8609 17.0938 13.7749C17.0132 13.6889 16.9498 13.5829 16.9035 13.4569C16.8572 13.3309 16.8341 13.1869 16.8341 13.0249ZM18.6765 12.0379H19.8662V12.3319H19.0268V12.8329H19.7363V13.1269H19.0268V13.7059H19.8964V13.9999H18.6765V12.0379Z" fill="white"/>
<path d="M16.8689 2.89224C16.8452 2.87206 16.8116 2.86782 16.7835 2.88142L16.3532 3.08954L15.9494 2.62704C15.9345 2.60992 15.9128 2.6001 15.89 2.6001C15.8673 2.6001 15.8456 2.60992 15.8306 2.62704L15.4269 3.08954L14.9966 2.88142C14.9685 2.86782 14.9349 2.87206 14.9111 2.89224C14.8874 2.9124 14.8779 2.94466 14.8869 2.97438L15.1858 3.95094C15.1958 3.98386 15.2264 4.00634 15.261 4.00634H16.5191C16.5537 4.00634 16.5843 3.98386 16.5943 3.95096L16.8931 2.97438C16.9022 2.94466 16.8927 2.9124 16.8689 2.89224ZM16.4608 3.8501H15.3193L15.0898 3.1003L15.4123 3.25628C15.4443 3.27176 15.4828 3.26394 15.5061 3.23722L15.89 2.79746L16.2739 3.23722C16.2973 3.26396 16.3358 3.27176 16.3678 3.25628L16.6902 3.1003L16.4608 3.8501Z" fill="white"/>
<path d="M23.7407 20C23.6155 19.3774 23.6239 19.0387 23.7407 18.6C24.0374 17.7555 24.4013 17.4575 25.1498 17C25.2444 17.6405 25.2154 17.9894 25.0491 18.6C24.8997 19.0299 24.7103 19.2705 24.3446 19.7L23.7407 20Z" fill="#8C8E98"/>
<path d="M26.051 18.2805C25.7615 17.7145 25.6778 17.386 25.6711 16.9323C25.7277 16.0396 25.9974 15.6551 26.5941 15.0142C26.859 15.6057 26.9256 15.9494 26.9313 16.5819C26.9041 17.0359 26.7867 17.3184 26.551 17.8299L26.051 18.2805Z" fill="#8C8E98"/>
<path d="M27.6066 15.7177C27.1732 15.2512 27.0027 14.9578 26.872 14.5229C26.6822 13.6486 26.8364 13.2058 27.235 12.4277C27.6519 12.9254 27.8101 13.2381 27.9887 13.8453C28.0869 14.2895 28.0513 14.593 27.9645 15.1489L27.6066 15.7177Z" fill="#8C8E98"/>
<path d="M28.5959 12.9886C28.0244 12.7046 27.7605 12.4901 27.4835 12.1293C26.9946 11.3783 26.9811 10.9098 27.0769 10.042C27.644 10.361 27.9034 10.5979 28.2865 11.103C28.5365 11.4839 28.6114 11.7803 28.7281 12.3307L28.5959 12.9886Z" fill="#8C8E98"/>
<path d="M28.5938 10.3861C27.9917 10.1736 27.7032 9.99267 27.384 9.66813C26.8065 8.98205 26.7356 8.51873 26.7241 7.64575C27.326 7.89355 27.6127 8.09721 28.0549 8.55207C28.3498 8.89989 28.4607 9.18495 28.6441 9.71711L28.5938 10.3861Z" fill="#8C8E98"/>
<path d="M28.0969 7.5535C27.459 7.51918 27.1308 7.42684 26.7321 7.20546C25.9824 6.71002 25.7825 6.28562 25.5225 5.45166C26.1704 5.51988 26.5034 5.63452 27.0574 5.94626C27.4392 6.19684 27.6268 6.43906 27.9545 6.89774L28.0969 7.5535Z" fill="#8C8E98"/>
<path d="M26.9628 4.94884C26.3326 5.0531 25.992 5.0338 25.5543 4.90378C24.7145 4.582 24.4262 4.21094 23.9902 3.45302C24.6376 3.37972 24.9877 3.41974 25.5966 3.60446C26.0242 3.76656 26.2601 3.96252 26.6804 4.3395L26.9628 4.94884Z" fill="#8C8E98"/>
<path d="M25.1226 2.48955C24.4841 2.51385 24.1487 2.45197 23.7312 2.26807C22.9389 1.84341 22.7002 1.43917 22.364 0.632568C23.0156 0.64113 23.3576 0.724778 23.9382 0.984428C24.3514 1.17922 24.5918 1.37026 24.9199 1.84963C25.0326 2.03205 25.0685 2.18953 25.1226 2.48955Z" fill="#8C8E98"/>
<path d="M23.5793 20.4046C24.0864 20.0184 24.396 19.8764 24.8439 19.7868C25.7375 19.6787 26.1672 19.8718 26.9106 20.3372C26.374 20.7042 26.0461 20.8322 25.4212 20.9534C24.7489 21.0474 24.426 20.9884 24.1168 20.8106C23.8674 20.6544 23.747 20.5656 23.5793 20.4046Z" fill="#8C8E98"/>
<path d="M25.9951 18.6045C26.5022 18.2182 26.8118 18.0763 27.2597 17.9868C28.1532 17.8787 28.583 18.0717 29.3264 18.5372C28.7898 18.9041 28.4618 19.0322 27.837 19.1534C27.1647 19.2473 26.8418 19.1884 26.5326 19.0106C26.2832 18.8543 26.1628 18.7654 25.9951 18.6045Z" fill="#8C8E98"/>
<path d="M27.6404 16.3323C27.889 15.7475 28.0875 15.472 28.4321 15.1742C29.1552 14.6413 29.6248 14.598 30.5026 14.6374C30.2186 15.22 29.9972 15.4925 29.5145 15.9047C28.9768 16.3166 28.6668 16.424 28.3095 16.4213C28.015 16.408 27.866 16.3899 27.6404 16.3323Z" fill="#8C8E98"/>
<path d="M28.6538 13.5457C28.8108 12.9304 28.9654 12.6283 29.2611 12.2824C29.8952 11.6475 30.353 11.5344 31.2268 11.4421C31.0342 12.0606 30.8566 12.363 30.4417 12.8428C29.9725 13.3304 29.6824 13.4829 29.3288 13.5336C29.0357 13.5645 28.8857 13.5688 28.6538 13.5457Z" fill="#8C8E98"/>
<path d="M28.8636 10.8009C28.7672 10.1733 28.7911 9.83536 28.928 9.40236C29.2632 8.57222 29.6404 8.29098 30.409 7.86792C30.4742 8.51208 30.4291 8.8593 30.235 9.46168C29.9941 10.0923 29.7865 10.345 29.4808 10.5286C29.2227 10.6705 29.0862 10.7325 28.8636 10.8009Z" fill="#8C8E98"/>
<path d="M28.5714 8.00356C28.3413 7.41124 28.2916 7.07606 28.3316 6.62398C28.4792 5.74166 28.787 5.38642 29.446 4.80908C29.6489 5.4243 29.6801 5.77302 29.621 6.40276C29.5219 7.0701 29.374 7.36128 29.1151 7.60584C28.8939 7.79952 28.7741 7.88918 28.5714 8.00356Z" fill="#8C8E98"/>
<path d="M27.5963 5.33301C27.2025 4.83301 27.0566 4.52677 26.9622 4.08279C26.8446 3.19601 27.0346 2.76709 27.4958 2.02393C27.8702 2.55367 28.0025 2.87821 28.1305 3.49777C28.2318 4.16479 28.1756 4.48617 27.9997 4.79509C27.8449 5.04445 27.7565 5.16491 27.5963 5.33301Z" fill="#8C8E98"/>
<path d="M26.2956 3.50232C25.8441 3.05322 25.6619 2.7667 25.5142 2.3373C25.2897 1.47111 25.4264 1.02253 25.7938 0.229492C26.23 0.710428 26.4007 1.01674 26.603 1.6164C26.7846 2.26642 26.7679 2.59218 26.6308 2.91996C26.5074 3.18604 26.4343 3.31622 26.2956 3.50232Z" fill="#8C8E98"/>
<path d="M8.32689 20C8.45206 19.3774 8.4436 19.0387 8.32689 18.6C8.03021 17.7555 7.66623 17.4575 6.9178 17C6.82323 17.6405 6.85223 17.9894 7.01845 18.6C7.16775 19.0299 7.35729 19.2705 7.72299 19.7L8.32689 20Z" fill="#8C8E98"/>
<path d="M6.01671 18.2805C6.30612 17.7145 6.38988 17.386 6.39648 16.9323C6.33986 16.0396 6.0702 15.6551 5.47357 15.0142C5.20874 15.6057 5.14203 15.9494 5.13647 16.5819C5.16363 17.0359 5.28089 17.3184 5.51655 17.8299L6.01671 18.2805Z" fill="#8C8E98"/>
<path d="M4.4611 15.7177C4.89456 15.2512 5.06506 14.9578 5.19566 14.5229C5.38557 13.6486 5.23131 13.2058 4.83266 12.4277C4.41587 12.9254 4.25757 13.2381 4.07906 13.8453C3.98093 14.2895 4.01641 14.593 4.10315 15.1489L4.4611 15.7177Z" fill="#8C8E98"/>
<path d="M3.47185 12.9886C4.04336 12.7046 4.30732 12.4901 4.58433 12.1293C5.07328 11.3783 5.08671 10.9098 4.99089 10.042C4.42385 10.361 4.16442 10.5979 3.78127 11.103C3.53128 11.4839 3.45639 11.7803 3.3396 12.3307L3.47185 12.9886Z" fill="#8C8E98"/>
<path d="M3.47379 10.3861C4.07591 10.1736 4.36425 9.99267 4.68351 9.66813C5.26106 8.98205 5.33195 8.51873 5.34347 7.64575C4.74148 7.89355 4.45487 8.09721 4.01254 8.55207C3.71762 8.89989 3.60688 9.18495 3.42334 9.71711L3.47379 10.3861Z" fill="#8C8E98"/>
<path d="M3.97046 7.5535C4.60852 7.51918 4.93661 7.42684 5.33532 7.20546C6.08484 6.71002 6.28493 6.28562 6.54487 5.45166C5.89689 5.51988 5.56396 5.63452 5.01005 5.94626C4.62804 6.19684 4.44057 6.43906 4.11282 6.89774L3.97046 7.5535Z" fill="#8C8E98"/>
<path d="M5.10474 4.94884C5.73502 5.0531 6.0755 5.0338 6.51308 4.90378C7.35306 4.582 7.64118 4.21094 8.07729 3.45302C7.42988 3.37972 7.07984 3.41974 6.47097 3.60446C6.04331 3.76656 5.80733 3.96252 5.38708 4.3395L5.10474 4.94884Z" fill="#8C8E98"/>
<path d="M6.94507 2.48955C7.58357 2.51385 7.91885 2.45197 8.3364 2.26807C9.12872 1.84341 9.36736 1.43917 9.70361 0.632568C9.05204 0.64113 8.70989 0.724778 8.12941 0.984428C7.71618 1.17922 7.47575 1.37026 7.14768 1.84963C7.03485 2.03205 6.99912 2.18953 6.94507 2.48955Z" fill="#8C8E98"/>
<path d="M8.48813 20.4046C7.98106 20.0184 7.6714 19.8764 7.22363 19.7868C6.32999 19.6787 5.90017 19.8718 5.15674 20.3372C5.69356 20.7042 6.0215 20.8322 6.64629 20.9534C7.31861 21.0474 7.64151 20.9884 7.9507 20.8106C8.20015 20.6544 8.32051 20.5656 8.48813 20.4046Z" fill="#8C8E98"/>
<path d="M6.0726 18.6045C5.56553 18.2182 5.25587 18.0763 4.80811 17.9868C3.91446 17.8787 3.48465 18.0717 2.74121 18.5372C3.27803 18.9041 3.60597 19.0322 4.23076 19.1534C4.90308 19.2473 5.22598 19.1884 5.53518 19.0106C5.78463 18.8543 5.90498 18.7654 6.0726 18.6045Z" fill="#8C8E98"/>
<path d="M4.42719 16.3323C4.17865 15.7475 3.9801 15.472 3.63542 15.1742C2.91242 14.6413 2.44276 14.598 1.56494 14.6374C1.84898 15.22 2.07029 15.4925 2.55308 15.9047C3.09075 16.3166 3.40075 16.424 3.75799 16.4213C4.05255 16.408 4.20143 16.3899 4.42719 16.3323Z" fill="#8C8E98"/>
<path d="M3.41378 13.5457C3.25663 12.9304 3.10207 12.6283 2.80642 12.2824C2.17236 11.6475 1.71461 11.5344 0.84082 11.4421C1.03338 12.0606 1.21091 12.363 1.62576 12.8428C2.09492 13.3304 2.38514 13.4829 2.73871 13.5336C3.03194 13.5645 3.18187 13.5688 3.41378 13.5457Z" fill="#8C8E98"/>
<path d="M3.20366 10.8009C3.3001 10.1733 3.27613 9.83536 3.13937 9.40236C2.80422 8.57222 2.42693 8.29098 1.65828 7.86792C1.59322 8.51208 1.63822 8.8593 1.8323 9.46168C2.07332 10.0923 2.28085 10.345 2.58662 10.5286C2.84461 10.6705 2.98099 10.7325 3.20366 10.8009Z" fill="#8C8E98"/>
<path d="M3.49647 8.00356C3.72644 7.41124 3.77612 7.07606 3.73626 6.62398C3.58855 5.74166 3.2809 5.38642 2.62175 4.80908C2.41886 5.4243 2.38768 5.77302 2.44689 6.40276C2.54585 7.0701 2.69385 7.36128 2.95276 7.60584C3.17401 7.79952 3.2938 7.88918 3.49647 8.00356Z" fill="#8C8E98"/>
<path d="M4.4714 5.33301C4.86516 4.83301 5.01102 4.52677 5.10551 4.08279C5.22307 3.19601 5.03303 2.76709 4.57187 2.02393C4.19729 2.55367 4.06516 2.87821 3.93706 3.49777C3.83592 4.16479 3.89208 4.48617 4.068 4.79509C4.22282 5.04445 4.31111 5.16491 4.4714 5.33301Z" fill="#8C8E98"/>
<path d="M5.77182 3.50232C6.22343 3.05322 6.40545 2.7667 6.5532 2.3373C6.77765 1.47111 6.64111 1.02253 6.27364 0.229492C5.83742 0.710428 5.66682 1.01674 5.46438 1.6164C5.28293 2.26642 5.29961 2.59218 5.43672 2.91996C5.56009 3.18604 5.63311 3.31622 5.77182 3.50232Z" fill="#8C8E98"/>
</g>
<defs>
<clipPath id="clip0">
<rect x="0.591309" width="31" height="22" fill="white"/>
</clipPath>
</defs>
</svg>
