<svg width="31" height="21" viewBox="0 0 31 21" fill="none" xmlns="http://www.w3.org/2000/svg">
<g clip-path="url(#clip0)">
<path d="M12.2797 15.349L12.6401 15.6068L12.5038 15.1868L12.8641 14.9386H12.4258L12.2797 14.509L12.1336 14.9386H11.6953L12.0557 15.1868L11.9193 15.6068L12.2797 15.349Z" fill="white"/>
<path d="M13.8381 15.349L14.1985 15.6068L14.0621 15.1868L14.4225 14.9386H13.9842L13.8381 14.509L13.692 14.9386H13.2537L13.6141 15.1868L13.4777 15.6068L13.8381 15.349Z" fill="white"/>
<path d="M15.3964 15.349L15.7568 15.6068L15.6205 15.1868L15.9808 14.9386H15.5425L15.3964 14.509L15.2503 14.9386H14.812L15.1724 15.1868L15.036 15.6068L15.3964 15.349Z" fill="white"/>
<path d="M16.955 15.349L17.3154 15.6068L17.179 15.1868L17.5394 14.9386H17.1011L16.955 14.509L16.8089 14.9386H16.3706L16.731 15.1868L16.5946 15.6068L16.955 15.349Z" fill="white"/>
<path d="M18.5134 15.349L18.8738 15.6068L18.7374 15.1868L19.0978 14.9386H18.6595L18.5134 14.509L18.3673 14.9386H17.929L18.2893 15.1868L18.153 15.6068L18.5134 15.349Z" fill="white"/>
<path d="M13.5212 18.1363V18.0522C13.6053 17.9697 13.6801 17.8952 13.7456 17.8288C13.811 17.7624 13.866 17.7011 13.9104 17.6449C13.9548 17.5877 13.9887 17.5356 14.0121 17.4886C14.0355 17.4405 14.0471 17.3941 14.0471 17.3494C14.0471 17.2864 14.0296 17.2349 13.9945 17.1948C13.9595 17.1547 13.9063 17.1346 13.835 17.1346C13.7883 17.1346 13.745 17.1478 13.7053 17.1742C13.6655 17.1994 13.6293 17.2303 13.5966 17.2669L13.5142 17.1862C13.5609 17.1358 13.6106 17.0957 13.6632 17.0659C13.7158 17.035 13.7789 17.0195 13.8525 17.0195C13.9566 17.0195 14.0384 17.0493 14.098 17.1089C14.1576 17.1673 14.1874 17.2452 14.1874 17.3425C14.1874 17.3941 14.1757 17.4462 14.1523 17.4989C14.1301 17.5504 14.0986 17.6043 14.0577 17.6604C14.0179 17.7154 13.97 17.7732 13.9139 17.8339C13.859 17.8935 13.7982 17.9571 13.7316 18.0247C13.762 18.0224 13.7935 18.0201 13.8262 18.0178C13.859 18.0155 13.8899 18.0144 13.9192 18.0144H14.2435V18.1363H13.5212ZM14.8292 18.157C14.7159 18.157 14.6276 18.1077 14.5645 18.0092C14.5014 17.9107 14.4698 17.7692 14.4698 17.5848C14.4698 17.4004 14.5014 17.2601 14.5645 17.1639C14.6276 17.0676 14.7159 17.0195 14.8292 17.0195C14.9414 17.0195 15.0291 17.0676 15.0922 17.1639C15.1553 17.2601 15.1869 17.4004 15.1869 17.5848C15.1869 17.7692 15.1553 17.9107 15.0922 18.0092C15.0291 18.1077 14.9414 18.157 14.8292 18.157ZM14.8292 18.0436C14.862 18.0436 14.8912 18.035 14.9169 18.0178C14.9438 17.9995 14.9666 17.972 14.9853 17.9353C15.0051 17.8975 15.0203 17.85 15.0309 17.7927C15.0414 17.7343 15.0466 17.665 15.0466 17.5848C15.0466 17.5046 15.0414 17.4359 15.0309 17.3786C15.0203 17.3214 15.0051 17.275 14.9853 17.2395C14.9666 17.2028 14.9438 17.1759 14.9169 17.1587C14.8912 17.1415 14.862 17.1329 14.8292 17.1329C14.7965 17.1329 14.7667 17.1415 14.7398 17.1587C14.7129 17.1759 14.6896 17.2028 14.6697 17.2395C14.651 17.275 14.6364 17.3214 14.6259 17.3786C14.6153 17.4359 14.6101 17.5046 14.6101 17.5848C14.6101 17.7452 14.6299 17.862 14.6697 17.9353C14.7106 18.0075 14.7638 18.0436 14.8292 18.0436ZM15.4728 18.1363V18.0195H15.7288V17.212H15.5254V17.1209C15.5768 17.1117 15.6212 17.1009 15.6586 17.0883C15.6972 17.0745 15.7317 17.0585 15.7621 17.0401H15.8725V18.0195H16.104V18.1363H15.4728ZM16.6879 17.6037C16.7253 17.6037 16.7645 17.5923 16.8054 17.5693C16.8475 17.5464 16.8866 17.5092 16.9228 17.4577C16.9135 17.35 16.8878 17.2687 16.8457 17.2137C16.8036 17.1587 16.7469 17.1312 16.6756 17.1312C16.6488 17.1312 16.623 17.1369 16.5985 17.1484C16.5751 17.1598 16.5547 17.1765 16.5371 17.1982C16.5196 17.2188 16.5056 17.244 16.4951 17.2738C16.4857 17.3036 16.481 17.3362 16.481 17.3718C16.481 17.4439 16.498 17.5006 16.5319 17.5419C16.5658 17.5831 16.6178 17.6037 16.6879 17.6037ZM16.6353 18.157C16.5757 18.157 16.5231 18.1461 16.4775 18.1243C16.4331 18.1026 16.3957 18.0751 16.3653 18.0418L16.446 17.9525C16.4693 17.9788 16.4968 18 16.5284 18.0161C16.5611 18.0321 16.595 18.0401 16.6301 18.0401C16.6698 18.0401 16.7072 18.0321 16.7423 18.0161C16.7773 18 16.8083 17.9737 16.8352 17.937C16.8621 17.8992 16.8837 17.8506 16.9001 17.791C16.9164 17.7314 16.9252 17.6575 16.9263 17.5693C16.8913 17.6129 16.8504 17.6472 16.8036 17.6724C16.7569 17.6976 16.7101 17.7102 16.6634 17.7102C16.5663 17.7102 16.4892 17.6822 16.4319 17.626C16.3747 17.5699 16.346 17.4852 16.346 17.3718C16.346 17.3191 16.3548 17.2715 16.3723 17.2291C16.3899 17.1856 16.4132 17.1484 16.4425 17.1175C16.4728 17.0865 16.5079 17.0625 16.5476 17.0453C16.5886 17.0281 16.6312 17.0195 16.6756 17.0195C16.7306 17.0195 16.7814 17.0304 16.8282 17.0522C16.8761 17.0739 16.917 17.1072 16.9509 17.1518C16.986 17.1954 17.0128 17.2503 17.0315 17.3168C17.0514 17.3821 17.0613 17.4588 17.0613 17.547C17.0613 17.657 17.0497 17.7509 17.0263 17.8288C17.0029 17.9055 16.9713 17.9685 16.9316 18.0178C16.8919 18.0659 16.8463 18.1014 16.7949 18.1243C16.7446 18.1461 16.6914 18.157 16.6353 18.157Z" fill="white"/>
<path d="M12.4159 4.99994H13.0266C13.1259 4.99994 13.2165 5.00853 13.2983 5.02571C13.3821 5.04099 13.4542 5.06676 13.5146 5.10303C13.5769 5.13739 13.6246 5.18417 13.6578 5.24335C13.6928 5.30253 13.7103 5.37508 13.7103 5.46099C13.7103 5.55071 13.6831 5.63376 13.6285 5.71012C13.5759 5.78649 13.4941 5.83899 13.3831 5.86762V5.87908C13.5214 5.90199 13.6266 5.95067 13.6987 6.02512C13.7727 6.09767 13.8097 6.19694 13.8097 6.32294C13.8097 6.41648 13.7912 6.49762 13.7542 6.56635C13.7172 6.63508 13.6655 6.69235 13.5993 6.73817C13.535 6.78398 13.4581 6.81835 13.3685 6.84126C13.2789 6.86226 13.1815 6.87276 13.0763 6.87276H12.4159V4.99994ZM12.9974 5.77599C13.1318 5.77599 13.2282 5.75212 13.2866 5.70439C13.347 5.65667 13.3772 5.58889 13.3772 5.50108C13.3772 5.41517 13.3461 5.35312 13.2837 5.31494C13.2214 5.27676 13.1279 5.25767 13.0032 5.25767H12.7548V5.77599H12.9974ZM13.0412 6.61503C13.1815 6.61503 13.2896 6.58926 13.3655 6.53771C13.4415 6.48617 13.4795 6.40694 13.4795 6.30003C13.4795 6.20267 13.4425 6.13108 13.3685 6.08526C13.2944 6.03753 13.1853 6.01367 13.0412 6.01367H12.7548V6.61503H13.0412ZM14.1594 4.99994H15.3107V5.28058H14.4984V5.7588H15.1851V6.03944H14.4984V6.59212H15.3399V6.87276H14.1594V4.99994ZM15.799 6.40599C15.8671 6.46899 15.9451 6.52053 16.0327 6.56062C16.1204 6.5988 16.208 6.61789 16.2957 6.61789C16.4048 6.61789 16.4876 6.59594 16.5441 6.55203C16.6006 6.50812 16.6288 6.44989 16.6288 6.37735C16.6288 6.33917 16.621 6.30671 16.6054 6.27999C16.5918 6.25326 16.5714 6.23035 16.5441 6.21126C16.5188 6.19026 16.4876 6.17117 16.4506 6.15399C16.4155 6.1368 16.3765 6.11962 16.3337 6.10244L16.0707 5.99076C16.024 5.97167 15.9772 5.9478 15.9304 5.91917C15.8856 5.89053 15.8447 5.85617 15.8077 5.81608C15.7707 5.77599 15.7405 5.72921 15.7171 5.67576C15.6957 5.6223 15.685 5.56121 15.685 5.49249C15.685 5.41803 15.7006 5.3493 15.7317 5.2863C15.7649 5.22139 15.8097 5.16508 15.8662 5.11735C15.9227 5.06962 15.9899 5.03239 16.0678 5.00567C16.1477 4.97894 16.2343 4.96558 16.3278 4.96558C16.4389 4.96558 16.546 4.98753 16.6493 5.03144C16.7525 5.07344 16.8412 5.13071 16.9152 5.20326L16.7428 5.41517C16.6804 5.36553 16.6162 5.32639 16.5499 5.29776C16.4837 5.26912 16.4097 5.2548 16.3278 5.2548C16.2363 5.2548 16.1632 5.27485 16.1087 5.31494C16.0541 5.35312 16.0269 5.40658 16.0269 5.4753C16.0269 5.51158 16.0347 5.54308 16.0503 5.5698C16.0678 5.59462 16.0902 5.61753 16.1175 5.63853C16.1467 5.65762 16.1798 5.67576 16.2168 5.69294C16.2538 5.70821 16.2918 5.72349 16.3308 5.73876L16.5908 5.84471C16.6473 5.86762 16.699 5.89435 16.7457 5.92489C16.7925 5.95544 16.8324 5.99076 16.8655 6.03085C16.9006 6.07094 16.9278 6.11771 16.9473 6.17117C16.9668 6.22271 16.9766 6.28285 16.9766 6.35158C16.9766 6.42794 16.961 6.49953 16.9298 6.56635C16.8986 6.63317 16.8528 6.69235 16.7925 6.74389C16.734 6.79353 16.6619 6.83362 16.5762 6.86417C16.4925 6.8928 16.397 6.90712 16.2899 6.90712C16.1613 6.90712 16.0366 6.88326 15.9158 6.83553C15.797 6.7878 15.6918 6.72003 15.6003 6.63221L15.799 6.40599ZM17.6527 5.28058H17.1004V4.99994H18.5439V5.28058H17.9916V6.87276H17.6527V5.28058ZM10.4055 8.24539H10.7795L11.1243 9.16749L11.25 9.52258H11.2617L11.3844 9.16749L11.7234 8.24539H12.0974V10.1182H11.7789V9.26198C11.7789 9.21808 11.7799 9.17035 11.7818 9.1188C11.7857 9.06726 11.7896 9.01571 11.7935 8.96417C11.7974 8.91071 11.8023 8.85917 11.8081 8.80953C11.814 8.75799 11.8188 8.71026 11.8227 8.66635H11.811L11.6562 9.09303L11.326 9.94353H11.1682L10.838 9.09303L10.686 8.66635H10.6743C10.6782 8.71026 10.6821 8.75799 10.686 8.80953C10.6919 8.85917 10.6968 8.91071 10.7006 8.96417C10.7065 9.01571 10.7104 9.06726 10.7123 9.1188C10.7162 9.17035 10.7182 9.21808 10.7182 9.26198V10.1182H10.4055V8.24539ZM13.3951 9.35076L13.3279 9.12167C13.2968 9.02239 13.2666 8.92026 13.2373 8.81526C13.2101 8.71026 13.1828 8.60621 13.1555 8.50312H13.1438C13.1166 8.60812 13.0893 8.71312 13.062 8.81812C13.0347 8.92121 13.0055 9.02239 12.9744 9.12167L12.9071 9.35076H13.3951ZM13.4711 9.61135H12.8283L12.6792 10.1182H12.3344L12.9568 8.24539H13.3542L13.9766 10.1182H13.6201L13.4711 9.61135ZM14.5512 9.12167H14.8229C14.9534 9.12167 15.0528 9.09494 15.121 9.04149C15.1911 8.98803 15.2262 8.90785 15.2262 8.80094C15.2262 8.69212 15.1911 8.61671 15.121 8.57471C15.0528 8.53271 14.9534 8.51171 14.8229 8.51171H14.5512V9.12167ZM15.2554 10.1182L14.8434 9.38512H14.5512V10.1182H14.2122V8.24539H14.858C14.9573 8.24539 15.0499 8.25494 15.1356 8.27403C15.2213 8.29312 15.2953 8.32462 15.3577 8.36853C15.42 8.41053 15.4687 8.46685 15.5038 8.53749C15.5408 8.60812 15.5593 8.69594 15.5593 8.80094C15.5593 8.94412 15.5242 9.05962 15.4541 9.14744C15.3859 9.23526 15.2943 9.29826 15.1794 9.33644L15.6353 10.1182H15.2554ZM15.9615 8.24539H16.3004V9.09589H16.3092L16.99 8.24539H17.367L16.7796 8.97562L17.4663 10.1182H17.0923L16.5751 9.23621L16.3004 9.57126V10.1182H15.9615V8.24539ZM17.705 8.24539H18.8563V8.52603H18.044V9.00426H18.7307V9.28489H18.044V9.83758H18.8855V10.1182H17.705V8.24539ZM19.6631 8.52603H19.1108V8.24539H20.5543V8.52603H20.002V10.1182H19.6631V8.52603ZM11.6126 11.4908H12.2554C12.3606 11.4908 12.4571 11.5004 12.5447 11.5195C12.6343 11.5386 12.7113 11.571 12.7756 11.6168C12.8399 11.6627 12.8905 11.7228 12.9275 11.7973C12.9645 11.8698 12.983 11.9605 12.983 12.0693C12.983 12.1724 12.9645 12.2621 12.9275 12.3385C12.8905 12.4148 12.8389 12.4788 12.7727 12.5303C12.7084 12.58 12.6314 12.6172 12.5418 12.642C12.4541 12.6649 12.3587 12.6764 12.2554 12.6764H11.9516V13.3637H11.6126V11.4908ZM12.2291 12.4101C12.5097 12.4101 12.6499 12.2965 12.6499 12.0693C12.6499 11.9509 12.6149 11.8698 12.5447 11.8259C12.4746 11.7801 12.3694 11.7572 12.2291 11.7572H11.9516V12.4101H12.2291ZM13.3419 11.4908H13.6808V13.083H14.4756V13.3637H13.3419V11.4908ZM15.6209 12.5962L15.5537 12.3671C15.5226 12.2678 15.4924 12.1657 15.4631 12.0607C15.4359 11.9557 15.4086 11.8517 15.3813 11.7486H15.3696C15.3424 11.8536 15.3151 11.9586 15.2878 12.0636C15.2606 12.1667 15.2313 12.2678 15.2002 12.3671L15.133 12.5962H15.6209ZM15.6969 12.8568H15.0541L14.905 13.3637H14.5602L15.1826 11.4908H15.58L16.2024 13.3637H15.8459L15.6969 12.8568ZM16.3101 12.433C16.3101 12.2803 16.3325 12.1438 16.3773 12.0235C16.4241 11.9013 16.4874 11.7982 16.5673 11.7142C16.6471 11.6302 16.7406 11.5663 16.8478 11.5223C16.9549 11.4784 17.0699 11.4565 17.1926 11.4565C17.3095 11.4565 17.4137 11.4803 17.5053 11.5281C17.5988 11.5758 17.6757 11.6312 17.7361 11.6942L17.5462 11.9003C17.4975 11.8526 17.4449 11.8154 17.3884 11.7887C17.3338 11.76 17.2695 11.7457 17.1955 11.7457C17.1156 11.7457 17.0426 11.7619 16.9764 11.7944C16.9121 11.8249 16.8556 11.8698 16.8069 11.929C16.7601 11.9863 16.7231 12.0569 16.6958 12.1409C16.6705 12.2249 16.6578 12.3194 16.6578 12.4244C16.6578 12.6382 16.7046 12.8062 16.7981 12.9284C16.8936 13.0487 17.0221 13.1088 17.1838 13.1088C17.2695 13.1088 17.3436 13.0926 17.4059 13.0601C17.4702 13.0277 17.5296 12.9818 17.5841 12.9227L17.7741 13.126C17.6962 13.2138 17.6075 13.2816 17.5082 13.3293C17.4088 13.3751 17.2988 13.398 17.178 13.398C17.0553 13.398 16.9413 13.377 16.8361 13.335C16.7309 13.293 16.6393 13.231 16.5614 13.1489C16.4835 13.0668 16.4221 12.9656 16.3773 12.8453C16.3325 12.7251 16.3101 12.5876 16.3101 12.433ZM18.0931 11.4908H19.2444V11.7715H18.4321V12.2497H19.1187V12.5303H18.4321V13.083H19.2736V13.3637H18.0931V11.4908Z" fill="white"/>
<path d="M16.3437 2.76079C16.3207 2.74153 16.2882 2.73748 16.261 2.75047L15.8446 2.94913L15.4539 2.50765C15.4394 2.49131 15.4184 2.48193 15.3964 2.48193C15.3743 2.48193 15.3534 2.49131 15.3389 2.50765L14.9482 2.94913L14.5318 2.75047C14.5046 2.73748 14.4721 2.74153 14.4491 2.76079C14.426 2.78004 14.4169 2.81083 14.4257 2.8392L14.7148 3.77137C14.7246 3.8028 14.7541 3.82425 14.7876 3.82425H16.0052C16.0387 3.82425 16.0682 3.8028 16.078 3.77139L16.3671 2.8392C16.3759 2.81083 16.3667 2.78004 16.3437 2.76079ZM15.9488 3.67512H14.844L14.622 2.9594L14.9341 3.10829C14.9651 3.12306 15.0023 3.1156 15.0249 3.09009L15.3964 2.67032L15.7679 3.09009C15.7905 3.11562 15.8277 3.12306 15.8587 3.10829L16.1708 2.9594L15.9488 3.67512Z" fill="white"/>
<path d="M22.9938 19.0909C22.8727 18.4967 22.8809 18.1734 22.9938 17.7546C23.281 16.9485 23.6332 16.664 24.3575 16.2273C24.449 16.8387 24.421 17.1718 24.2601 17.7546C24.1155 18.1649 23.9322 18.3946 23.5783 18.8046L22.9938 19.0909Z" fill="#F2CB45"/>
<path d="M25.2297 17.4496C24.9495 16.9094 24.8685 16.5959 24.8621 16.1627C24.9168 15.3106 25.1778 14.9436 25.7552 14.3318C26.0116 14.8964 26.0761 15.2246 26.0815 15.8283C26.0552 16.2616 25.9417 16.5313 25.7136 17.0195L25.2297 17.4496Z" fill="#F2CB45"/>
<path d="M26.7351 15.0032C26.3157 14.5579 26.1507 14.2779 26.0242 13.8628C25.8405 13.0282 25.9897 12.6054 26.3755 11.8628C26.7789 12.3378 26.932 12.6364 27.1048 13.2159C27.1999 13.6399 27.1654 13.9296 27.0814 14.4602L26.7351 15.0032Z" fill="#F2CB45"/>
<path d="M27.6926 12.3981C27.1395 12.1271 26.8842 11.9223 26.6161 11.5779C26.1429 10.861 26.1299 10.4138 26.2226 9.58545C26.7714 9.88991 27.0225 10.116 27.3932 10.5982C27.6351 10.9618 27.7076 11.2447 27.8206 11.7702L27.6926 12.3981Z" fill="#F2CB45"/>
<path d="M27.6905 9.91384C27.1078 9.71102 26.8286 9.53834 26.5197 9.22855C25.9608 8.57366 25.8922 8.1314 25.8811 7.2981C26.4636 7.53463 26.741 7.72904 27.169 8.16322C27.4544 8.49523 27.5617 8.76733 27.7392 9.2753L27.6905 9.91384Z" fill="#F2CB45"/>
<path d="M27.2096 7.21016C26.5923 7.1774 26.2748 7.08925 25.8888 6.87794C25.1634 6.40502 24.9699 5.99991 24.7183 5.20386C25.3453 5.26898 25.6675 5.37841 26.2036 5.67597C26.5732 5.91516 26.7548 6.14637 27.0719 6.5842L27.2096 7.21016Z" fill="#F2CB45"/>
<path d="M26.112 4.724C25.5021 4.82352 25.1725 4.8051 24.749 4.68099C23.9363 4.37384 23.6573 4.01965 23.2354 3.29618C23.8618 3.22621 24.2006 3.26441 24.7899 3.44073C25.2037 3.59546 25.432 3.78252 25.8387 4.14236L26.112 4.724Z" fill="#F2CB45"/>
<path d="M24.3312 2.37657C23.7133 2.39977 23.3888 2.3407 22.9847 2.16516C22.218 1.75981 21.9869 1.37394 21.6616 0.604004C22.2922 0.612177 22.6232 0.692023 23.185 0.93987C23.5849 1.12581 23.8175 1.30816 24.1351 1.76575C24.2441 1.93987 24.2788 2.09019 24.3312 2.37657Z" fill="#F2CB45"/>
<path d="M22.8379 19.477C23.3286 19.1083 23.6282 18.9728 24.0617 18.8873C24.9264 18.7841 25.3423 18.9684 26.0617 19.4126C25.5424 19.7629 25.225 19.8851 24.6204 20.0008C23.9697 20.0905 23.6572 20.0342 23.358 19.8645C23.1167 19.7154 23.0002 19.6306 22.8379 19.477Z" fill="#F2CB45"/>
<path d="M25.1755 17.759C25.6663 17.3902 25.9659 17.2548 26.3993 17.1693C27.264 17.0661 27.68 17.2504 28.3994 17.6946C27.88 18.0449 27.5627 18.1672 26.958 18.2829C26.3074 18.3726 25.9949 18.3163 25.6957 18.1466C25.4543 17.9974 25.3378 17.9126 25.1755 17.759Z" fill="#F2CB45"/>
<path d="M26.7678 15.59C27.0084 15.0317 27.2005 14.7688 27.534 14.4846C28.2337 13.9759 28.6882 13.9345 29.5378 13.9721C29.2629 14.5283 29.0486 14.7883 28.5815 15.1818C28.0611 15.575 27.7611 15.6775 27.4154 15.6749C27.1304 15.6622 26.9862 15.6449 26.7678 15.59Z" fill="#F2CB45"/>
<path d="M27.7485 12.9301C27.9005 12.3427 28.0501 12.0544 28.3363 11.7242C28.9499 11.1181 29.3929 11.0102 30.2385 10.9221C30.0521 11.5125 29.8803 11.8011 29.4788 12.2591C29.0247 12.7245 28.744 12.8701 28.4017 12.9185C28.1181 12.948 27.973 12.9522 27.7485 12.9301Z" fill="#F2CB45"/>
<path d="M27.9515 10.3102C27.8582 9.71111 27.8814 9.38851 28.0139 8.97519C28.3382 8.18278 28.7033 7.91433 29.4471 7.5105C29.5102 8.12538 29.4665 8.45682 29.2788 9.03181C29.0456 9.63377 28.8447 9.87502 28.5488 10.0502C28.2991 10.1857 28.167 10.2449 27.9515 10.3102Z" fill="#F2CB45"/>
<path d="M27.6687 7.63985C27.446 7.07446 27.3979 6.75451 27.4367 6.32298C27.5795 5.48077 27.8773 5.14167 28.5151 4.59058C28.7115 5.17783 28.7417 5.5107 28.6844 6.11182C28.5886 6.74882 28.4454 7.02677 28.1949 7.26021C27.9808 7.44509 27.8649 7.53067 27.6687 7.63985Z" fill="#F2CB45"/>
<path d="M26.7251 5.09055C26.3441 4.61328 26.2028 4.32096 26.1115 3.89716C25.9977 3.05069 26.1816 2.64126 26.6279 1.93188C26.9902 2.43755 27.1182 2.74733 27.2421 3.33873C27.3401 3.97543 27.2858 4.2822 27.1155 4.57708C26.9657 4.81511 26.8802 4.93009 26.7251 5.09055Z" fill="#F2CB45"/>
<path d="M25.4666 3.34306C25.0297 2.91437 24.8534 2.64087 24.7104 2.23099C24.4932 1.40417 24.6254 0.975987 24.981 0.218994C25.4031 0.678069 25.5683 0.970462 25.7641 1.54286C25.9398 2.16333 25.9236 2.47429 25.791 2.78717C25.6715 3.04115 25.6008 3.16541 25.4666 3.34306Z" fill="#F2CB45"/>
<path d="M8.07731 19.0909C8.19844 18.4967 8.19026 18.1734 8.07731 17.7546C7.79021 16.9485 7.43796 16.664 6.71368 16.2273C6.62216 16.8387 6.65023 17.1718 6.81108 17.7546C6.95557 18.1649 7.139 18.3946 7.4929 18.8046L8.07731 19.0909Z" fill="#F2CB45"/>
<path d="M5.84159 17.4496C6.12166 16.9094 6.20272 16.5959 6.20911 16.1627C6.15431 15.3106 5.89335 14.9436 5.31597 14.3318C5.05968 14.8964 4.99512 15.2246 4.98975 15.8283C5.01603 16.2616 5.1295 16.5313 5.35756 17.0195L5.84159 17.4496Z" fill="#F2CB45"/>
<path d="M4.33628 15.0032C4.75575 14.5579 4.92075 14.2779 5.04714 13.8628C5.23092 13.0282 5.08164 12.6054 4.69585 11.8628C4.29251 12.3378 4.13931 12.6364 3.96656 13.2159C3.87159 13.6399 3.90593 13.9296 3.98988 14.4602L4.33628 15.0032Z" fill="#F2CB45"/>
<path d="M3.37896 12.3981C3.93203 12.1271 4.18748 11.9223 4.45555 11.5779C4.92874 10.861 4.94173 10.4138 4.849 9.58545C4.30026 9.88991 4.04919 10.116 3.6784 10.5982C3.43647 10.9618 3.364 11.2447 3.25098 11.7702L3.37896 12.3981Z" fill="#F2CB45"/>
<path d="M3.38085 9.91384C3.96355 9.71102 4.24259 9.53834 4.55155 9.22855C5.11047 8.57366 5.17908 8.1314 5.19022 7.2981C4.60765 7.53463 4.33029 7.72904 3.90223 8.16322C3.61682 8.49523 3.50965 8.76733 3.33203 9.2753L3.38085 9.91384Z" fill="#F2CB45"/>
<path d="M3.86157 7.21016C4.47905 7.1774 4.79656 7.08925 5.18241 6.87794C5.90775 6.40502 6.10138 5.99991 6.35294 5.20386C5.72586 5.26898 5.40367 5.37841 4.86762 5.67597C4.49794 5.91516 4.31652 6.14637 3.99934 6.5842L3.86157 7.21016Z" fill="#F2CB45"/>
<path d="M4.95923 4.724C5.56918 4.82352 5.89868 4.8051 6.32214 4.68099C7.13503 4.37384 7.41385 4.01965 7.8359 3.29618C7.20936 3.22621 6.87062 3.26441 6.28139 3.44073C5.86753 3.59546 5.63916 3.78252 5.23246 4.14236L4.95923 4.724Z" fill="#F2CB45"/>
<path d="M6.74023 2.37657C7.35814 2.39977 7.6826 2.3407 8.08669 2.16516C8.85344 1.75981 9.08438 1.37394 9.40979 0.604004C8.77924 0.612177 8.44813 0.692023 7.88637 0.93987C7.48647 1.12581 7.2538 1.30816 6.93631 1.76575C6.82712 1.93987 6.79254 2.09019 6.74023 2.37657Z" fill="#F2CB45"/>
<path d="M8.23345 19.477C7.74274 19.1083 7.44307 18.9728 7.00974 18.8873C6.14492 18.7841 5.72898 18.9684 5.00952 19.4126C5.52903 19.7629 5.84639 19.8851 6.45102 20.0008C7.10165 20.0905 7.41414 20.0342 7.71336 19.8645C7.95476 19.7154 8.07124 19.6306 8.23345 19.477Z" fill="#F2CB45"/>
<path d="M5.8958 17.759C5.40509 17.3902 5.10542 17.2548 4.6721 17.1693C3.80728 17.0661 3.39133 17.2504 2.67188 17.6946C3.19138 18.0449 3.50874 18.1672 4.11337 18.2829C4.764 18.3726 5.07649 18.3163 5.37571 18.1466C5.61712 17.9974 5.73359 17.9126 5.8958 17.759Z" fill="#F2CB45"/>
<path d="M4.30336 15.59C4.06284 15.0317 3.8707 14.7688 3.53714 14.4846C2.83746 13.9759 2.38295 13.9345 1.53345 13.9721C1.80832 14.5283 2.02249 14.7883 2.48971 15.1818C3.01003 15.575 3.31003 15.6775 3.65575 15.6749C3.94081 15.6622 4.08489 15.6449 4.30336 15.59Z" fill="#F2CB45"/>
<path d="M3.32273 12.9301C3.17064 12.3427 3.02107 12.0544 2.73496 11.7242C2.12135 11.1181 1.67837 11.0102 0.832764 10.9221C1.01911 11.5125 1.19091 11.8011 1.59239 12.2591C2.04641 12.7245 2.32727 12.8701 2.66943 12.9185C2.9532 12.948 3.09829 12.9522 3.32273 12.9301Z" fill="#F2CB45"/>
<path d="M3.11946 10.3102C3.21279 9.71111 3.18959 9.38851 3.05724 8.97519C2.73291 8.18278 2.36778 7.91433 1.62393 7.5105C1.56097 8.12538 1.60452 8.45682 1.79234 9.03181C2.02558 9.63377 2.22642 9.87502 2.52233 10.0502C2.77199 10.1857 2.90397 10.2449 3.11946 10.3102Z" fill="#F2CB45"/>
<path d="M3.40267 7.63985C3.62522 7.07446 3.67329 6.75451 3.63472 6.32298C3.49177 5.48077 3.19405 5.14167 2.55616 4.59058C2.35982 5.17783 2.32964 5.5107 2.38695 6.11182C2.48271 6.74882 2.62594 7.02677 2.8765 7.26021C3.09061 7.44509 3.20654 7.53067 3.40267 7.63985Z" fill="#F2CB45"/>
<path d="M4.34635 5.09055C4.72741 4.61328 4.86856 4.32096 4.96 3.89716C5.07377 3.05069 4.88986 2.64126 4.44358 1.93188C4.08108 2.43755 3.95321 2.74733 3.82924 3.33873C3.73137 3.97543 3.78572 4.2822 3.95596 4.57708C4.10578 4.81511 4.19123 4.93009 4.34635 5.09055Z" fill="#F2CB45"/>
<path d="M5.60453 3.34306C6.04157 2.91437 6.21771 2.64087 6.3607 2.23099C6.57791 1.40417 6.44577 0.975987 6.09016 0.218994C5.66801 0.678069 5.50292 0.970462 5.307 1.54286C5.1314 2.16333 5.14755 2.47429 5.28023 2.78717C5.39963 3.04115 5.47029 3.16541 5.60453 3.34306Z" fill="#F2CB45"/>
</g>
<defs>
<clipPath id="clip0">
<rect x="0.591309" width="30" height="21" fill="white"/>
</clipPath>
</defs>
</svg>
