<svg width="22" height="20" viewBox="0 0 22 20" fill="none" xmlns="http://www.w3.org/2000/svg">
<path d="M20.9038 16.6369C20.9038 18.1122 19.6978 19.3182 18.2232 19.3182H3.37785C1.90257 19.3182 0.69458 18.1115 0.69458 16.6369V8.4515C0.69458 6.97687 1.90322 5.76953 3.37785 5.76953H18.2225C19.6978 5.76953 20.9032 6.97687 20.9032 8.4515V16.6369H20.9038Z" stroke="white" stroke-width="1.3" stroke-miterlimit="10" stroke-linecap="round"/>
<path d="M2.38037 5.96578L13.9133 1.18074C13.9133 1.18074 16.1357 0.333258 16.7459 2.30855C17.405 4.44813 17.8528 5.76955 17.8528 5.76955" stroke="white" stroke-width="1.3" stroke-miterlimit="10" stroke-linecap="round"/>
<path d="M16.8365 14.2366C17.7708 14.2366 18.5282 13.4792 18.5282 12.5449C18.5282 11.6106 17.7708 10.8531 16.8365 10.8531C15.9022 10.8531 15.1448 11.6106 15.1448 12.5449C15.1448 13.4792 15.9022 14.2366 16.8365 14.2366Z" stroke="white" stroke-width="1.3" stroke-miterlimit="10" stroke-linecap="round"/>
</svg>
