<svg width="151" height="167" viewBox="0 0 151 167" fill="none" xmlns="http://www.w3.org/2000/svg">
<path d="M150.308 96.9091L150.261 86.6221L140.213 86.5741L87.4861 56.0001C79.6391 51.4551 65.8591 51.9811 56.7682 57.1961L8.15589 85.1391C7.77319 85.3781 7.39039 85.6171 7.00759 85.8571L0.596191 85.8091V95.3301C0.643991 98.1531 2.41429 100.833 5.90709 102.89L63.4189 136.239C71.2661 140.785 85.0451 140.258 94.1361 135.043L142.749 107.1C147.82 104.182 150.356 100.45 150.308 96.9091Z" fill="url(#paint0_linear)"/>
<path d="M63.4195 126.765L5.90778 93.4162C-1.93902 88.8712 -0.93422 80.9281 8.15658 75.6651L56.8167 47.7232C65.9076 42.5072 79.687 41.9331 87.534 46.5271L144.998 79.8282C152.845 84.3732 151.84 92.3161 142.749 97.5791L94.137 125.521C85.046 130.785 71.314 131.311 63.4195 126.765Z" fill="url(#paint1_linear)"/>
<path d="M89.495 65.0909V12.1249L49.5432 11.3589V63.9909C49.3997 64.4209 49.5911 64.8999 50.1174 65.1869L68.2513 75.9039C69.2082 76.4789 70.835 76.4309 71.935 75.8089L88.586 66.4309C89.256 66.0479 89.543 65.5699 89.495 65.0909Z" fill="url(#paint2_linear)"/>
<path d="M68.2513 22.6991L50.1174 11.9811C49.1605 11.4071 49.304 10.4981 50.4045 9.87613L67.0551 0.498112C68.1556 -0.123888 69.7824 -0.171866 70.7393 0.402134L88.8731 11.1201C89.8301 11.6941 89.6871 12.6031 88.5861 13.2251L71.9351 22.6031C70.835 23.2251 69.1604 23.2731 68.2513 22.6991Z" fill="url(#paint3_linear)"/>
<path d="M68.8256 18.1531L57.7251 11.5981C57.151 11.2641 57.2467 10.6891 57.9165 10.3071L68.1078 4.56506C68.7777 4.18206 69.7825 4.13406 70.3567 4.51706L81.4571 11.0721C82.0311 11.4071 81.9351 11.9811 81.2661 12.3641L71.0741 18.106C70.4045 18.488 69.3997 18.5361 68.8256 18.1531Z" fill="url(#paint4_linear)"/>
<path d="M65.0934 59.9239C65.0934 59.1579 64.6628 58.2969 64.0886 57.9619L50.5958 49.9709C50.3566 49.8279 50.1174 49.8279 49.926 49.9239C49.8781 49.9239 49.8781 49.9709 49.8303 49.9709L46.481 51.9809L61.2178 62.7939L64.6149 60.7849C64.7106 60.7849 64.7584 60.7369 64.8063 60.6409C64.9977 60.5459 65.0934 60.3059 65.0934 59.9239Z" fill="url(#paint5_linear)"/>
<path d="M60.6435 62.7471L47.1507 54.7561C46.5766 54.4211 46.146 53.5601 46.146 52.7941C46.146 52.0291 46.6244 51.6941 47.1986 52.0291L60.6913 60.0191C61.2655 60.3541 61.6961 61.2151 61.6961 61.9811C61.6483 62.7471 61.1698 63.0811 60.6435 62.7471Z" fill="url(#paint6_linear)"/>
<path d="M65.0455 53.991C65.0455 53.225 64.6148 52.364 64.0407 52.029L50.5479 44.039C50.3087 43.895 50.0695 43.895 49.8781 43.991C49.8302 43.991 49.8302 44.039 49.7824 44.039L46.4331 46.0479L61.1699 56.861L64.567 54.852C64.6627 54.852 64.7105 54.804 64.7584 54.708C64.9498 54.613 65.0455 54.373 65.0455 53.991Z" fill="url(#paint7_linear)"/>
<path d="M60.5957 56.814L47.1029 48.8229C46.5287 48.4879 46.0981 47.627 46.0981 46.861C46.0981 46.096 46.5766 45.761 47.1507 46.096L60.6435 54.0859C61.2177 54.4209 61.6483 55.2819 61.6483 56.0479C61.6004 56.8139 61.122 57.149 60.5957 56.814Z" fill="url(#paint8_linear)"/>
<path d="M65.0933 48.058C65.0933 47.292 64.6627 46.4311 64.0885 46.0961L50.5958 38.1531C50.3565 38.0101 50.1173 38.0101 49.9259 38.1061C49.8781 38.1061 49.8781 38.1531 49.8302 38.1531L46.481 40.1631L61.2177 50.9761L64.6149 48.967C64.7105 48.967 64.7584 48.919 64.8062 48.823C64.9976 48.68 65.0933 48.44 65.0933 48.058Z" fill="url(#paint9_linear)"/>
<path d="M60.5957 50.8811L47.1029 42.8901C46.5287 42.5551 46.0981 41.6941 46.0981 40.9281C46.0981 40.1631 46.5766 39.8281 47.1507 40.1631L60.6435 48.1531C61.2177 48.4881 61.6483 49.3501 61.6483 50.1151C61.6483 50.8811 61.1698 51.2161 60.5957 50.8811Z" fill="url(#paint10_linear)"/>
<path d="M65.0933 42.125C65.0933 41.359 64.6627 40.498 64.0885 40.163L50.5958 32.173C50.3565 32.029 50.1173 32.029 49.9259 32.125C49.8781 32.125 49.8781 32.173 49.8302 32.173L46.481 34.182L61.2177 44.995L64.6149 42.986C64.7105 42.986 64.7584 42.938 64.8062 42.842C64.9498 42.699 65.0933 42.46 65.0933 42.125Z" fill="url(#paint11_linear)"/>
<path d="M60.5957 44.8999L47.1029 36.9089C46.5287 36.5739 46.0981 35.7129 46.0981 34.9479C46.0981 34.1819 46.5766 33.8469 47.1507 34.1819L60.6435 42.1719C61.2177 42.5069 61.6483 43.3688 61.6483 44.1338C61.6483 44.8998 61.1698 45.2349 60.5957 44.8999Z" fill="url(#paint12_linear)"/>
<path d="M65.1411 36.1919C65.1411 35.4259 64.7105 34.5649 64.1363 34.2299L50.6436 26.2399C50.4043 26.0959 50.1651 26.0959 49.9737 26.1919C49.9259 26.1919 49.9259 26.2399 49.878 26.2399L46.5288 28.2489L61.2655 39.0619L64.6627 37.0529C64.7584 37.0529 64.8062 37.0049 64.854 36.9089C64.9976 36.7659 65.0933 36.5269 65.1411 36.1919Z" fill="url(#paint13_linear)"/>
<path d="M60.6435 38.967L47.1507 30.976C46.5766 30.641 46.146 29.78 46.146 29.015C46.146 28.249 46.6244 27.914 47.1986 28.249L60.6913 36.24C61.2655 36.574 61.6961 37.436 61.6961 38.201C61.6483 38.967 61.2177 39.302 60.6435 38.967Z" fill="url(#paint14_linear)"/>
<path d="M65.1411 30.259C65.1411 29.493 64.7105 28.632 64.1363 28.297L50.6436 20.307C50.4043 20.163 50.1651 20.163 49.9737 20.259C49.9259 20.259 49.9259 20.307 49.878 20.307L46.5288 22.316L61.2655 33.129L64.6627 31.12C64.7584 31.12 64.8062 31.0721 64.854 30.9761C64.9976 30.8331 65.0933 30.594 65.1411 30.259Z" fill="url(#paint15_linear)"/>
<path d="M60.6435 33.0339L47.1507 25.0429C46.5766 24.7079 46.146 23.8469 46.146 23.0819C46.146 22.3159 46.6244 21.9809 47.1986 22.3159L60.6913 30.3069C61.2655 30.6409 61.6961 31.5029 61.6961 32.2679C61.6483 33.0339 61.2177 33.3689 60.6435 33.0339Z" fill="url(#paint16_linear)"/>
<path d="M57.7249 11.6461L59.591 12.7471L68.1077 7.96211C68.7775 7.57911 69.7823 7.53111 70.3565 7.91411L79.591 13.3691L81.266 12.4121C81.935 12.0291 82.031 11.4551 81.457 11.1201L70.3565 4.51711C69.7823 4.18211 68.7775 4.23011 68.1077 4.56511L57.9163 10.3071C57.1986 10.6891 57.1508 11.2641 57.7249 11.6461Z" fill="url(#paint17_linear)"/>
<path d="M86.6239 23.034L73.9929 30.307V28.345L86.6239 21.072V23.034Z" fill="url(#paint18_linear)"/>
<path d="M86.624 26.8141L82.749 29.0621V27.1011L86.624 24.8521V26.8141Z" fill="url(#paint19_linear)"/>
<path d="M81.2649 29.8761L73.9929 34.0861V32.1251L81.2649 27.9141V29.8761Z" fill="url(#paint20_linear)"/>
<path d="M86.6239 30.45L77.6289 35.665V33.704L86.6239 28.488V30.45Z" fill="url(#paint21_linear)"/>
<path d="M76.1459 36.4791L73.9929 37.7231V35.7611L76.1459 34.5171V36.4791Z" fill="url(#paint22_linear)"/>
<path d="M86.6239 34.2301L73.9929 41.55V39.5891L86.6239 32.2681V34.2301Z" fill="url(#paint23_linear)"/>
<path d="M86.624 38.0101L82.749 40.2591V38.2971L86.624 36.0481V38.0101Z" fill="url(#paint24_linear)"/>
<path d="M81.2649 41.1199L73.9929 45.33V43.369L81.2649 39.158V41.1199Z" fill="url(#paint25_linear)"/>
<path d="M86.6239 41.6461L77.6289 46.8611V44.9001L86.6239 39.6841V41.6461Z" fill="url(#paint26_linear)"/>
<path d="M76.1459 47.723L73.9929 48.967V47.005L76.1459 45.761V47.723Z" fill="url(#paint27_linear)"/>
<path d="M86.6239 45.2349L73.9929 52.5549V50.5939L86.6239 43.2729V45.2349Z" fill="url(#paint28_linear)"/>
<path d="M86.624 49.015L82.749 51.263V49.302L86.624 47.053V49.015Z" fill="url(#paint29_linear)"/>
<path d="M81.2649 52.1251L73.9929 56.3351V54.373L81.2649 50.1631V52.1251Z" fill="url(#paint30_linear)"/>
<path d="M86.6239 52.6509L77.6289 57.866V55.9039L86.6239 50.689V52.6509Z" fill="url(#paint31_linear)"/>
<path d="M76.1459 58.7271L73.9929 59.9711V58.0101L76.1459 56.7661V58.7271Z" fill="url(#paint32_linear)"/>
<path d="M86.6239 56.4791L73.9929 63.751V61.79L86.6239 54.5171V56.4791Z" fill="url(#paint33_linear)"/>
<path d="M39.4475 85.761V58.01L15.572 57.531V85.091C15.4763 85.378 15.6198 85.617 15.9069 85.809L26.7681 92.22C27.3422 92.555 28.2992 92.507 28.969 92.172L38.9211 86.574C39.3039 86.335 39.4953 86.048 39.4475 85.761Z" fill="url(#paint34_linear)"/>
<path d="M26.7204 64.326L15.8592 57.914C15.285 57.579 15.3807 57.005 16.0505 56.622L26.0027 51.024C26.6725 50.641 27.6294 50.641 28.2036 50.976L39.0648 57.388C39.639 57.723 39.5433 58.297 38.8734 58.68L28.9213 64.278C28.2993 64.66 27.2945 64.66 26.7204 64.326Z" fill="url(#paint35_linear)"/>
<path d="M36.8158 92.316L33.323 90.306V88.249L36.8158 90.258V92.316Z" fill="#3B3BC4"/>
<path d="M40.1652 90.4019L36.8159 88.4879L40.1652 88.2969V90.4019Z" fill="#3B3BC4"/>
<path d="M37.4858 83.2729V87.2919L41.2179 85.9999L43.5145 82.3159L41.4093 80.5459L37.4858 83.2729Z" fill="url(#paint36_linear)"/>
<path d="M37.5337 77.2921V80.785L41.9356 78.7751L42.6533 75.3301L40.5002 74.8521L37.5337 77.2921Z" fill="url(#paint37_linear)"/>
<path d="M31.7441 74.086L33.3231 73.177L36.8159 75.187L35.2369 76.096L31.7441 74.086Z" fill="#DFD2FF"/>
<path d="M40.1652 73.2249L36.6724 71.2629L35.0457 72.2199L38.5385 74.1819L40.1652 73.2249Z" fill="#DFD2FF"/>
<path d="M42.9402 72.412L39.5909 70.498L38.5383 71.6461L42.1268 73.1291L42.9402 72.412Z" fill="#DFD2FF"/>
<path d="M33.323 71.1201L36.8158 73.1292V75.1871L33.323 73.1771V71.1201Z" fill="#554FC6"/>
<path d="M36.6724 69.2061L40.1652 71.1681V73.225L36.6724 71.2631V69.2061Z" fill="#554FC6"/>
<path d="M38.3949 68.2009L41.8877 70.2109L40.1652 71.168L36.6724 69.2059L38.3949 68.2009Z" fill="#DFD2FF"/>
<path d="M35.0455 70.1631L38.5383 72.1251L36.8158 73.1291L33.323 71.1201L35.0455 70.1631Z" fill="#DFD2FF"/>
<path d="M40.1653 90.4019V88.3449C39.8304 88.5359 39.4955 88.7269 39.0648 88.9669L38.5385 89.301V91.3589L36.816 92.364V90.306L35.2371 91.215V76.1439L36.816 75.2349V73.1769L38.5385 72.1719V74.2299L39.7347 73.512C39.8782 73.416 40.0218 73.3689 40.1653 73.2729V71.215L41.8878 70.2109V72.4589C42.2706 72.3639 42.6055 72.3639 42.9404 72.4589C43.2753 72.5549 43.5624 72.8419 43.8017 73.2249C44.0409 73.6079 44.1366 74.134 44.1366 74.804C44.1366 75.522 43.993 76.2389 43.706 77.0049C43.4189 77.7699 43.0361 78.4399 42.5576 79.0139C43.2275 78.8709 43.7538 79.0139 44.1366 79.4449C44.5194 79.8759 44.7107 80.5459 44.7107 81.4069C44.7107 82.0769 44.5672 82.8419 44.328 83.6079C44.0887 84.3729 43.7538 85.091 43.3232 85.713C42.9404 86.335 42.4141 86.8609 41.8399 87.2919V89.4449L40.1653 90.4019ZM37.4859 83.2729V87.2919L39.5912 86.0959C40.4045 85.6169 40.9309 85.2819 41.1701 85.0909C41.505 84.8039 41.7921 84.4689 41.9835 83.9899C42.1749 83.5599 42.3184 83.081 42.3184 82.507C42.3184 82.077 42.2227 81.742 42.0792 81.502C41.9356 81.263 41.6964 81.168 41.3615 81.215C41.0265 81.263 40.3567 81.5499 39.3519 82.1719L37.4859 83.2729ZM37.5337 77.2919V80.7849L39.017 79.924C39.9261 79.3969 40.4524 79.0619 40.6916 78.9189C41.0744 78.6319 41.4093 78.297 41.6007 77.866C41.8399 77.435 41.9356 77.0049 41.9356 76.4789C41.9356 75.9999 41.8399 75.6649 41.6486 75.5219C41.4572 75.3299 41.1701 75.3299 40.7873 75.4739C40.5481 75.5689 39.9261 75.9039 38.8256 76.5259L37.5337 77.2919Z" fill="#B590FF"/>
<path d="M31.7441 74.0859L35.2369 76.0959V91.1669L31.7441 89.2059V74.0859Z" fill="#554FC6"/>
<path d="M18.6822 66.479L17.0554 65.57C16.9597 65.522 16.864 65.33 16.864 65.187V62.603C16.864 62.459 16.9597 62.412 17.0554 62.459L18.6822 63.369C18.7779 63.416 18.8735 63.608 18.8735 63.751V66.335C18.8735 66.479 18.7779 66.574 18.6822 66.479Z" fill="#F5E9E6"/>
<path d="M21.5527 68.153L19.926 67.244C19.8303 67.196 19.7346 67.005 19.7346 66.861V64.278C19.7346 64.134 19.8303 64.086 19.926 64.134L21.5527 65.043C21.6484 65.091 21.7441 65.282 21.7441 65.426V68.01C21.7441 68.153 21.6484 68.201 21.5527 68.153Z" fill="#F5E9E6"/>
<path d="M24.4236 69.828L22.7969 68.919C22.7012 68.871 22.6055 68.68 22.6055 68.536V65.952C22.6055 65.809 22.7012 65.761 22.7969 65.809L24.4236 66.718C24.5193 66.766 24.615 66.957 24.615 67.101V69.684C24.615 69.828 24.5193 69.876 24.4236 69.828Z" fill="#F5E9E6"/>
<path d="M18.6822 70.5929L17.0554 69.6839C16.9597 69.6359 16.864 69.4449 16.864 69.3019V66.7179C16.864 66.5739 16.9597 66.5259 17.0554 66.5739L18.6822 67.4829C18.7779 67.5309 18.8735 67.723 18.8735 67.866V70.4499C18.8735 70.5929 18.7779 70.6409 18.6822 70.5929Z" fill="#F5E9E6"/>
<path d="M21.5527 72.268L19.926 71.359C19.8303 71.311 19.7346 71.12 19.7346 70.976V68.392C19.7346 68.249 19.8303 68.201 19.926 68.249L21.5527 69.158C21.6484 69.206 21.7441 69.397 21.7441 69.541V72.1249C21.7441 72.2679 21.6484 72.316 21.5527 72.268Z" fill="#F5E9E6"/>
<path d="M24.4236 73.895L22.7969 72.986C22.7012 72.938 22.6055 72.747 22.6055 72.603V70.0189C22.6055 69.8759 22.7012 69.8279 22.7969 69.8759L24.4236 70.7849C24.5193 70.8329 24.615 71.024 24.615 71.168V73.7509C24.615 73.8949 24.5193 73.991 24.4236 73.895Z" fill="#F5E9E6"/>
<path d="M21.5527 76.3349L19.926 75.4259C19.8303 75.3779 19.7346 75.1869 19.7346 75.0429V72.4589C19.7346 72.3159 19.8303 72.2679 19.926 72.3159L21.5527 73.2249C21.6484 73.2729 21.7441 73.4639 21.7441 73.6079V76.1909C21.7441 76.3349 21.6484 76.4309 21.5527 76.3349Z" fill="#F5E9E6"/>
<path d="M18.6822 78.7751L17.0554 77.8661C16.9597 77.8181 16.864 77.627 16.864 77.483V74.9001C16.864 74.7561 16.9597 74.708 17.0554 74.756L18.6822 75.665C18.7779 75.713 18.8735 75.904 18.8735 76.048V78.6321C18.8735 78.7751 18.7779 78.8231 18.6822 78.7751Z" fill="#F5E9E6"/>
<path d="M24.4236 86.191L22.7969 85.282C22.7012 85.234 22.6055 85.0431 22.6055 84.9001V82.316C22.6055 82.172 22.7012 82.1241 22.7969 82.1721L24.4236 83.0811C24.5193 83.1291 24.615 83.321 24.615 83.464V86.048C24.615 86.191 24.5193 86.239 24.4236 86.191Z" fill="#F5E9E6"/>
<path d="M126.241 82.172V38.01L102.366 37.531V81.502C102.27 81.79 102.414 82.029 102.701 82.22L113.562 88.632C114.136 88.967 115.093 88.919 115.763 88.584L125.715 82.986C126.098 82.699 126.289 82.412 126.241 82.172Z" fill="url(#paint38_linear)"/>
<path d="M113.562 44.326L102.701 37.914C102.127 37.579 102.222 37.005 102.892 36.622L112.844 31.024C113.514 30.641 114.471 30.641 115.045 30.976L125.906 37.388C126.481 37.723 126.385 38.297 125.715 38.68L115.763 44.278C115.093 44.613 114.088 44.661 113.562 44.326Z" fill="url(#paint39_linear)"/>
<path d="M126.672 92.124L121.839 89.349V86.479L126.672 89.254V92.124Z" fill="#3B3BC4"/>
<path d="M131.361 89.3969L126.672 86.8129L131.361 86.5259V89.3969Z" fill="#3B3BC4"/>
<path d="M127.677 79.541L127.629 85.139L132.796 83.368L136.002 78.201L133.036 75.761L127.677 79.541Z" fill="url(#paint40_linear)"/>
<path d="M127.677 71.215V76.048L133.801 73.273L134.806 68.488L131.839 67.77L127.677 71.215Z" fill="url(#paint41_linear)"/>
<path d="M119.639 66.766L121.84 65.522L126.672 68.249L124.471 69.541L119.639 66.766Z" fill="#DFD2FF"/>
<path d="M131.361 65.5701L126.481 62.842L124.232 64.134L129.064 66.8611L131.361 65.5701Z" fill="#DFD2FF"/>
<path d="M135.189 64.421L130.548 61.7419L129.112 63.3209L134.088 65.3779L135.189 64.421Z" fill="#DFD2FF"/>
<path d="M121.839 62.6509L126.672 65.3779V68.2489L121.839 65.5219V62.6509Z" fill="#554FC6"/>
<path d="M126.481 59.9709L131.361 62.6989V65.5699L126.481 62.8419V59.9709Z" fill="#554FC6"/>
<path d="M128.873 58.584L133.753 61.311L131.361 62.699L126.481 59.971L128.873 58.584Z" fill="#DFD2FF"/>
<path d="M124.232 61.2629L129.112 63.991L126.672 65.3779L121.839 62.6509L124.232 61.2629Z" fill="#DFD2FF"/>
<path d="M131.361 89.397V86.5261C130.93 86.8131 130.404 87.1011 129.83 87.4351L129.064 87.8661V90.7371L126.672 92.1241V89.2541L124.471 90.545V69.5411L126.672 68.2491V65.3781L129.064 63.9911V66.8611L130.739 65.9041C130.93 65.8091 131.122 65.6651 131.313 65.5701V62.699L133.706 61.311V64.4211C134.232 64.2781 134.71 64.2781 135.141 64.4211C135.619 64.5651 136.05 64.9481 136.337 65.4741C136.672 66.0001 136.816 66.7661 136.816 67.6271C136.816 68.6321 136.624 69.6361 136.194 70.6891C135.811 71.7421 135.237 72.6511 134.567 73.4641C135.524 73.2731 136.241 73.5121 136.768 74.0861C137.294 74.7081 137.533 75.569 137.533 76.813C137.533 77.7701 137.342 78.775 137.055 79.876C136.72 80.976 136.241 81.933 135.667 82.842C135.093 83.703 134.423 84.4211 133.61 84.9951V88.0101L131.361 89.397ZM127.677 79.5411V85.139L130.595 83.4641C131.744 82.7941 132.461 82.3641 132.796 82.0771C133.275 81.6941 133.658 81.1681 133.945 80.5931C134.232 79.9711 134.375 79.3021 134.375 78.5361C134.375 77.9141 134.28 77.4351 134.04 77.1481C133.801 76.8611 133.466 76.7181 133.036 76.7661C132.605 76.8131 131.648 77.244 130.213 78.105L127.677 79.5411ZM127.677 71.2151V76.048L129.782 74.8521C131.026 74.1341 131.792 73.6561 132.079 73.4641C132.605 73.081 133.036 72.5551 133.371 71.9811C133.705 71.4071 133.849 70.7371 133.849 70.0671C133.849 69.3971 133.706 68.9671 133.466 68.7271C133.179 68.4881 132.796 68.4401 132.27 68.6801C131.935 68.8231 131.026 69.3021 129.543 70.1631L127.677 71.2151Z" fill="#B590FF"/>
<path d="M119.639 66.7661L124.471 69.5411V90.4981L119.591 87.7701L119.639 66.7661Z" fill="#554FC6"/>
<path d="M105.476 46.9569L103.849 46.0479C103.753 45.9999 103.658 45.8089 103.658 45.6649V43.0819C103.658 42.9379 103.753 42.8899 103.849 42.9379L105.476 43.8469C105.572 43.8949 105.667 44.0859 105.667 44.2299V46.814C105.667 46.957 105.572 47.0049 105.476 46.9569Z" fill="#F5E9E6"/>
<path d="M108.347 48.632L106.72 47.723C106.624 47.675 106.529 47.483 106.529 47.34V44.756C106.529 44.613 106.624 44.565 106.72 44.613L108.347 45.522C108.442 45.57 108.538 45.761 108.538 45.905V48.488C108.538 48.632 108.442 48.68 108.347 48.632Z" fill="#F5E9E6"/>
<path d="M111.218 50.259L109.591 49.349C109.495 49.302 109.399 49.11 109.399 48.967V46.383C109.399 46.239 109.495 46.192 109.591 46.239L111.218 47.149C111.313 47.196 111.409 47.388 111.409 47.531V50.115C111.409 50.259 111.313 50.354 111.218 50.259Z" fill="#F5E9E6"/>
<path d="M105.476 51.024L103.849 50.115C103.753 50.067 103.658 49.8761 103.658 49.7321V47.149C103.658 47.005 103.753 46.9571 103.849 47.0051L105.476 47.9141C105.572 47.9621 105.667 48.1531 105.667 48.2971V50.881C105.667 51.024 105.572 51.12 105.476 51.024Z" fill="#F5E9E6"/>
<path d="M108.347 52.6991L106.72 51.7901C106.624 51.7421 106.529 51.5501 106.529 51.4071V48.8231C106.529 48.6801 106.624 48.6321 106.72 48.6801L108.347 49.5891C108.442 49.6371 108.538 49.8281 108.538 49.9711V52.5551C108.538 52.6991 108.442 52.7471 108.347 52.6991Z" fill="#F5E9E6"/>
<path d="M111.218 54.3729L109.591 53.4639C109.495 53.4159 109.399 53.2249 109.399 53.0819V50.4979C109.399 50.3539 109.495 50.3059 109.591 50.3539L111.218 51.2629C111.313 51.3109 111.409 51.5029 111.409 51.6459V54.2299C111.409 54.3729 111.313 54.4209 111.218 54.3729Z" fill="#F5E9E6"/>
<path d="M108.347 56.814L106.72 55.857C106.624 55.809 106.529 55.617 106.529 55.474V52.89C106.529 52.747 106.624 52.699 106.72 52.747L108.347 53.656C108.442 53.704 108.538 53.895 108.538 54.038V56.622C108.538 56.814 108.442 56.861 108.347 56.814Z" fill="#F5E9E6"/>
<path d="M111.218 62.5551L109.591 61.6461C109.495 61.5981 109.399 61.4071 109.399 61.2631V58.6801C109.399 58.5361 109.495 58.4881 109.591 58.5361L111.218 59.4451C111.313 59.4931 111.409 59.6841 111.409 59.8281V62.412C111.409 62.555 111.313 62.6031 111.218 62.5551Z" fill="#F5E9E6"/>
<path d="M105.476 67.436L103.849 66.526C103.753 66.479 103.658 66.287 103.658 66.144V63.56C103.658 63.416 103.753 63.369 103.849 63.416L105.476 64.325C105.572 64.373 105.667 64.565 105.667 64.708V67.292C105.667 67.436 105.572 67.483 105.476 67.436Z" fill="#F5E9E6"/>
<path d="M58.5385 149.636V115.282L24.1846 114.612V148.679C24.041 149.062 24.2324 149.445 24.663 149.732L40.261 158.966C41.0744 159.445 42.5098 159.397 43.4189 158.871L57.7251 150.784C58.3471 150.45 58.5863 150.067 58.5385 149.636Z" fill="url(#paint42_linear)"/>
<path d="M40.3097 124.421L24.7116 115.187C23.8982 114.708 23.9939 113.895 24.9509 113.368L39.257 105.282C40.214 104.756 41.6015 104.708 42.4149 105.187L58.0129 114.421C58.8263 114.899 58.7306 115.713 57.7737 116.239L43.4675 124.325C42.5106 124.852 41.123 124.899 40.3097 124.421Z" fill="url(#paint43_linear)"/>
<path d="M40.7871 120.545L31.2656 114.899C30.7872 114.612 30.835 114.086 31.4092 113.799L40.1651 108.871C40.7393 108.536 41.6005 108.536 42.1268 108.823L51.6483 114.469C52.1268 114.756 52.079 115.282 51.5048 115.569L42.7488 120.45C42.1747 120.785 41.2656 120.832 40.7871 120.545Z" fill="url(#paint44_linear)"/>
<path d="M37.5816 146.239C37.5816 145.617 37.1988 144.851 36.7204 144.564L25.1415 137.674C24.9022 137.531 24.7108 137.531 24.5673 137.627L24.5195 137.674L21.6487 139.397L34.2802 148.679L37.1988 146.957C37.2467 146.957 37.3424 146.909 37.3902 146.861C37.4859 146.718 37.5816 146.526 37.5816 146.239Z" fill="url(#paint45_linear)"/>
<path d="M33.7538 148.631L22.1749 141.789C21.6964 141.502 21.3137 140.737 21.3137 140.115C21.3137 139.493 21.7443 139.206 22.2227 139.493L33.8016 146.335C34.2801 146.622 34.6629 147.387 34.6629 148.009C34.6629 148.631 34.2323 148.918 33.7538 148.631Z" fill="url(#paint46_linear)"/>
<path d="M37.5816 141.119C37.5816 140.497 37.1988 139.732 36.7204 139.445L25.1415 132.603C24.9022 132.459 24.7108 132.459 24.5673 132.555L24.5195 132.603L21.6487 134.325L34.2802 143.607L37.1988 141.885C37.2467 141.885 37.3424 141.837 37.3902 141.789C37.4859 141.598 37.5816 141.407 37.5816 141.119Z" fill="url(#paint47_linear)"/>
<path d="M33.7538 143.512L22.1749 136.67C21.6964 136.383 21.3137 135.617 21.3137 134.995C21.3137 134.373 21.7443 134.086 22.2227 134.373L33.8016 141.215C34.2801 141.502 34.6629 142.268 34.6629 142.89C34.615 143.512 34.2323 143.799 33.7538 143.512Z" fill="url(#paint48_linear)"/>
<path d="M37.6293 136C37.6293 135.378 37.2465 134.612 36.768 134.325L25.1891 127.483C24.9499 127.34 24.7585 127.34 24.615 127.435L24.5671 127.483L21.6963 129.206L34.3278 138.488L37.2465 136.765C37.2943 136.765 37.39 136.718 37.4379 136.67C37.5336 136.526 37.6293 136.287 37.6293 136Z" fill="url(#paint49_linear)"/>
<path d="M33.7538 138.392L22.1749 131.55C21.6964 131.263 21.3137 130.497 21.3137 129.875C21.3137 129.253 21.7443 128.966 22.2227 129.253L33.8016 136.096C34.2801 136.383 34.6629 137.148 34.6629 137.77C34.6629 138.392 34.2323 138.679 33.7538 138.392Z" fill="url(#paint50_linear)"/>
<path d="M37.6293 130.928C37.6293 130.306 37.2465 129.541 36.768 129.253L25.1891 122.411C24.9499 122.268 24.7585 122.268 24.615 122.364L24.5671 122.411L21.6963 124.134L34.3278 133.416L37.2465 131.694C37.2943 131.694 37.39 131.646 37.4379 131.598C37.5336 131.407 37.6293 131.215 37.6293 130.928Z" fill="url(#paint51_linear)"/>
<path d="M33.7538 133.32L22.1749 126.478C21.6964 126.191 21.3137 125.426 21.3137 124.804C21.3137 124.182 21.7443 123.895 22.2227 124.182L33.8016 131.024C34.2801 131.311 34.6629 132.076 34.6629 132.698C34.6629 133.32 34.2323 133.608 33.7538 133.32Z" fill="url(#paint52_linear)"/>
<path d="M31.2657 114.899L32.8447 115.856L40.1652 111.742C40.7394 111.407 41.6006 111.407 42.1269 111.694L50.0695 116.383L51.5049 115.569C52.0791 115.234 52.1269 114.756 51.6484 114.469L42.1269 108.775C41.6485 108.488 40.7872 108.488 40.1652 108.823L31.4093 113.751C30.8351 114.086 30.7394 114.612 31.2657 114.899Z" fill="url(#paint53_linear)"/>
<path d="M56.0983 124.708L45.2371 130.976V129.301L56.0983 123.033V124.708Z" fill="url(#paint54_linear)"/>
<path d="M56.0983 127.962L52.749 129.875V128.201L56.0983 126.239V127.962Z" fill="url(#paint55_linear)"/>
<path d="M51.505 130.593L45.2371 134.23V132.507L51.505 128.919V130.593Z" fill="url(#paint56_linear)"/>
<path d="M56.0981 131.072L48.3469 135.521V133.847L56.0981 129.397V131.072Z" fill="url(#paint57_linear)"/>
<path d="M47.1031 136.287L45.2371 137.34V135.665L47.1031 134.564V136.287Z" fill="url(#paint58_linear)"/>
<path d="M56.0983 134.325L45.2371 140.593V138.919L56.0983 132.651V134.325Z" fill="url(#paint59_linear)"/>
<path d="M56.0983 137.579L52.749 139.493V137.818L56.0983 135.904V137.579Z" fill="url(#paint60_linear)"/>
<path d="M51.505 140.258L45.2371 143.847V142.172L51.505 138.536V140.258Z" fill="url(#paint61_linear)"/>
<path d="M56.0981 140.689L48.3469 145.186V143.512L56.0981 139.014V140.689Z" fill="url(#paint62_linear)"/>
<path d="M47.1031 145.904L45.2371 146.957V145.282L47.1031 144.229V145.904Z" fill="url(#paint63_linear)"/>
<path d="M56.0983 143.799L45.2371 150.067V148.392L56.0983 142.124V143.799Z" fill="url(#paint64_linear)"/>
<path d="M69.7345 163.129V148.392L57.0551 148.153V162.794C57.0073 162.938 57.0551 163.081 57.2465 163.177L62.9881 166.574C63.2752 166.765 63.8015 166.717 64.1364 166.526L69.4474 163.56C69.6866 163.416 69.7823 163.272 69.7345 163.129Z" fill="url(#paint65_linear)"/>
<path d="M62.9884 151.741L57.2468 148.344C56.9598 148.153 57.0076 147.866 57.3425 147.674L62.6535 144.708C62.9884 144.517 63.5147 144.517 63.8018 144.66L69.5434 148.057C69.8305 148.249 69.7827 148.536 69.4477 148.727L64.1368 151.694C63.8018 151.933 63.3234 151.933 62.9884 151.741Z" fill="url(#paint66_linear)"/>
<path d="M60.6915 155.761L59.0647 154.851C58.969 154.804 58.8733 154.612 58.8733 154.469V151.885C58.8733 151.741 58.969 151.694 59.0647 151.741L60.6915 152.65C60.7872 152.698 60.8829 152.89 60.8829 153.033V155.617C60.8829 155.761 60.7872 155.808 60.6915 155.761Z" fill="#F5E9E6"/>
<path d="M109.926 103.799L109.974 76.574C109.974 75.761 109.495 74.852 108.873 74.517L77.8211 56.622C77.5811 56.479 77.3421 56.479 77.1511 56.574L75.9551 57.292L76.7681 58.44V84.852C76.7681 85.665 77.2461 86.574 77.8681 86.909L108.155 105.474L108.442 105.33L109.591 104.708C109.782 104.517 109.926 104.23 109.926 103.799Z" fill="url(#paint67_linear)"/>
<path d="M107.773 105.426L76.7201 87.5309C76.0981 87.1959 75.6201 86.2389 75.6201 85.4739V58.1049C75.6201 57.2919 76.0981 56.9569 76.7201 57.2919L107.773 75.1869C108.395 75.5219 108.873 76.4789 108.873 77.2439V103.799C108.873 104.565 108.395 105.761 107.773 105.426Z" fill="url(#paint68_linear)"/>
<path d="M107.007 102.603L77.438 85.5689C77.151 85.4259 76.959 84.9949 76.959 84.6599V59.684C76.959 59.349 77.151 59.1579 77.438 59.3019L107.007 76.335C107.294 76.479 107.486 76.909 107.486 77.244V102.22C107.486 102.555 107.294 102.746 107.007 102.603Z" fill="url(#paint69_linear)"/>
<path d="M92.2701 67.436L92.1271 67.388C91.9831 67.292 91.8401 67.053 91.8401 66.861C91.8401 66.67 91.9831 66.574 92.1271 66.67L92.2701 66.718C92.4141 66.814 92.5571 67.053 92.5571 67.244C92.5571 67.436 92.4141 67.531 92.2701 67.436Z" fill="url(#paint70_linear)"/>
<path d="M107.533 105.33L105.763 105.187L76.0979 88.1051C75.4759 87.7701 74.4709 87.8181 73.7539 88.2011L52.1269 100.737L50.9785 100.641V101.789C50.9785 102.029 51.0742 102.22 51.3613 102.411L82.4139 120.306C83.0359 120.641 84.0409 120.593 84.7579 120.21L106.959 107.34C107.342 107.1 107.533 106.861 107.533 106.574V105.33Z" fill="url(#paint71_linear)"/>
<path d="M82.4141 119.062L51.3614 101.167C50.7394 100.833 50.8351 100.211 51.505 99.8279L73.7061 86.9569C74.3761 86.5739 75.4281 86.5259 76.0501 86.8609L107.103 104.756C107.725 105.091 107.629 105.713 106.959 106.096L84.7581 118.966C84.0411 119.349 82.9881 119.397 82.4141 119.062Z" fill="url(#paint72_linear)"/>
<path d="M91.3131 113.033L61.7442 95.9999C61.4571 95.8559 61.505 95.5689 61.8399 95.4259L74.2801 88.2009C74.5671 88.0099 75.0451 88.0099 75.3331 88.1529L104.902 105.187C105.189 105.33 105.141 105.617 104.806 105.761L92.3661 112.986C92.0311 113.177 91.6001 113.177 91.3131 113.033Z" fill="url(#paint73_linear)"/>
<path d="M72.1751 111.742L63.993 107.005C63.8494 106.909 63.8494 106.766 64.0408 106.67L70.6437 102.842C70.7872 102.746 71.0741 102.746 71.2181 102.842L79.4001 107.579C79.5431 107.675 79.5431 107.818 79.3521 107.914L72.7491 111.742C72.6051 111.837 72.3181 111.837 72.1751 111.742Z" fill="url(#paint74_linear)"/>
<path d="M61.7921 95.9999L61.9356 96.0959L74.2801 88.9189C74.5671 88.7269 75.0451 88.7269 75.3331 88.8709L104.758 105.809L104.854 105.761C105.141 105.569 105.189 105.33 104.95 105.187L75.3801 88.1529C75.0931 88.0099 74.6631 88.0099 74.3281 88.2009L61.8877 95.4259C61.5528 95.6169 61.505 95.8559 61.7921 95.9999Z" fill="url(#paint75_linear)"/>
<path d="M63.9929 107.053L64.2322 107.196L70.6436 103.464C70.7872 103.368 71.074 103.368 71.218 103.464L79.16 108.057L79.352 107.962C79.495 107.866 79.543 107.722 79.4 107.627L71.218 102.89C71.074 102.794 70.835 102.842 70.6436 102.89L64.0408 106.718C63.8972 106.813 63.8494 106.957 63.9929 107.053Z" fill="url(#paint76_linear)"/>
<path d="M72.2219 111.789L64.3755 107.244C64.2319 107.148 64.1841 107.1 64.1841 107.053L65.8109 106.096C65.8587 106.096 66.0023 106.096 66.1458 106.191L73.9929 110.737C74.1359 110.832 74.1839 110.88 74.1839 110.928L72.5569 111.885C72.5099 111.885 72.3659 111.837 72.2219 111.789Z" fill="url(#paint77_linear)"/>
<path d="M74.2799 91.0721L73.4659 90.5931C73.2749 90.4501 73.2749 90.2581 73.5139 90.1151L73.8489 89.9231C74.0879 89.7801 74.4709 89.7801 74.6629 89.8761L75.4759 90.3541C75.6669 90.4981 75.6669 90.6891 75.4279 90.8331L75.0929 91.0241C74.8539 91.1681 74.4709 91.1681 74.2799 91.0721Z" fill="#7146CE"/>
<path d="M76.337 92.268L75.524 91.79C75.333 91.646 75.333 91.455 75.572 91.311L75.907 91.12C76.146 90.976 76.529 90.976 76.72 91.072L77.533 91.55C77.725 91.694 77.725 91.885 77.486 92.029L77.151 92.22C76.911 92.364 76.529 92.364 76.337 92.268Z" fill="#7146CE"/>
<path d="M78.3951 93.4641L77.5811 92.9861C77.3901 92.8421 77.3901 92.6511 77.6291 92.5071L77.9641 92.3161C78.2031 92.1721 78.5861 92.1721 78.7781 92.2681L79.5911 92.7461C79.7821 92.8901 79.7821 93.0811 79.5431 93.2251L79.2081 93.4161C78.9691 93.5601 78.6341 93.5601 78.3951 93.4641Z" fill="#7146CE"/>
<path d="M80.452 94.6598L79.639 94.1819C79.447 94.0379 79.447 93.8469 79.687 93.7029L80.022 93.5119C80.261 93.3679 80.644 93.3679 80.835 93.4639L81.648 93.9429C81.84 94.0859 81.84 94.2779 81.6 94.4209L81.266 94.6119C81.026 94.7559 80.691 94.7558 80.452 94.6598Z" fill="#7146CE"/>
<path d="M82.557 95.8091L81.744 95.3301C81.553 95.1871 81.553 94.9951 81.792 94.8521L82.127 94.66C82.366 94.517 82.749 94.5171 82.94 94.6121L83.754 95.0911C83.945 95.2341 83.945 95.426 83.706 95.569L83.371 95.7611C83.132 95.9521 82.749 95.9521 82.557 95.8091Z" fill="#7146CE"/>
<path d="M84.6151 97.0049L83.8011 96.5259C83.6101 96.3829 83.6101 96.1909 83.8491 96.0479L84.1841 95.8559C84.4231 95.7129 84.8061 95.7129 84.9981 95.8089L85.8111 96.2869C86.0021 96.4309 86.0021 96.6219 85.7631 96.7659L85.4281 96.9569C85.1891 97.1479 84.8061 97.1479 84.6151 97.0049Z" fill="#7146CE"/>
<path d="M86.672 98.2009L85.859 97.7229C85.667 97.5789 85.667 97.3879 85.907 97.2439L86.242 97.0529C86.481 96.9089 86.864 96.9089 87.055 97.0049L87.868 97.4829C88.06 97.6269 88.06 97.8179 87.821 97.9619L87.486 98.1529C87.246 98.2969 86.864 98.3449 86.672 98.2009Z" fill="#7146CE"/>
<path d="M88.7301 99.3969L87.9161 98.9189C87.7251 98.7749 87.7251 98.5839 87.9641 98.4399L88.2991 98.249C88.5381 98.105 88.9211 98.1049 89.1121 98.2009L89.9261 98.679C90.1171 98.823 90.1171 99.014 89.8781 99.158L89.5431 99.3489C89.3041 99.4929 88.9691 99.5409 88.7301 99.3969Z" fill="#7146CE"/>
<path d="M90.7871 100.593L89.9741 100.115C89.7821 99.971 89.7821 99.78 90.0211 99.636L90.3561 99.445C90.5961 99.301 90.9781 99.301 91.1701 99.397L91.9831 99.876C92.1751 100.019 92.1751 100.211 91.9351 100.354L91.6001 100.545C91.3611 100.689 91.0261 100.689 90.7871 100.593Z" fill="#7146CE"/>
<path d="M92.8919 101.789L92.0789 101.311C91.8869 101.167 91.8869 100.976 92.1269 100.833L92.4619 100.641C92.7009 100.498 93.0839 100.498 93.2749 100.593L94.0879 101.072C94.2799 101.215 94.2799 101.407 94.0409 101.55L93.7059 101.742C93.4659 101.885 93.0839 101.885 92.8919 101.789Z" fill="#7146CE"/>
<path d="M94.9979 102.986L94.1839 102.507C93.9929 102.364 93.9929 102.172 94.2319 102.029L94.5669 101.837C94.8059 101.694 95.1889 101.694 95.3799 101.789L96.1939 102.268C96.3849 102.411 96.3849 102.603 96.1459 102.746L95.8109 102.938C95.5719 103.129 95.1889 103.129 94.9979 102.986Z" fill="#7146CE"/>
<path d="M97.0551 104.182L96.2421 103.703C96.0501 103.56 96.0501 103.368 96.2891 103.225L96.6241 103.033C96.8641 102.89 97.2461 102.89 97.4381 102.986L98.2511 103.464C98.4431 103.608 98.4431 103.799 98.2031 103.943L97.8681 104.134C97.6291 104.325 97.2941 104.325 97.0551 104.182Z" fill="#7146CE"/>
<path d="M99.1119 105.378L98.2989 104.9C98.1079 104.756 98.1079 104.565 98.3469 104.421L98.6819 104.23C98.9209 104.086 99.3039 104.086 99.4949 104.182L100.308 104.66C100.5 104.804 100.5 104.995 100.261 105.139L99.9259 105.33C99.6859 105.474 99.3519 105.522 99.1119 105.378Z" fill="#7146CE"/>
<path d="M101.218 106.574L100.404 106.096C100.213 105.952 100.213 105.761 100.452 105.617L100.787 105.426C101.026 105.282 101.409 105.282 101.6 105.378L102.414 105.856C102.605 106 102.605 106.191 102.366 106.335L102.031 106.526C101.792 106.67 101.409 106.718 101.218 106.574Z" fill="#7146CE"/>
<path d="M71.888 92.4591L71.026 91.9812C70.8349 91.8372 70.8349 91.6461 71.074 91.5021L72.079 90.9281C72.318 90.7851 72.701 90.7851 72.892 90.8801L73.754 91.3591C73.945 91.5021 73.945 91.6941 73.706 91.8371L72.701 92.4121C72.462 92.5551 72.127 92.6031 71.888 92.4591Z" fill="#7146CE"/>
<path d="M73.9451 93.656L73.0841 93.177C72.8921 93.034 72.8921 92.842 73.1321 92.699L74.1361 92.124C74.3761 91.981 74.7581 91.981 74.9501 92.077L75.8111 92.555C76.0021 92.699 76.0021 92.89 75.7631 93.034L74.7581 93.608C74.5191 93.751 74.1841 93.799 73.9451 93.656Z" fill="#7146CE"/>
<path d="M76.05 94.852L75.189 94.3729C74.998 94.2299 74.998 94.038 75.237 93.895L76.242 93.3209C76.481 93.1769 76.864 93.177 77.055 93.273L77.916 93.7509C78.108 93.8949 78.108 94.0859 77.868 94.2299L76.864 94.804C76.624 94.947 76.242 94.995 76.05 94.852Z" fill="#7146CE"/>
<path d="M78.1079 96.048L77.2459 95.569C77.0549 95.426 77.0549 95.234 77.2939 95.091L78.2989 94.517C78.5379 94.373 78.9209 94.373 79.1119 94.469L79.9739 94.947C80.1649 95.091 80.1649 95.282 79.9259 95.426L78.9209 96C78.6819 96.144 78.3469 96.191 78.1079 96.048Z" fill="#7146CE"/>
<path d="M80.165 97.2441L79.304 96.766C79.112 96.622 79.112 96.431 79.352 96.287L80.356 95.7131C80.596 95.5691 80.978 95.569 81.17 95.665L82.031 96.144C82.222 96.287 82.222 96.4781 81.983 96.6221L80.978 97.196C80.739 97.34 80.404 97.3401 80.165 97.2441Z" fill="#7146CE"/>
<path d="M82.27 98.4401L81.409 97.962C81.218 97.818 81.218 97.627 81.457 97.483L82.462 96.9091C82.701 96.7661 83.084 96.7661 83.275 96.8611L84.136 97.3401C84.328 97.4831 84.328 97.6751 84.089 97.8181L83.084 98.3921C82.844 98.5361 82.462 98.5841 82.27 98.4401Z" fill="#7146CE"/>
<path d="M84.3279 99.6359L83.4659 99.1579C83.2749 99.0139 83.2749 98.8229 83.5139 98.6789L84.5189 98.1049C84.7579 97.9619 85.1409 97.9619 85.3319 98.0569L86.1939 98.5359C86.3849 98.6789 86.3849 98.8709 86.1459 99.0139L85.1409 99.5889C84.9019 99.7319 84.5669 99.7319 84.3279 99.6359Z" fill="#7146CE"/>
<path d="M86.4331 100.833L85.5721 100.354C85.3801 100.211 85.3801 100.019 85.6201 99.876L86.6241 99.301C86.8641 99.158 87.2461 99.158 87.4381 99.254L88.2991 99.732C88.4901 99.876 88.4901 100.067 88.2511 100.211L87.2461 100.785C87.0071 100.928 86.6241 100.976 86.4331 100.833Z" fill="#7146CE"/>
<path d="M88.49 102.029L87.629 101.55C87.438 101.407 87.438 101.215 87.677 101.072L88.682 100.498C88.921 100.354 89.304 100.354 89.495 100.45L90.356 100.928C90.548 101.072 90.548 101.263 90.309 101.407L89.304 101.981C89.065 102.124 88.682 102.124 88.49 102.029Z" fill="#7146CE"/>
<path d="M90.5479 103.225L89.6869 102.746C89.4949 102.603 89.4949 102.411 89.7339 102.268L90.7389 101.694C90.9779 101.55 91.3609 101.55 91.5529 101.646L92.4139 102.124C92.6049 102.268 92.6049 102.459 92.3659 102.603L91.3609 103.177C91.1219 103.321 90.7869 103.321 90.5479 103.225Z" fill="#7146CE"/>
<path d="M92.6531 104.421L91.7921 103.943C91.6001 103.799 91.6001 103.608 91.8401 103.464L92.8441 102.89C93.0841 102.746 93.4661 102.746 93.6581 102.842L94.5191 103.321C94.7101 103.464 94.7101 103.655 94.4711 103.799L93.4661 104.373C93.2271 104.517 92.8441 104.517 92.6531 104.421Z" fill="#7146CE"/>
<path d="M94.7099 105.617L93.8489 105.139C93.6579 104.995 93.6579 104.804 93.8969 104.66L94.9019 104.086C95.1409 103.943 95.5239 103.943 95.7149 104.038L96.5759 104.517C96.7679 104.66 96.7679 104.852 96.5289 104.995L95.5239 105.569C95.2849 105.713 94.9019 105.713 94.7099 105.617Z" fill="#7146CE"/>
<path d="M96.7679 106.813L95.9069 106.335C95.7149 106.191 95.7149 106 95.9539 105.856L96.9589 105.282C97.1979 105.139 97.5809 105.139 97.7729 105.234L98.6339 105.713C98.8249 105.856 98.8249 106.048 98.5859 106.191L97.5809 106.766C97.3419 106.909 97.0069 106.909 96.7679 106.813Z" fill="#7146CE"/>
<path d="M98.873 108.01L98.012 107.531C97.82 107.388 97.82 107.196 98.06 107.053L99.064 106.478C99.304 106.335 99.687 106.335 99.878 106.431L100.739 106.909C100.931 107.053 100.931 107.244 100.691 107.388L99.686 107.962C99.447 108.105 99.064 108.105 98.873 108.01Z" fill="#7146CE"/>
<path d="M69.4951 93.895L68.6339 93.416C68.4425 93.273 68.4425 93.0809 68.6817 92.9379L69.6865 92.3639C69.9257 92.2199 70.3085 92.2199 70.4999 92.3159L71.3609 92.7939C71.5529 92.9379 71.5529 93.1289 71.3129 93.2729L70.3085 93.8469C70.0693 93.9899 69.7344 93.99 69.4951 93.895Z" fill="#7146CE"/>
<path d="M71.6011 95.091L70.7394 94.612C70.548 94.469 70.548 94.2779 70.7872 94.1339L71.7921 93.56C72.0311 93.416 72.4141 93.416 72.6051 93.512L73.4671 93.99C73.6581 94.134 73.6581 94.325 73.4191 94.469L72.4141 95.043C72.1751 95.187 71.7921 95.187 71.6011 95.091Z" fill="#7146CE"/>
<path d="M73.6579 96.287L72.7969 95.809C72.6049 95.665 72.605 95.474 72.845 95.33L73.8489 94.756C74.0889 94.612 74.471 94.612 74.663 94.708L75.524 95.187C75.715 95.33 75.7149 95.522 75.4759 95.665L74.471 96.239C74.232 96.383 73.8969 96.383 73.6579 96.287Z" fill="#7146CE"/>
<path d="M75.7151 97.483L74.8541 97.0051C74.6631 96.8611 74.6631 96.67 74.9021 96.526L75.9071 95.9521C76.1461 95.8091 76.5291 95.809 76.7201 95.904L77.5811 96.383C77.7731 96.526 77.7731 96.7181 77.5331 96.8611L76.5291 97.435C76.2891 97.579 75.9551 97.579 75.7151 97.483Z" fill="#7146CE"/>
<path d="M77.821 98.632L76.959 98.153C76.768 98.01 76.768 97.818 77.007 97.675L78.012 97.101C78.251 96.957 78.634 96.957 78.825 97.053L79.687 97.531C79.878 97.675 79.878 97.866 79.639 98.01L78.634 98.584C78.395 98.775 78.012 98.775 77.821 98.632Z" fill="#7146CE"/>
<path d="M79.8779 99.876L79.0169 99.397C78.8249 99.254 78.8249 99.062 79.0649 98.919L80.0689 98.344C80.3089 98.201 80.6909 98.201 80.8829 98.297L81.7439 98.775C81.9349 98.919 81.9349 99.11 81.6959 99.254L80.6909 99.828C80.4519 99.971 80.1169 99.971 79.8779 99.876Z" fill="#7146CE"/>
<path d="M81.935 101.024L81.074 100.545C80.883 100.402 80.883 100.211 81.122 100.067L82.127 99.4931C82.366 99.3491 82.749 99.3491 82.94 99.4451L83.801 99.9231C83.993 100.067 83.993 100.258 83.754 100.402L82.749 100.976C82.51 101.167 82.175 101.167 81.935 101.024Z" fill="#7146CE"/>
<path d="M84.041 102.268L83.179 101.789C82.988 101.646 82.988 101.455 83.227 101.311L84.232 100.737C84.471 100.593 84.854 100.593 85.045 100.689L85.907 101.167C86.098 101.311 86.098 101.502 85.859 101.646L84.854 102.22C84.615 102.364 84.232 102.364 84.041 102.268Z" fill="#7146CE"/>
<path d="M86.0979 103.416L85.2369 102.938C85.0449 102.794 85.0449 102.603 85.2849 102.459L86.2889 101.885C86.5289 101.742 86.9109 101.742 87.1029 101.837L87.9639 102.316C88.1549 102.459 88.1549 102.651 87.9159 102.794L86.9109 103.368C86.6719 103.56 86.3369 103.56 86.0979 103.416Z" fill="#7146CE"/>
<path d="M88.155 104.612L87.294 104.134C87.103 103.99 87.103 103.799 87.342 103.655L88.347 103.081C88.586 102.938 88.969 102.938 89.16 103.033L90.021 103.512C90.213 103.655 90.213 103.847 89.974 103.99L88.969 104.565C88.73 104.756 88.395 104.756 88.155 104.612Z" fill="#7146CE"/>
<path d="M90.261 105.809L89.399 105.33C89.208 105.187 89.208 104.995 89.447 104.852L90.452 104.278C90.691 104.134 91.074 104.134 91.266 104.23L92.127 104.708C92.318 104.852 92.318 105.043 92.079 105.187L91.074 105.761C90.835 105.952 90.452 105.952 90.261 105.809Z" fill="#7146CE"/>
<path d="M92.3181 107.005L91.4571 106.526C91.2651 106.383 91.2651 106.191 91.5051 106.048L92.5091 105.474C92.7491 105.33 93.1321 105.33 93.3231 105.426L94.1841 105.904C94.3761 106.048 94.3761 106.239 94.1361 106.383L93.1321 106.957C92.8921 107.148 92.5571 107.148 92.3181 107.005Z" fill="#7146CE"/>
<path d="M94.376 108.201L93.514 107.722C93.323 107.579 93.323 107.388 93.562 107.244L94.567 106.67C94.806 106.526 95.189 106.526 95.38 106.622L96.242 107.1C96.433 107.244 96.433 107.435 96.194 107.579L95.189 108.153C94.95 108.297 94.615 108.344 94.376 108.201Z" fill="#7146CE"/>
<path d="M96.4811 109.397L95.6201 108.919C95.4281 108.775 95.4281 108.584 95.6671 108.44L96.672 107.866C96.911 107.722 97.2941 107.722 97.4861 107.818L98.3471 108.297C98.5381 108.44 98.5381 108.632 98.2991 108.775L97.294 109.349C97.055 109.541 96.6721 109.541 96.4811 109.397Z" fill="#7146CE"/>
<path d="M69.0645 96.4779L66.1459 94.8039C65.9545 94.6599 65.9545 94.4689 66.1937 94.3249L67.1985 93.7509C67.4378 93.6079 67.8205 93.6079 68.0119 93.7029L70.9306 95.3779C71.1219 95.5219 71.1219 95.7129 70.8827 95.8559L69.8779 96.4309C69.6387 96.5739 69.2559 96.5739 69.0645 96.4779Z" fill="#7146CE"/>
<path d="M71.17 97.6749L70.3087 97.1959C70.1173 97.0529 70.1173 96.861 70.3565 96.718L71.361 96.1439C71.601 95.9999 71.983 96 72.175 96.096L73.036 96.5739C73.227 96.7179 73.227 96.9089 72.988 97.0529L71.983 97.627C71.744 97.77 71.361 97.8179 71.17 97.6749Z" fill="#7146CE"/>
<path d="M73.227 98.871L72.366 98.392C72.175 98.249 72.175 98.057 72.414 97.914L73.419 97.34C73.658 97.196 74.041 97.196 74.232 97.292L75.093 97.77C75.285 97.914 75.285 98.105 75.045 98.249L74.041 98.823C73.801 98.967 73.467 99.014 73.227 98.871Z" fill="#7146CE"/>
<path d="M75.285 100.067L74.424 99.589C74.232 99.445 74.232 99.254 74.471 99.11L75.476 98.5361C75.715 98.3921 76.098 98.392 76.29 98.488L77.151 98.967C77.342 99.11 77.342 99.3011 77.103 99.4451L76.098 100.019C75.859 100.163 75.524 100.163 75.285 100.067Z" fill="#7146CE"/>
<path d="M77.3901 101.263L76.5291 100.785C76.3371 100.641 76.3371 100.45 76.5771 100.306L77.5811 99.7321C77.8211 99.5891 78.2031 99.5891 78.3951 99.6841L79.2561 100.163C79.4471 100.306 79.4471 100.498 79.2081 100.641L78.2031 101.215C77.9641 101.359 77.5811 101.407 77.3901 101.263Z" fill="#7146CE"/>
<path d="M79.447 102.459L78.586 101.981C78.395 101.837 78.395 101.646 78.634 101.502L79.639 100.928C79.878 100.785 80.261 100.785 80.452 100.88L81.313 101.359C81.505 101.502 81.505 101.694 81.266 101.837L80.261 102.411C80.022 102.555 79.687 102.555 79.447 102.459Z" fill="#7146CE"/>
<path d="M81.553 103.655L80.691 103.177C80.5 103.033 80.5 102.842 80.739 102.699L81.744 102.124C81.983 101.981 82.366 101.981 82.557 102.077L83.419 102.555C83.61 102.699 83.61 102.89 83.371 103.033L82.366 103.608C82.127 103.751 81.744 103.799 81.553 103.655Z" fill="#7146CE"/>
<path d="M83.6101 104.852L82.7491 104.373C82.5571 104.23 82.5571 104.038 82.7971 103.895L83.8011 103.321C84.0411 103.177 84.4231 103.177 84.6151 103.273L85.4761 103.751C85.6671 103.895 85.6671 104.086 85.4281 104.23L84.4231 104.804C84.1841 104.947 83.8011 104.947 83.6101 104.852Z" fill="#7146CE"/>
<path d="M85.667 106.048L84.806 105.569C84.615 105.426 84.615 105.234 84.854 105.091L85.859 104.517C86.098 104.373 86.481 104.373 86.672 104.469L87.533 104.947C87.725 105.091 87.725 105.282 87.486 105.426L86.481 106C86.242 106.144 85.907 106.144 85.667 106.048Z" fill="#7146CE"/>
<path d="M87.7729 107.244L86.9109 106.766C86.7199 106.622 86.7199 106.431 86.9589 106.287L87.9639 105.713C88.2029 105.569 88.5859 105.569 88.7769 105.665L89.6389 106.144C89.8299 106.287 89.8299 106.478 89.5909 106.622L88.5859 107.196C88.3469 107.34 87.9639 107.34 87.7729 107.244Z" fill="#7146CE"/>
<path d="M89.8301 108.44L88.9691 107.962C88.7771 107.818 88.7771 107.627 89.0171 107.483L90.0221 106.909C90.2611 106.766 90.6431 106.766 90.8351 106.861L91.6961 107.34C91.8881 107.483 91.8881 107.675 91.6481 107.818L90.6441 108.392C90.4041 108.536 90.0221 108.536 89.8301 108.44Z" fill="#7146CE"/>
<path d="M91.8879 109.636L91.0259 109.158C90.8349 109.014 90.8349 108.823 91.0739 108.679L92.0789 108.105C92.3179 107.962 92.7009 107.962 92.8919 108.057L93.7539 108.536C93.9449 108.679 93.9449 108.871 93.7059 109.014L92.7009 109.588C92.4619 109.732 92.1269 109.732 91.8879 109.636Z" fill="#7146CE"/>
<path d="M91.6001 112.22L90.7391 111.742C90.5481 111.598 90.5481 111.407 90.7871 111.263L94.1841 109.301C94.4231 109.158 94.8061 109.158 94.9981 109.254L95.8591 109.732C96.0501 109.876 96.0501 110.067 95.8111 110.21L92.4141 112.172C92.1271 112.316 91.7921 112.364 91.6001 112.22Z" fill="#7146CE"/>
<path d="M64.615 96.6701L63.7538 96.1911C63.5624 96.0481 63.5624 95.8561 63.8016 95.7131L64.8064 95.1391C65.0456 94.9951 65.4284 94.9951 65.6198 95.0911L66.481 95.5691C66.6724 95.7131 66.6724 95.9041 66.4332 96.0481L65.4284 96.6221C65.1892 96.8131 64.8064 96.8131 64.615 96.6701Z" fill="#7146CE"/>
<path d="M66.6722 97.8661L65.8109 97.3881C65.6195 97.2441 65.6195 97.0531 65.8588 96.9091L66.8636 96.3351C67.1028 96.1911 67.4856 96.1911 67.6769 96.2871L68.5382 96.7661C68.7296 96.9091 68.7296 97.1001 68.4903 97.2441L67.4856 97.8181C67.2463 97.9621 66.8636 98.0101 66.6722 97.8661Z" fill="#7146CE"/>
<path d="M68.7777 99.0619L67.9164 98.5839C67.725 98.4399 67.725 98.2489 67.9643 98.1049L68.969 97.5309C69.2083 97.3879 69.591 97.3879 69.7824 97.4829L70.6437 97.9619C70.8351 98.1049 70.8351 98.2969 70.5958 98.4399L69.5911 99.0139C69.3518 99.2059 68.9691 99.2059 68.7777 99.0619Z" fill="#7146CE"/>
<path d="M70.835 100.258L69.9738 99.78C69.7824 99.636 69.7824 99.445 70.0216 99.301L71.026 98.7269C71.266 98.5839 71.648 98.584 71.84 98.679L72.701 99.158C72.892 99.301 72.892 99.4929 72.653 99.6359L71.648 100.211C71.409 100.354 71.026 100.402 70.835 100.258Z" fill="#7146CE"/>
<path d="M79.1601 105.043L72.0311 100.928C71.8401 100.785 71.8401 100.593 72.0791 100.45L73.0841 99.8761C73.3231 99.7321 73.7061 99.7321 73.8971 99.8281L81.0261 103.943C81.2181 104.086 81.2181 104.277 80.9781 104.421L79.9741 104.995C79.6871 105.139 79.3521 105.187 79.1601 105.043Z" fill="#7146CE"/>
<path d="M81.218 106.239L80.356 105.761C80.165 105.617 80.165 105.426 80.404 105.282L81.409 104.708C81.648 104.565 82.031 104.565 82.222 104.66L83.084 105.139C83.275 105.282 83.275 105.474 83.036 105.617L82.031 106.191C81.792 106.335 81.409 106.383 81.218 106.239Z" fill="#7146CE"/>
<path d="M83.2749 107.435L82.4139 106.957C82.2219 106.813 82.2219 106.622 82.4619 106.478L83.4659 105.904C83.7059 105.761 84.0879 105.761 84.2799 105.856L85.1409 106.335C85.3319 106.478 85.3319 106.67 85.0929 106.813L84.0879 107.388C83.8489 107.531 83.4659 107.579 83.2749 107.435Z" fill="#7146CE"/>
<path d="M85.3801 108.632L84.5191 108.153C84.3281 108.01 84.3281 107.818 84.5671 107.675L85.5721 107.1C85.8111 106.957 86.1941 106.957 86.3851 107.053L87.2461 107.531C87.4381 107.675 87.4381 107.866 87.1991 108.01L86.1941 108.584C85.9071 108.727 85.5721 108.775 85.3801 108.632Z" fill="#7146CE"/>
<path d="M87.4381 109.828L86.5771 109.349C86.3851 109.206 86.3851 109.014 86.6241 108.871L87.6291 108.297C87.8681 108.153 88.2511 108.153 88.4431 108.249L89.3041 108.727C89.4951 108.871 89.4951 109.062 89.2561 109.206L88.2511 109.78C88.0121 109.923 87.6291 109.971 87.4381 109.828Z" fill="#7146CE"/>
<path d="M89.4951 111.024L88.6341 110.545C88.4431 110.402 88.4431 110.21 88.6821 110.067L89.6871 109.493C89.9261 109.349 90.3091 109.349 90.5001 109.445L91.3611 109.923C91.5531 110.067 91.5531 110.258 91.3131 110.402L90.3091 110.976C90.0691 111.12 89.6871 111.12 89.4951 111.024Z" fill="#7146CE"/>
<path d="M74.232 90.737L73.419 90.258C73.227 90.115 73.227 89.9231 73.467 89.7801L73.801 89.589C74.041 89.445 74.423 89.445 74.615 89.541L75.428 90.019C75.62 90.163 75.62 90.354 75.38 90.498L75.045 90.689C74.806 90.833 74.423 90.88 74.232 90.737Z" fill="#EFE1EE"/>
<path d="M76.2889 91.9331L75.4759 91.4551C75.2849 91.3111 75.2849 91.1201 75.5239 90.9761L75.8589 90.7851C76.0979 90.6411 76.4809 90.6411 76.6719 90.7371L77.4859 91.2151C77.6769 91.3591 77.6769 91.5501 77.4379 91.6941L77.1029 91.8851C76.8639 92.0291 76.5289 92.0291 76.2889 91.9331Z" fill="#EFE1EE"/>
<path d="M78.347 93.1291L77.533 92.6511C77.342 92.5071 77.342 92.3161 77.581 92.1721L77.916 91.9811C78.155 91.8371 78.538 91.8371 78.73 91.9331L79.543 92.4121C79.734 92.5551 79.734 92.7461 79.495 92.8901L79.16 93.0811C78.921 93.2251 78.586 93.2251 78.347 93.1291Z" fill="#EFE1EE"/>
<path d="M80.452 94.3251L79.639 93.8471C79.447 93.7031 79.447 93.5121 79.687 93.3681L80.022 93.1771C80.261 93.0341 80.644 93.0342 80.835 93.1292L81.648 93.6081C81.84 93.7511 81.84 93.9431 81.6 94.0861L81.266 94.2782C81.026 94.4212 80.644 94.4211 80.452 94.3251Z" fill="#EFE1EE"/>
<path d="M82.5101 95.5219L81.6961 95.043C81.5051 94.9 81.5051 94.708 81.7441 94.565L82.0791 94.3729C82.3181 94.2299 82.7011 94.23 82.8921 94.325L83.7061 94.804C83.8971 94.947 83.8971 95.1389 83.6581 95.2819L83.3231 95.474C83.0841 95.617 82.7011 95.6169 82.5101 95.5219Z" fill="#EFE1EE"/>
<path d="M84.5671 96.6701L83.7541 96.1911C83.5621 96.0481 83.5621 95.8562 83.8011 95.7132L84.1361 95.5221C84.3761 95.3781 84.7581 95.3781 84.9501 95.4741L85.7631 95.9522C85.9551 96.0962 85.9551 96.2872 85.7151 96.4312L85.3801 96.6222C85.1411 96.8132 84.7581 96.8131 84.5671 96.6701Z" fill="#EFE1EE"/>
<path d="M86.6241 97.866L85.8111 97.3879C85.6201 97.2439 85.6201 97.0529 85.8591 96.9089L86.1941 96.718C86.4331 96.574 86.8161 96.5739 87.0071 96.6699L87.8211 97.1479C88.0121 97.2919 88.0121 97.483 87.7731 97.627L87.4381 97.8179C87.1991 98.0099 86.8641 98.01 86.6241 97.866Z" fill="#EFE1EE"/>
<path d="M88.682 99.062L87.868 98.5839C87.677 98.4399 87.677 98.2489 87.916 98.1049L88.251 97.914C88.49 97.77 88.873 97.77 89.065 97.866L89.878 98.3449C90.069 98.4879 90.069 98.679 89.83 98.823L89.495 99.0139C89.256 99.1579 88.921 99.206 88.682 99.062Z" fill="#EFE1EE"/>
<path d="M90.7871 100.258L89.9741 99.78C89.7821 99.636 89.7821 99.445 90.0211 99.301L90.3561 99.11C90.5961 98.967 90.9781 98.967 91.1701 99.062L91.9831 99.541C92.1751 99.684 92.1751 99.876 91.9351 100.019L91.6001 100.211C91.3611 100.354 90.9781 100.402 90.7871 100.258Z" fill="#EFE1EE"/>
<path d="M92.8441 101.455L92.0311 100.976C91.8401 100.833 91.8401 100.641 92.0791 100.498L92.4141 100.306C92.6531 100.163 93.0361 100.163 93.2271 100.258L94.0411 100.737C94.2321 100.88 94.2321 101.072 93.9931 101.215L93.6581 101.407C93.4191 101.55 93.0361 101.55 92.8441 101.455Z" fill="#EFE1EE"/>
<path d="M94.95 102.699L94.136 102.22C93.945 102.077 93.945 101.885 94.184 101.742L94.519 101.55C94.758 101.407 95.141 101.407 95.332 101.502L96.146 101.981C96.337 102.124 96.337 102.316 96.098 102.459L95.763 102.651C95.524 102.794 95.189 102.794 94.95 102.699Z" fill="#EFE1EE"/>
<path d="M97.0069 103.847L96.1939 103.368C96.0019 103.225 96.0019 103.033 96.2419 102.89L96.5759 102.699C96.8159 102.555 97.1979 102.555 97.3899 102.651L98.2029 103.129C98.3949 103.273 98.3949 103.464 98.1549 103.608L97.8199 103.799C97.5809 103.99 97.2459 103.99 97.0069 103.847Z" fill="#EFE1EE"/>
<path d="M99.1119 105.043L98.2989 104.565C98.1079 104.421 98.1079 104.23 98.3469 104.086L98.6819 103.895C98.9209 103.751 99.3039 103.751 99.4949 103.847L100.308 104.325C100.5 104.469 100.5 104.66 100.261 104.804L99.9259 104.995C99.6859 105.187 99.3039 105.187 99.1119 105.043Z" fill="#EFE1EE"/>
<path d="M101.17 106.239L100.356 105.761C100.165 105.617 100.165 105.426 100.404 105.282L100.739 105.091C100.978 104.947 101.361 104.947 101.553 105.043L102.366 105.522C102.557 105.665 102.557 105.856 102.318 106L101.983 106.191C101.744 106.335 101.361 106.383 101.17 106.239Z" fill="#EFE1EE"/>
<path d="M71.8399 92.1239L70.9784 91.6459C70.787 91.5019 70.787 91.3109 71.0259 91.1669L72.0309 90.5929C72.2699 90.4499 72.6529 90.4499 72.8449 90.5449L73.7059 91.0239C73.8969 91.1669 73.8969 91.3589 73.6579 91.5019L72.6529 92.077C72.4139 92.22 72.0789 92.2679 71.8399 92.1239Z" fill="#EFE1EE"/>
<path d="M73.9451 93.3209L73.0841 92.8419C72.8921 92.6989 72.8921 92.507 73.1321 92.364L74.1361 91.7899C74.3761 91.6459 74.7581 91.646 74.9501 91.742L75.8111 92.2199C76.0021 92.3639 76.0021 92.5549 75.7631 92.6989L74.7581 93.273C74.5191 93.416 74.1361 93.4639 73.9451 93.3209Z" fill="#EFE1EE"/>
<path d="M76.0019 94.517L75.1409 94.038C74.9499 93.895 74.9499 93.703 75.1889 93.56L76.1939 92.986C76.4329 92.842 76.8159 92.842 77.0069 92.938L77.8679 93.416C78.0599 93.56 78.0599 93.751 77.8209 93.895L76.8159 94.469C76.5769 94.612 76.2419 94.66 76.0019 94.517Z" fill="#EFE1EE"/>
<path d="M78.0599 95.7131L77.1989 95.2341C77.0069 95.0911 77.0069 94.9 77.2459 94.756L78.2509 94.1821C78.4899 94.0381 78.8729 94.038 79.0649 94.134L79.9259 94.6121C80.1169 94.7561 80.1169 94.9471 79.8779 95.0911L78.8729 95.665C78.6339 95.809 78.2989 95.8561 78.0599 95.7131Z" fill="#EFE1EE"/>
<path d="M80.165 96.9091L79.304 96.4311C79.112 96.2871 79.112 96.0961 79.352 95.9521L80.356 95.3781C80.596 95.2341 80.978 95.2341 81.17 95.3301L82.031 95.8091C82.222 95.9521 82.222 96.1441 81.983 96.2871L80.978 96.8611C80.739 97.0051 80.356 97.0531 80.165 96.9091Z" fill="#EFE1EE"/>
<path d="M82.2219 98.1051L81.3609 97.6271C81.1699 97.4831 81.1699 97.2921 81.4089 97.1481L82.4139 96.5741C82.6529 96.4311 83.0359 96.4311 83.2269 96.5261L84.0879 97.0051C84.2799 97.1481 84.2799 97.3401 84.0409 97.4831L83.0359 98.0571C82.7969 98.2011 82.4619 98.2491 82.2219 98.1051Z" fill="#EFE1EE"/>
<path d="M84.2799 99.301L83.4189 98.823C83.2269 98.679 83.2269 98.488 83.4659 98.345L84.4709 97.77C84.7109 97.627 85.0929 97.627 85.2849 97.723L86.1459 98.201C86.3369 98.345 86.3369 98.536 86.0979 98.679L85.0929 99.254C84.8539 99.397 84.5189 99.445 84.2799 99.301Z" fill="#EFE1EE"/>
<path d="M86.385 100.498L85.524 100.019C85.333 99.8759 85.333 99.684 85.572 99.541L86.577 98.9669C86.816 98.8229 87.199 98.823 87.39 98.919L88.251 99.3969C88.443 99.5409 88.443 99.7319 88.203 99.8759L87.199 100.45C86.959 100.593 86.577 100.641 86.385 100.498Z" fill="#EFE1EE"/>
<path d="M88.4431 101.694L87.5811 101.215C87.3901 101.072 87.3901 100.88 87.6291 100.737L88.6341 100.163C88.8731 100.019 89.2561 100.019 89.4471 100.115L90.3091 100.593C90.5001 100.737 90.5001 100.928 90.2611 101.072L89.2561 101.646C89.0171 101.789 88.6821 101.837 88.4431 101.694Z" fill="#EFE1EE"/>
<path d="M90.5 102.89L89.639 102.411C89.447 102.268 89.447 102.077 89.687 101.933L90.691 101.359C90.931 101.215 91.313 101.215 91.505 101.311L92.366 101.789C92.557 101.933 92.557 102.124 92.318 102.268L91.313 102.842C91.074 102.986 90.739 102.986 90.5 102.89Z" fill="#EFE1EE"/>
<path d="M92.605 104.086L91.744 103.608C91.553 103.464 91.553 103.273 91.792 103.129L92.7969 102.555C93.0359 102.411 93.419 102.411 93.61 102.507L94.471 102.986C94.663 103.129 94.6629 103.321 94.4229 103.464L93.419 104.038C93.179 104.182 92.797 104.23 92.605 104.086Z" fill="#EFE1EE"/>
<path d="M94.6631 105.282L93.8011 104.804C93.6101 104.66 93.6101 104.469 93.8491 104.325L94.8541 103.751C95.0931 103.608 95.4761 103.608 95.6671 103.703L96.5291 104.182C96.7201 104.325 96.7201 104.517 96.4811 104.66L95.4761 105.234C95.2371 105.378 94.9021 105.378 94.6631 105.282Z" fill="#EFE1EE"/>
<path d="M96.72 106.478L95.859 106C95.667 105.856 95.667 105.665 95.907 105.522L96.911 104.947C97.151 104.804 97.533 104.804 97.725 104.9L98.586 105.378C98.777 105.522 98.777 105.713 98.538 105.856L97.533 106.431C97.294 106.574 96.959 106.574 96.72 106.478Z" fill="#EFE1EE"/>
<path d="M98.8249 107.675L97.9639 107.196C97.7729 107.053 97.7729 106.861 98.0119 106.718L99.0169 106.144C99.2559 106 99.6389 106 99.8299 106.096L100.691 106.574C100.883 106.718 100.883 106.909 100.643 107.053L99.6389 107.627C99.3989 107.77 99.0169 107.77 98.8249 107.675Z" fill="#EFE1EE"/>
<path d="M69.4951 93.56L68.6339 93.081C68.4425 92.938 68.4425 92.746 68.6817 92.603L69.6865 92.029C69.9257 91.885 70.3085 91.885 70.4999 91.981L71.3609 92.4589C71.5529 92.6029 71.5529 92.794 71.3129 92.938L70.3085 93.512C70.0693 93.656 69.6865 93.656 69.4951 93.56Z" fill="#EFE1EE"/>
<path d="M71.5529 94.756L70.6913 94.278C70.4999 94.134 70.4999 93.943 70.7391 93.799L71.7439 93.225C71.9829 93.081 72.3659 93.081 72.5569 93.177L73.4189 93.656C73.6099 93.799 73.6099 93.99 73.3709 94.134L72.3659 94.708C72.1269 94.852 71.7439 94.852 71.5529 94.756Z" fill="#EFE1EE"/>
<path d="M73.6101 95.9521L72.7491 95.474C72.5571 95.33 72.5571 95.139 72.7971 94.995L73.8011 94.4211C74.0411 94.2781 74.4231 94.278 74.6151 94.373L75.4761 94.852C75.6671 94.995 75.6671 95.1871 75.4281 95.3301L74.4231 95.904C74.1841 96.048 73.8491 96.0481 73.6101 95.9521Z" fill="#EFE1EE"/>
<path d="M75.7151 97.1481L74.8541 96.6701C74.6631 96.5261 74.6631 96.3351 74.9021 96.1911L75.9071 95.6171C76.1461 95.4741 76.5291 95.4741 76.7201 95.5691L77.5811 96.0481C77.7731 96.1911 77.7731 96.3831 77.5331 96.5261L76.5291 97.1011C76.2891 97.2441 75.9071 97.2441 75.7151 97.1481Z" fill="#EFE1EE"/>
<path d="M77.773 98.345L76.912 97.866C76.72 97.722 76.72 97.531 76.959 97.388L77.964 96.813C78.203 96.67 78.586 96.67 78.778 96.766L79.639 97.244C79.83 97.388 79.83 97.579 79.591 97.723L78.586 98.297C78.347 98.44 77.964 98.44 77.773 98.345Z" fill="#EFE1EE"/>
<path d="M79.8301 99.541L78.9691 99.0619C78.7771 98.9189 78.7771 98.7269 79.0171 98.5839L80.0221 98.0099C80.2611 97.8659 80.6431 97.8659 80.8351 97.9619L81.6961 98.4399C81.8881 98.5839 81.8881 98.7749 81.6481 98.9189L80.6441 99.4929C80.4041 99.6359 80.0691 99.636 79.8301 99.541Z" fill="#EFE1EE"/>
<path d="M81.935 100.737L81.074 100.258C80.883 100.115 80.883 99.923 81.122 99.78L82.127 99.206C82.366 99.062 82.749 99.062 82.94 99.158L83.801 99.6359C83.993 99.7799 83.993 99.971 83.754 100.115L82.749 100.689C82.51 100.833 82.127 100.833 81.935 100.737Z" fill="#EFE1EE"/>
<path d="M83.993 101.933L83.132 101.455C82.94 101.311 82.94 101.12 83.179 100.976L84.184 100.402C84.423 100.258 84.806 100.258 84.998 100.354L85.859 100.833C86.05 100.976 86.05 101.167 85.811 101.311L84.806 101.885C84.567 102.029 84.232 102.029 83.993 101.933Z" fill="#EFE1EE"/>
<path d="M86.05 103.129L85.189 102.651C84.998 102.507 84.998 102.316 85.237 102.172L86.242 101.598C86.481 101.455 86.864 101.455 87.055 101.55L87.916 102.029C88.108 102.172 88.108 102.364 87.868 102.507L86.864 103.081C86.624 103.225 86.289 103.225 86.05 103.129Z" fill="#EFE1EE"/>
<path d="M88.155 104.278L87.294 103.799C87.103 103.655 87.103 103.464 87.342 103.321L88.347 102.746C88.586 102.603 88.969 102.603 89.16 102.699L90.021 103.177C90.213 103.321 90.213 103.512 89.974 103.655L88.969 104.23C88.73 104.421 88.347 104.421 88.155 104.278Z" fill="#EFE1EE"/>
<path d="M90.213 105.522L89.352 105.043C89.16 104.9 89.16 104.708 89.399 104.565L90.404 103.99C90.643 103.847 91.026 103.847 91.218 103.943L92.079 104.421C92.27 104.565 92.27 104.756 92.031 104.9L91.026 105.474C90.787 105.617 90.452 105.617 90.213 105.522Z" fill="#EFE1EE"/>
<path d="M92.27 106.67L91.409 106.191C91.218 106.048 91.218 105.856 91.457 105.713L92.462 105.139C92.701 104.995 93.084 104.995 93.275 105.091L94.136 105.569C94.328 105.713 94.328 105.904 94.088 106.048L93.084 106.622C92.844 106.813 92.51 106.813 92.27 106.67Z" fill="#EFE1EE"/>
<path d="M94.376 107.866L93.514 107.388C93.323 107.244 93.323 107.053 93.562 106.909L94.567 106.335C94.806 106.191 95.189 106.191 95.38 106.287L96.242 106.766C96.433 106.909 96.433 107.1 96.194 107.244L95.189 107.818C94.95 108.01 94.567 108.01 94.376 107.866Z" fill="#EFE1EE"/>
<path d="M96.4331 109.062L95.5721 108.584C95.3801 108.44 95.3801 108.249 95.6201 108.105L96.6241 107.531C96.8641 107.388 97.2461 107.388 97.4381 107.483L98.2991 107.962C98.4901 108.105 98.4901 108.297 98.2511 108.44L97.2461 109.014C97.0071 109.206 96.6721 109.206 96.4331 109.062Z" fill="#EFE1EE"/>
<path d="M69.0169 96.1439L66.0982 94.4689C65.9069 94.3249 65.9069 94.1339 66.1461 93.9899L67.1509 93.4159C67.3901 93.2729 67.7729 93.2729 67.9643 93.3679L70.8829 95.043C71.0741 95.187 71.0741 95.3779 70.8351 95.5219L69.8303 96.0959C69.591 96.2389 69.2561 96.2389 69.0169 96.1439Z" fill="#EFE1EE"/>
<path d="M71.1221 97.34L70.2608 96.861C70.0695 96.718 70.0695 96.526 70.3087 96.383L71.3131 95.809C71.5531 95.665 71.9351 95.665 72.1271 95.761L72.9881 96.239C73.1791 96.383 73.1791 96.574 72.9401 96.718L71.9351 97.292C71.6961 97.435 71.3611 97.483 71.1221 97.34Z" fill="#EFE1EE"/>
<path d="M73.227 98.5361L72.366 98.0571C72.175 97.9141 72.175 97.723 72.414 97.579L73.419 97.0051C73.658 96.8611 74.041 96.861 74.232 96.957L75.093 97.4351C75.285 97.5791 75.285 97.7701 75.045 97.9141L74.041 98.488C73.754 98.632 73.419 98.6791 73.227 98.5361Z" fill="#EFE1EE"/>
<path d="M75.2849 99.7321L74.4229 99.2541C74.2319 99.1101 74.2319 98.9191 74.4709 98.7751L75.4759 98.2011C75.7149 98.0571 76.0979 98.0571 76.2889 98.1531L77.1509 98.6321C77.3419 98.7751 77.3419 98.9671 77.1029 99.1101L76.0979 99.6841C75.8589 99.8281 75.4759 99.8761 75.2849 99.7321Z" fill="#EFE1EE"/>
<path d="M77.342 100.928L76.481 100.45C76.289 100.306 76.289 100.115 76.529 99.9709L77.533 99.3969C77.773 99.2539 78.155 99.2539 78.347 99.3489L79.208 99.8279C79.399 99.9709 79.399 100.163 79.16 100.306L78.155 100.88C77.916 101.024 77.581 101.072 77.342 100.928Z" fill="#EFE1EE"/>
<path d="M79.447 102.124L78.586 101.646C78.395 101.502 78.395 101.311 78.634 101.167L79.639 100.593C79.878 100.45 80.261 100.45 80.452 100.545L81.313 101.024C81.505 101.167 81.505 101.359 81.266 101.502L80.261 102.077C80.022 102.22 79.639 102.268 79.447 102.124Z" fill="#EFE1EE"/>
<path d="M81.5051 103.321L80.6431 102.842C80.4521 102.699 80.4521 102.507 80.6911 102.364L81.6961 101.789C81.9351 101.646 82.3181 101.646 82.5101 101.742L83.3711 102.22C83.5621 102.364 83.5621 102.555 83.3231 102.699L82.3181 103.273C82.0791 103.416 81.7441 103.464 81.5051 103.321Z" fill="#EFE1EE"/>
<path d="M83.562 104.517L82.701 104.038C82.51 103.895 82.51 103.703 82.749 103.56L83.754 102.986C83.993 102.842 84.376 102.842 84.567 102.938L85.428 103.416C85.62 103.56 85.62 103.751 85.38 103.895L84.376 104.469C84.136 104.612 83.801 104.66 83.562 104.517Z" fill="#EFE1EE"/>
<path d="M85.667 105.713L84.806 105.234C84.615 105.091 84.615 104.9 84.854 104.756L85.859 104.182C86.098 104.038 86.481 104.038 86.672 104.134L87.533 104.612C87.725 104.756 87.725 104.947 87.486 105.091L86.481 105.665C86.242 105.809 85.859 105.809 85.667 105.713Z" fill="#EFE1EE"/>
<path d="M87.7249 106.909L86.8639 106.431C86.6719 106.287 86.672 106.096 86.911 105.952L87.9159 105.378C88.1549 105.234 88.538 105.234 88.73 105.33L89.591 105.809C89.782 105.952 89.7819 106.144 89.5429 106.287L88.5379 106.861C88.2989 107.005 87.9639 107.053 87.7249 106.909Z" fill="#EFE1EE"/>
<path d="M89.782 108.105L88.921 107.627C88.73 107.483 88.73 107.292 88.969 107.148L89.974 106.574C90.213 106.431 90.596 106.431 90.787 106.526L91.648 107.005C91.84 107.148 91.84 107.34 91.6 107.483L90.596 108.057C90.356 108.201 90.021 108.201 89.782 108.105Z" fill="#EFE1EE"/>
<path d="M91.8869 109.301L91.0259 108.823C90.8349 108.679 90.8349 108.488 91.0739 108.344L92.0789 107.77C92.3179 107.627 92.7009 107.627 92.8919 107.722L93.7539 108.201C93.9449 108.344 93.9449 108.536 93.7059 108.679L92.7009 109.254C92.4619 109.397 92.0789 109.397 91.8869 109.301Z" fill="#EFE1EE"/>
<path d="M91.553 111.885L90.691 111.407C90.5 111.263 90.5 111.072 90.739 110.928L94.136 108.966C94.376 108.823 94.758 108.823 94.95 108.919L95.811 109.397C96.002 109.541 96.002 109.732 95.763 109.876L92.366 111.837C92.127 111.981 91.744 112.029 91.553 111.885Z" fill="#EFE1EE"/>
<path d="M64.5669 96.3349L63.7057 95.8559C63.5143 95.7129 63.5143 95.5219 63.7536 95.3779L64.7583 94.8039C64.9976 94.6599 65.3803 94.6599 65.5717 94.7559L66.433 95.2339C66.6243 95.3779 66.6244 95.5689 66.3851 95.7129L65.3803 96.2869C65.1411 96.4779 64.7583 96.4779 64.5669 96.3349Z" fill="#EFE1EE"/>
<path d="M66.6243 97.5312L65.7631 97.0531C65.5717 96.9091 65.5717 96.7181 65.8109 96.5741L66.8157 96.0001C67.0549 95.8561 67.4377 95.8562 67.6291 95.9522L68.4903 96.4312C68.6817 96.5742 68.6817 96.7661 68.4425 96.9091L67.4377 97.4831C67.1985 97.6751 66.8636 97.6752 66.6243 97.5312Z" fill="#EFE1EE"/>
<path d="M68.7297 98.7269L67.8685 98.249C67.6771 98.105 67.6771 97.914 67.9163 97.77L68.9211 97.1959C69.1603 97.0529 69.5431 97.053 69.7345 97.148L70.5957 97.627C70.7871 97.77 70.7871 97.9619 70.5479 98.1049L69.5431 98.679C69.3039 98.871 68.9211 98.8709 68.7297 98.7269Z" fill="#EFE1EE"/>
<path d="M70.7871 99.9231L69.9259 99.4451C69.7345 99.3011 69.7345 99.1101 69.9737 98.9671L70.9785 98.3921C71.218 98.2491 71.601 98.249 71.792 98.345L72.653 98.8231C72.845 98.9671 72.845 99.1581 72.605 99.3011L71.601 99.8761C71.361 100.067 70.9785 100.067 70.7871 99.9231Z" fill="#EFE1EE"/>
<path d="M79.112 104.708L71.983 100.593C71.792 100.45 71.792 100.258 72.031 100.115L73.036 99.541C73.275 99.397 73.658 99.3969 73.849 99.4929L80.978 103.608C81.17 103.751 81.17 103.943 80.931 104.086L79.926 104.66C79.687 104.852 79.304 104.852 79.112 104.708Z" fill="#EFE1EE"/>
<path d="M81.17 105.904L80.309 105.426C80.117 105.282 80.117 105.091 80.356 104.947L81.361 104.373C81.6 104.23 81.983 104.23 82.175 104.325L83.036 104.804C83.227 104.947 83.227 105.139 82.988 105.282L81.983 105.856C81.744 106 81.361 106.048 81.17 105.904Z" fill="#EFE1EE"/>
<path d="M83.227 107.1L82.366 106.622C82.175 106.478 82.175 106.287 82.414 106.144L83.419 105.569C83.658 105.426 84.041 105.426 84.232 105.522L85.093 106C85.285 106.144 85.285 106.335 85.045 106.478L84.041 107.053C83.801 107.196 83.419 107.244 83.227 107.1Z" fill="#EFE1EE"/>
<path d="M85.332 108.297L84.471 107.818C84.28 107.675 84.28 107.483 84.519 107.34L85.524 106.766C85.763 106.622 86.146 106.622 86.337 106.718L87.198 107.196C87.39 107.34 87.39 107.531 87.151 107.675L86.146 108.249C85.907 108.392 85.524 108.44 85.332 108.297Z" fill="#EFE1EE"/>
<path d="M87.3901 109.493L86.5291 109.014C86.3371 108.871 86.3371 108.679 86.5771 108.536L87.5811 107.962C87.8211 107.818 88.2031 107.818 88.3951 107.914L89.2561 108.392C89.4471 108.536 89.4471 108.727 89.2081 108.871L88.2031 109.445C87.9641 109.588 87.5811 109.636 87.3901 109.493Z" fill="#EFE1EE"/>
<path d="M89.447 110.689L88.586 110.21C88.395 110.067 88.395 109.876 88.634 109.732L89.639 109.158C89.878 109.014 90.261 109.014 90.452 109.11L91.313 109.588C91.505 109.732 91.505 109.923 91.266 110.067L90.261 110.641C90.021 110.785 89.639 110.832 89.447 110.689Z" fill="#EFE1EE"/>
<path d="M86.385 77.7231L89.017 74.0381C88.299 72.9381 87.438 72.0771 86.481 71.5031C83.945 69.9711 81.792 71.5031 81.744 74.9471C81.696 78.3921 83.706 82.4121 86.289 83.9431C88.825 85.4741 90.883 83.9431 91.026 80.5931L86.385 77.7231Z" fill="white"/>
<path d="M90.5 73.656L87.916 77.34L92.557 80.211C92.557 80.163 92.557 80.115 92.557 80.067C92.557 77.914 91.744 75.522 90.5 73.656Z" fill="white"/>
<path d="M96.72 89.2059V76.9089L98.73 78.2009V90.45L96.72 89.2059Z" fill="white"/>
<path d="M99.3521 91.8329V83.3159L101.409 84.5599V93.077L99.3521 91.8329Z" fill="white"/>
<path d="M93.9929 88.5309V83.6509L96.0019 84.9429V89.7749L93.9929 88.5309Z" fill="white"/>
<path d="M90.1779 119.822L93.2879 118.052C93.5749 117.908 93.767 117.525 93.767 117.19C93.767 116.855 93.5269 116.712 93.2879 116.855L90.1779 118.626C89.8909 118.769 89.7 119.152 89.7 119.487C89.7 119.822 89.9389 119.965 90.1779 119.822Z" fill="#1800C2"/>
<path d="M88.0601 118.579C88.0601 118.244 88.2511 117.861 88.5381 117.718L91.6481 115.947C91.7441 115.899 91.8871 115.852 91.9831 115.899H92.0311L93.6101 116.809L89.9261 119.871L88.3471 118.962C88.2991 118.962 88.2991 118.914 88.2511 118.914C88.1081 118.818 88.0601 118.722 88.0601 118.579Z" fill="url(#paint78_linear)"/>
<defs>
<linearGradient id="paint0_linear" x1="99.6131" y1="96.1501" x2="56.6661" y2="96.1501" gradientUnits="userSpaceOnUse">
<stop stop-color="#BA83FF"/>
<stop offset="1" stop-color="#B0A4E2"/>
</linearGradient>
<linearGradient id="paint1_linear" x1="307.16" y1="221.739" x2="-56.1657" y2="9.87218" gradientUnits="userSpaceOnUse">
<stop stop-color="#9C74FF"/>
<stop offset="1" stop-color="#FFF6E2"/>
</linearGradient>
<linearGradient id="paint2_linear" x1="72.949" y1="43.8099" x2="67.555" y2="43.8099" gradientUnits="userSpaceOnUse">
<stop stop-color="#3D00E7"/>
<stop offset="1" stop-color="#6031FF"/>
</linearGradient>
<linearGradient id="paint3_linear" x1="137.435" y1="60.8821" x2="24.3042" y2="-21.2969" gradientUnits="userSpaceOnUse">
<stop stop-color="#6318FF"/>
<stop offset="1" stop-color="#FFF6E2"/>
</linearGradient>
<linearGradient id="paint4_linear" x1="116.891" y1="45.6951" x2="30.9679" y2="-16.7209" gradientUnits="userSpaceOnUse">
<stop stop-color="#4500FF"/>
<stop offset="1" stop-color="#6A31FF"/>
</linearGradient>
<linearGradient id="paint5_linear" x1="64.6525" y1="61.8209" x2="41.5492" y2="45.2679" gradientUnits="userSpaceOnUse">
<stop stop-color="#A43DFF"/>
<stop offset="1" stop-color="#EAD6E2"/>
</linearGradient>
<linearGradient id="paint6_linear" x1="98.6879" y1="116.383" x2="29.2601" y2="106.561" gradientUnits="userSpaceOnUse">
<stop stop-color="#BF9FFF"/>
<stop offset="1" stop-color="#FFF6E2"/>
</linearGradient>
<linearGradient id="paint7_linear" x1="64.6038" y1="55.888" x2="41.5004" y2="39.335" gradientUnits="userSpaceOnUse">
<stop stop-color="#A43DFF"/>
<stop offset="1" stop-color="#EAD6E2"/>
</linearGradient>
<linearGradient id="paint8_linear" x1="99.1509" y1="111.123" x2="29.7225" y2="101.301" gradientUnits="userSpaceOnUse">
<stop stop-color="#BF9FFF"/>
<stop offset="1" stop-color="#FFF6E2"/>
</linearGradient>
<linearGradient id="paint9_linear" x1="64.6427" y1="49.9561" x2="41.5394" y2="33.4031" gradientUnits="userSpaceOnUse">
<stop stop-color="#A43DFF"/>
<stop offset="1" stop-color="#EAD6E2"/>
</linearGradient>
<linearGradient id="paint10_linear" x1="98.679" y1="104.518" x2="29.2505" y2="94.6959" gradientUnits="userSpaceOnUse">
<stop stop-color="#BF9FFF"/>
<stop offset="1" stop-color="#FFF6E2"/>
</linearGradient>
<linearGradient id="paint11_linear" x1="64.6233" y1="44.007" x2="41.52" y2="27.454" gradientUnits="userSpaceOnUse">
<stop stop-color="#A43DFF"/>
<stop offset="1" stop-color="#EAD6E2"/>
</linearGradient>
<linearGradient id="paint12_linear" x1="99.1699" y1="99.2409" x2="29.7419" y2="89.4189" gradientUnits="userSpaceOnUse">
<stop stop-color="#BF9FFF"/>
<stop offset="1" stop-color="#FFF6E2"/>
</linearGradient>
<linearGradient id="paint13_linear" x1="64.6622" y1="38.0739" x2="41.5588" y2="21.5209" gradientUnits="userSpaceOnUse">
<stop stop-color="#A43DFF"/>
<stop offset="1" stop-color="#EAD6E2"/>
</linearGradient>
<linearGradient id="paint14_linear" x1="98.6979" y1="92.6359" x2="29.2699" y2="82.8139" gradientUnits="userSpaceOnUse">
<stop stop-color="#BF9FFF"/>
<stop offset="1" stop-color="#FFF6E2"/>
</linearGradient>
<linearGradient id="paint15_linear" x1="64.6621" y1="32.142" x2="41.5588" y2="15.589" gradientUnits="userSpaceOnUse">
<stop stop-color="#A43DFF"/>
<stop offset="1" stop-color="#EAD6E2"/>
</linearGradient>
<linearGradient id="paint16_linear" x1="99.8139" y1="88.1738" x2="30.3861" y2="78.3508" gradientUnits="userSpaceOnUse">
<stop stop-color="#BF9FFF"/>
<stop offset="1" stop-color="#FFF6E2"/>
</linearGradient>
<linearGradient id="paint17_linear" x1="70.5201" y1="8.7911" x2="67.4285" y2="8.7911" gradientUnits="userSpaceOnUse">
<stop stop-color="#3600F4"/>
<stop offset="1" stop-color="#330EE0"/>
</linearGradient>
<linearGradient id="paint18_linear" x1="102.948" y1="34.554" x2="65.5639" y2="19.0611" gradientUnits="userSpaceOnUse">
<stop stop-color="#6318FF"/>
<stop offset="1" stop-color="#13FFE2"/>
</linearGradient>
<linearGradient id="paint19_linear" x1="92.861" y1="30.1401" x2="79.37" y2="24.5491" gradientUnits="userSpaceOnUse">
<stop stop-color="#6318FF"/>
<stop offset="1" stop-color="#13FFE2"/>
</linearGradient>
<linearGradient id="paint20_linear" x1="91.4359" y1="36.4201" x2="68.6416" y2="26.973" gradientUnits="userSpaceOnUse">
<stop stop-color="#6318FF"/>
<stop offset="1" stop-color="#13FFE2"/>
</linearGradient>
<linearGradient id="paint21_linear" x1="98.7409" y1="38.559" x2="71.3139" y2="27.193" gradientUnits="userSpaceOnUse">
<stop stop-color="#6318FF"/>
<stop offset="1" stop-color="#13FFE2"/>
</linearGradient>
<linearGradient id="paint22_linear" x1="80.4359" y1="38.2351" x2="71.5779" y2="34.5641" gradientUnits="userSpaceOnUse">
<stop stop-color="#6318FF"/>
<stop offset="1" stop-color="#13FFE2"/>
</linearGradient>
<linearGradient id="paint23_linear" x1="102.948" y1="45.761" x2="65.5638" y2="30.268" gradientUnits="userSpaceOnUse">
<stop stop-color="#6318FF"/>
<stop offset="1" stop-color="#13FFE2"/>
</linearGradient>
<linearGradient id="paint24_linear" x1="92.861" y1="41.3611" x2="79.3701" y2="35.77" gradientUnits="userSpaceOnUse">
<stop stop-color="#6318FF"/>
<stop offset="1" stop-color="#13FFE2"/>
</linearGradient>
<linearGradient id="paint25_linear" x1="91.4359" y1="47.641" x2="68.6415" y2="38.1939" gradientUnits="userSpaceOnUse">
<stop stop-color="#6318FF"/>
<stop offset="1" stop-color="#13FFE2"/>
</linearGradient>
<linearGradient id="paint26_linear" x1="98.7399" y1="49.7801" x2="71.3139" y2="38.4141" gradientUnits="userSpaceOnUse">
<stop stop-color="#6318FF"/>
<stop offset="1" stop-color="#13FFE2"/>
</linearGradient>
<linearGradient id="paint27_linear" x1="80.4359" y1="49.456" x2="71.5779" y2="45.786" gradientUnits="userSpaceOnUse">
<stop stop-color="#6318FF"/>
<stop offset="1" stop-color="#13FFE2"/>
</linearGradient>
<linearGradient id="paint28_linear" x1="102.947" y1="56.7829" x2="65.5637" y2="41.2899" gradientUnits="userSpaceOnUse">
<stop stop-color="#6318FF"/>
<stop offset="1" stop-color="#13FFE2"/>
</linearGradient>
<linearGradient id="paint29_linear" x1="92.861" y1="52.368" x2="79.37" y2="46.777" gradientUnits="userSpaceOnUse">
<stop stop-color="#6318FF"/>
<stop offset="1" stop-color="#13FFE2"/>
</linearGradient>
<linearGradient id="paint30_linear" x1="91.4359" y1="58.6481" x2="68.6415" y2="49.2011" gradientUnits="userSpaceOnUse">
<stop stop-color="#6318FF"/>
<stop offset="1" stop-color="#13FFE2"/>
</linearGradient>
<linearGradient id="paint31_linear" x1="98.7399" y1="60.787" x2="71.3139" y2="49.421" gradientUnits="userSpaceOnUse">
<stop stop-color="#6318FF"/>
<stop offset="1" stop-color="#13FFE2"/>
</linearGradient>
<linearGradient id="paint32_linear" x1="80.4359" y1="60.4641" x2="71.5779" y2="56.7931" gradientUnits="userSpaceOnUse">
<stop stop-color="#6318FF"/>
<stop offset="1" stop-color="#13FFE2"/>
</linearGradient>
<linearGradient id="paint33_linear" x1="102.947" y1="67.989" x2="65.5639" y2="52.4959" gradientUnits="userSpaceOnUse">
<stop stop-color="#6318FF"/>
<stop offset="1" stop-color="#13FFE2"/>
</linearGradient>
<linearGradient id="paint34_linear" x1="29.1764" y1="75.003" x2="25.8705" y2="75.003" gradientUnits="userSpaceOnUse">
<stop stop-color="#867CE2"/>
<stop offset="1" stop-color="#B590FF"/>
</linearGradient>
<linearGradient id="paint35_linear" x1="75.3601" y1="92.442" x2="7.72711" y2="43.312" gradientUnits="userSpaceOnUse">
<stop stop-color="#6318FF"/>
<stop offset="1" stop-color="#FFF6E2"/>
</linearGradient>
<linearGradient id="paint36_linear" x1="39.183" y1="84.8079" x2="40.9708" y2="83.2049" gradientUnits="userSpaceOnUse">
<stop stop-color="#796DE8"/>
<stop offset="1" stop-color="#554FC6"/>
</linearGradient>
<linearGradient id="paint37_linear" x1="38.8699" y1="78.795" x2="40.6292" y2="77.218" gradientUnits="userSpaceOnUse">
<stop stop-color="#796DE8"/>
<stop offset="1" stop-color="#554FC6"/>
</linearGradient>
<linearGradient id="paint38_linear" x1="115.986" y1="63.188" x2="112.68" y2="63.188" gradientUnits="userSpaceOnUse">
<stop stop-color="#867CE2"/>
<stop offset="1" stop-color="#B590FF"/>
</linearGradient>
<linearGradient id="paint39_linear" x1="162.17" y1="72.423" x2="94.5369" y2="23.294" gradientUnits="userSpaceOnUse">
<stop stop-color="#6318FF"/>
<stop offset="1" stop-color="#FFF6E2"/>
</linearGradient>
<linearGradient id="paint40_linear" x1="129.982" y1="81.667" x2="132.469" y2="79.437" gradientUnits="userSpaceOnUse">
<stop stop-color="#796DE8"/>
<stop offset="1" stop-color="#554FC6"/>
</linearGradient>
<linearGradient id="paint41_linear" x1="129.546" y1="73.301" x2="131.994" y2="71.106" gradientUnits="userSpaceOnUse">
<stop stop-color="#796DE8"/>
<stop offset="1" stop-color="#554FC6"/>
</linearGradient>
<linearGradient id="paint42_linear" x1="44.3471" y1="136.96" x2="39.7123" y2="136.96" gradientUnits="userSpaceOnUse">
<stop stop-color="#3D00E7"/>
<stop offset="1" stop-color="#6031FF"/>
</linearGradient>
<linearGradient id="paint43_linear" x1="99.752" y1="157.221" x2="2.5524" y2="86.6151" gradientUnits="userSpaceOnUse">
<stop stop-color="#6318FF"/>
<stop offset="1" stop-color="#FFF6E2"/>
</linearGradient>
<linearGradient id="paint44_linear" x1="82.0999" y1="144.172" x2="8.2767" y2="90.5459" gradientUnits="userSpaceOnUse">
<stop stop-color="#4500FF"/>
<stop offset="1" stop-color="#6A31FF"/>
</linearGradient>
<linearGradient id="paint45_linear" x1="37.2096" y1="147.833" x2="17.3598" y2="133.611" gradientUnits="userSpaceOnUse">
<stop stop-color="#A43DFF"/>
<stop offset="1" stop-color="#EAD6E2"/>
</linearGradient>
<linearGradient id="paint46_linear" x1="66.4522" y1="194.711" x2="6.80142" y2="186.272" gradientUnits="userSpaceOnUse">
<stop stop-color="#6318FF"/>
<stop offset="1" stop-color="#FFF6E2"/>
</linearGradient>
<linearGradient id="paint47_linear" x1="37.1929" y1="142.722" x2="17.3431" y2="128.5" gradientUnits="userSpaceOnUse">
<stop stop-color="#A43DFF"/>
<stop offset="1" stop-color="#EAD6E2"/>
</linearGradient>
<linearGradient id="paint48_linear" x1="66.8746" y1="190.178" x2="7.22371" y2="181.739" gradientUnits="userSpaceOnUse">
<stop stop-color="#6318FF"/>
<stop offset="1" stop-color="#FFF6E2"/>
</linearGradient>
<linearGradient id="paint49_linear" x1="37.2262" y1="137.625" x2="17.3763" y2="123.403" gradientUnits="userSpaceOnUse">
<stop stop-color="#A43DFF"/>
<stop offset="1" stop-color="#EAD6E2"/>
</linearGradient>
<linearGradient id="paint50_linear" x1="66.4691" y1="184.503" x2="6.81812" y2="176.064" gradientUnits="userSpaceOnUse">
<stop stop-color="#6318FF"/>
<stop offset="1" stop-color="#FFF6E2"/>
</linearGradient>
<linearGradient id="paint51_linear" x1="37.2262" y1="132.528" x2="17.3763" y2="118.306" gradientUnits="userSpaceOnUse">
<stop stop-color="#A43DFF"/>
<stop offset="1" stop-color="#EAD6E2"/>
</linearGradient>
<linearGradient id="paint52_linear" x1="67.4282" y1="180.669" x2="7.77722" y2="172.23" gradientUnits="userSpaceOnUse">
<stop stop-color="#6318FF"/>
<stop offset="1" stop-color="#FFF6E2"/>
</linearGradient>
<linearGradient id="paint53_linear" x1="42.2592" y1="112.465" x2="39.6029" y2="112.465" gradientUnits="userSpaceOnUse">
<stop stop-color="#3600F4"/>
<stop offset="1" stop-color="#330EE0"/>
</linearGradient>
<linearGradient id="paint54_linear" x1="70.1203" y1="134.601" x2="38.0011" y2="121.289" gradientUnits="userSpaceOnUse">
<stop stop-color="#6318FF"/>
<stop offset="1" stop-color="#13FFE2"/>
</linearGradient>
<linearGradient id="paint55_linear" x1="61.4538" y1="130.808" x2="49.8632" y2="126.004" gradientUnits="userSpaceOnUse">
<stop stop-color="#6318FF"/>
<stop offset="1" stop-color="#13FFE2"/>
</linearGradient>
<linearGradient id="paint56_linear" x1="60.2294" y1="136.203" x2="40.6454" y2="128.087" gradientUnits="userSpaceOnUse">
<stop stop-color="#6318FF"/>
<stop offset="1" stop-color="#13FFE2"/>
</linearGradient>
<linearGradient id="paint57_linear" x1="66.5054" y1="138.041" x2="42.9411" y2="128.275" gradientUnits="userSpaceOnUse">
<stop stop-color="#6318FF"/>
<stop offset="1" stop-color="#13FFE2"/>
</linearGradient>
<linearGradient id="paint58_linear" x1="50.7787" y1="137.763" x2="43.1683" y2="134.609" gradientUnits="userSpaceOnUse">
<stop stop-color="#6318FF"/>
<stop offset="1" stop-color="#13FFE2"/>
</linearGradient>
<linearGradient id="paint59_linear" x1="70.1201" y1="144.229" x2="38.001" y2="130.918" gradientUnits="userSpaceOnUse">
<stop stop-color="#6318FF"/>
<stop offset="1" stop-color="#13FFE2"/>
</linearGradient>
<linearGradient id="paint60_linear" x1="61.4537" y1="140.449" x2="49.8632" y2="135.645" gradientUnits="userSpaceOnUse">
<stop stop-color="#6318FF"/>
<stop offset="1" stop-color="#13FFE2"/>
</linearGradient>
<linearGradient id="paint61_linear" x1="60.2295" y1="145.844" x2="40.6454" y2="137.728" gradientUnits="userSpaceOnUse">
<stop stop-color="#6318FF"/>
<stop offset="1" stop-color="#13FFE2"/>
</linearGradient>
<linearGradient id="paint62_linear" x1="66.5053" y1="147.682" x2="42.9411" y2="137.916" gradientUnits="userSpaceOnUse">
<stop stop-color="#6318FF"/>
<stop offset="1" stop-color="#13FFE2"/>
</linearGradient>
<linearGradient id="paint63_linear" x1="50.7786" y1="147.404" x2="43.1682" y2="144.25" gradientUnits="userSpaceOnUse">
<stop stop-color="#6318FF"/>
<stop offset="1" stop-color="#13FFE2"/>
</linearGradient>
<linearGradient id="paint64_linear" x1="70.1201" y1="153.698" x2="38.001" y2="140.387" gradientUnits="userSpaceOnUse">
<stop stop-color="#6318FF"/>
<stop offset="1" stop-color="#13FFE2"/>
</linearGradient>
<linearGradient id="paint65_linear" x1="64.2966" y1="157.423" x2="62.5403" y2="157.423" gradientUnits="userSpaceOnUse">
<stop stop-color="#867CE2"/>
<stop offset="1" stop-color="#B590FF"/>
</linearGradient>
<linearGradient id="paint66_linear" x1="88.8331" y1="166.688" x2="52.9015" y2="140.587" gradientUnits="userSpaceOnUse">
<stop stop-color="#6318FF"/>
<stop offset="1" stop-color="#FFF6E2"/>
</linearGradient>
<linearGradient id="paint67_linear" x1="95.6671" y1="85.518" x2="93.8711" y2="81.718" gradientUnits="userSpaceOnUse">
<stop stop-color="#3D00E7"/>
<stop offset="1" stop-color="#6031FF"/>
</linearGradient>
<linearGradient id="paint68_linear" x1="96.4201" y1="90.2139" x2="72.0071" y2="38.3339" gradientUnits="userSpaceOnUse">
<stop stop-color="#1800C2"/>
<stop offset="1" stop-color="#240ED6"/>
</linearGradient>
<linearGradient id="paint69_linear" x1="208.635" y1="263.887" x2="9.39451" y2="101.535" gradientUnits="userSpaceOnUse">
<stop stop-color="#6318FF"/>
<stop offset="1" stop-color="#FFF6E2"/>
</linearGradient>
<linearGradient id="paint70_linear" x1="94.7101" y1="70.948" x2="90.3481" y2="67.3939" gradientUnits="userSpaceOnUse">
<stop stop-color="#6318FF"/>
<stop offset="1" stop-color="#FFF6E2"/>
</linearGradient>
<linearGradient id="paint71_linear" x1="84.8939" y1="104.17" x2="82.3449" y2="104.17" gradientUnits="userSpaceOnUse">
<stop stop-color="#1800C2"/>
<stop offset="1" stop-color="#240ED6"/>
</linearGradient>
<linearGradient id="paint72_linear" x1="81.6731" y1="86.9639" x2="81.1441" y2="120.12" gradientUnits="userSpaceOnUse">
<stop stop-color="#3D00E7"/>
<stop offset="1" stop-color="#6031FF"/>
</linearGradient>
<linearGradient id="paint73_linear" x1="65.638" y1="150.129" x2="71.0701" y2="2.96786" gradientUnits="userSpaceOnUse">
<stop stop-color="#6318FF"/>
<stop offset="1" stop-color="#FFF6E2"/>
</linearGradient>
<linearGradient id="paint74_linear" x1="65.2412" y1="125.445" x2="67.2305" y2="71.5479" gradientUnits="userSpaceOnUse">
<stop stop-color="#6318FF"/>
<stop offset="1" stop-color="#FFF6E2"/>
</linearGradient>
<linearGradient id="paint75_linear" x1="74.5531" y1="97.5609" x2="75.8101" y2="97.5099" gradientUnits="userSpaceOnUse">
<stop stop-color="#1800C2"/>
<stop offset="1" stop-color="#240ED6"/>
</linearGradient>
<linearGradient id="paint76_linear" x1="70.6065" y1="105.405" x2="71.478" y2="105.405" gradientUnits="userSpaceOnUse">
<stop stop-color="#1800C2"/>
<stop offset="1" stop-color="#240ED6"/>
</linearGradient>
<linearGradient id="paint77_linear" x1="60.1438" y1="134.521" x2="61.5085" y2="101.495" gradientUnits="userSpaceOnUse">
<stop stop-color="#6318FF"/>
<stop offset="1" stop-color="#FFF6E2"/>
</linearGradient>
<linearGradient id="paint78_linear" x1="89.4741" y1="119.522" x2="90.2381" y2="118.375" gradientUnits="userSpaceOnUse">
<stop stop-color="#3D00E7"/>
<stop offset="1" stop-color="#6031FF"/>
</linearGradient>
</defs>
</svg>
