<svg width="10" height="15" viewBox="0 0 10 15" fill="none" xmlns="http://www.w3.org/2000/svg">
<g clip-path="url(#clip0)">
<path d="M8.3956 0.003121L6.45046 0C4.26516 0 2.85292 1.44892 2.85292 3.69152V5.39356H0.897164C0.728164 5.39356 0.591309 5.53057 0.591309 5.69957V8.16563C0.591309 8.33463 0.72832 8.47149 0.897164 8.47149H2.85292V14.6941C2.85292 14.8631 2.98977 15 3.15877 15H5.71048C5.87948 15 6.01633 14.863 6.01633 14.6941V8.47149H8.30307C8.47207 8.47149 8.60892 8.33463 8.60892 8.16563L8.60986 5.69957C8.60986 5.61843 8.57756 5.54071 8.52029 5.48329C8.46302 5.42586 8.38499 5.39356 8.30385 5.39356H6.01633V3.95072C6.01633 3.25723 6.18159 2.90518 7.08495 2.90518L8.39529 2.90472C8.56414 2.90472 8.70099 2.7677 8.70099 2.59886V0.308979C8.70099 0.140289 8.56429 0.0034331 8.3956 0.003121Z" fill="white"/>
</g>
<defs>
<clipPath id="clip0">
<rect x="0.591309" width="9" height="15" fill="white"/>
</clipPath>
</defs>
</svg>
