<svg width="24" height="24" viewBox="0 0 24 24" fill="none" xmlns="http://www.w3.org/2000/svg">
<path d="M6.15912 7.64264L6.75309 8.23661L8.3653 6.6244C8.67501 6.66259 8.85744 6.72623 9.09079 6.95957C9.24352 7.11231 9.24777 7.31171 9.03563 7.52384L7.53798 9.0215L8.13195 9.61547L9.62536 8.12206C9.64657 8.10084 9.73991 7.99902 9.75688 7.98205C10.0454 8.0075 10.2575 8.1263 10.4866 8.3554C10.6351 8.50389 10.6394 8.7033 10.4272 8.91543L8.92957 10.4131L9.52354 11.0071L11.0127 9.51788C11.4709 9.05968 11.6279 8.54632 11.1315 8.04993C10.7836 7.70203 10.3806 7.58748 10.0327 7.52809C10.1175 7.25656 10.0242 6.9426 9.73991 6.65834C9.39626 6.31469 9.10352 6.28499 8.75986 6.22984L8.89138 5.86921L8.41196 5.38979L6.15912 7.64264ZM10.9745 10.184C10.1472 11.0113 9.98598 11.5119 10.5587 12.0847C10.9109 12.4368 11.3945 12.9205 11.8315 13.1199L12.2303 12.7211C11.8655 12.4495 11.7 12.2841 11.3564 11.9404C11.0382 11.6222 10.9066 11.4398 11.3139 11.0325L12.0309 11.7495C12.4382 12.1568 12.8201 12.2162 13.2231 11.8132C13.9698 11.0664 13.745 10.6889 13.0916 10.0355C12.3788 9.32272 11.9418 9.21666 10.9745 10.184ZM11.7424 10.604C12.2219 10.1161 12.3619 10.2137 12.6758 10.5276C12.9601 10.8119 12.9431 10.9052 12.6588 11.1895C12.5528 11.2956 12.4297 11.2913 12.3067 11.1683L11.7424 10.604ZM12.1005 13.584L12.6944 14.178L14.3109 12.5615C14.6206 12.5997 14.8115 12.6718 15.0534 12.9137C15.2018 13.0621 15.2188 13.2403 14.994 13.4652L13.4878 14.9713L14.0818 15.5653L15.5794 14.0677C16.0079 13.6391 16.2243 13.1258 15.7025 12.6039C15.3588 12.2603 15.0406 12.2221 14.7055 12.1669L14.8327 11.8106L14.3533 11.3311L12.1005 13.584ZM15.1501 15.1317C14.7216 15.5602 14.5095 16.0693 15.0356 16.5954C15.3792 16.9391 15.6677 16.9476 16.0241 17.0324L15.9053 17.3888L16.3805 17.864L18.6333 15.6111L18.0393 15.0172L16.4187 16.6379C16.1132 16.5954 15.918 16.5276 15.6804 16.29C15.5319 16.1415 15.5107 15.959 15.7356 15.7342L17.246 14.2238L16.652 13.6298L15.1501 15.1317Z" fill="white"/>
<rect x="13.0056" width="15" height="2" transform="rotate(45 13.0056 0)" fill="white"/>
<rect x="2.00562" y="11" width="15" height="2" transform="rotate(45 2.00562 11)" fill="white"/>
</svg>
