<svg width="112" height="19" viewBox="0 0 112 19" fill="none" xmlns="http://www.w3.org/2000/svg">
<path d="M12.125 18V10.875H4.50775V18H0.96875V1.09H4.50775V7.957H12.125V1.09H15.6641V18H12.125ZM28.2617 13.898H22.3202L21.0311 18H17.3983L23.2695 1.09H27.4297L33.3125 18H29.5507L28.2617 13.898ZM23.082 11.25H27.5L25.332 4.324H25.25L23.082 11.25ZM37.4727 13.184C37.5508 13.871 37.918 14.43 38.5742 14.859C39.2227 15.281 40.0194 15.492 40.9647 15.492C41.9022 15.492 42.668 15.289 43.2617 14.883C43.8477 14.484 44.1406 13.973 44.1406 13.348C44.1406 12.801 43.9218 12.359 43.4843 12.023C43.0468 11.688 42.3163 11.406 41.2929 11.18L39.0897 10.699C35.9882 10.035 34.4375 8.461 34.4375 5.977C34.4375 4.43 35.0429 3.176 36.2538 2.215C37.4569 1.27 39.0077 0.796997 40.9061 0.796997C42.8593 0.796997 44.4219 1.262 45.5938 2.191C46.75 3.113 47.3438 4.344 47.375 5.883H44.0586C44.0039 5.172 43.6874 4.609 43.1093 4.195C42.539 3.789 41.8085 3.586 40.9179 3.586C40.0429 3.586 39.3398 3.777 38.8086 4.16C38.2695 4.543 38 5.047 38 5.672C38 6.188 38.2187 6.609 38.6561 6.938C39.0858 7.25 39.7891 7.52 40.7656 7.746L42.8163 8.18C44.5117 8.539 45.7461 9.102 46.5195 9.867C47.2929 10.625 47.6797 11.648 47.6797 12.938C47.6797 14.578 47.0625 15.879 45.8281 16.84C44.5938 17.809 42.9258 18.293 40.8242 18.293C38.7852 18.293 37.1641 17.84 35.9608 16.934C34.75 16.02 34.1171 14.77 34.0625 13.184H37.4727ZM61.0159 18V10.875H53.398V18H49.8593V1.09H53.398V7.957H61.0159V1.09H64.555V18H61.0159ZM74.539 0.82C76.898 0.82 78.7699 1.605 80.1519 3.176C81.535 4.746 82.227 6.871 82.227 9.551C82.227 12.23 81.535 14.352 80.1519 15.914C78.7699 17.484 76.898 18.27 74.539 18.27C72.18 18.27 70.312 17.484 68.938 15.914C67.555 14.352 66.8629 12.23 66.8629 9.551C66.8629 6.871 67.555 4.746 68.938 3.176C70.32 1.605 72.188 0.82 74.539 0.82ZM74.539 2.309C72.688 2.309 71.2189 2.961 70.1329 4.266C69.047 5.57 68.504 7.332 68.504 9.551C68.504 11.762 69.047 13.52 70.1329 14.824C71.227 16.129 72.695 16.781 74.539 16.781C76.391 16.781 77.863 16.129 78.957 14.824C80.043 13.52 80.586 11.762 80.586 9.551C80.586 7.332 80.043 5.57 78.957 4.266C77.863 2.961 76.391 2.309 74.539 2.309ZM84.723 18V1.09H86.3049L96.2189 15.211H96.3009V1.09H97.8829V18H96.336L86.3869 3.867H86.3049V18H84.723ZM111.266 18H101.059V1.09H111.266V2.543H102.652V8.625H110.832V10.055H102.652V16.547H111.266V18Z" fill="white"/>
</svg>
