<svg width="75" height="22" viewBox="0 0 75 22" fill="none" xmlns="http://www.w3.org/2000/svg">
<path d="M19.4594 21.0145L14.1536 15.176H6.31182V11.9398H15.0478C16.3751 11.9398 17.3741 11.579 18.0448 10.8575C18.7189 10.136 19.0542 9.08881 19.0542 7.72286C19.0542 6.35342 18.7049 5.33772 18.0028 4.67226C17.3007 4.0068 16.3157 3.67407 15.0478 3.67407H3.6327V21.018H0V0.00354004H15.0478C16.2389 0.00354004 17.3042 0.182163 18.2473 0.53941C19.1905 0.896656 19.9869 1.40801 20.64 2.06996C21.2932 2.73542 21.7927 3.54098 22.1385 4.48313C22.4843 5.42878 22.659 6.48651 22.659 7.66332C22.659 9.41803 22.2783 10.8855 21.5203 12.0729C20.7623 13.2567 19.7004 14.1113 18.3347 14.6296L24.6465 21.018H19.4594V21.0145Z" fill="white"/>
<path d="M26.5537 21.0145V0H45.2621V3.67053H30.1864V17.344H45.2936V21.0145H26.5537ZM32.8655 11.8802V8.78756H44.4832V11.8802H32.8655Z" fill="white"/>
<path d="M69.507 21.0145L60.7151 12.4301L52.0106 21.0145H47.2532L58.4971 10.087L48.06 0H53.1039L61.0889 7.77536L68.9586 0H73.716L63.279 10.087L74.6382 21.0145H69.507Z" fill="white"/>
</svg>
