<svg width="60" height="21" viewBox="0 0 60 21" fill="none" xmlns="http://www.w3.org/2000/svg">
<path d="M7.14538 13.0784C7.68687 13.1138 9.14656 13.1962 9.14656 14.5499C9.14656 15.6682 7.95762 16.3392 5.95644 16.3392C3.76692 16.3392 1.63626 15.7741 0.353149 15.2562V19.7294C2.2837 20.2356 4.46145 20.4828 7.01589 20.4828C12.525 20.4828 14.9853 17.3869 14.9853 14.3027C14.9853 10.8183 12.2307 8.54636 7.5927 8.2403C6.95703 8.19321 5.49735 8.09904 5.49735 6.79239C5.49735 5.20322 7.60447 5.20322 8.39317 5.20322C9.78222 5.20322 11.5715 5.61522 12.8546 5.99192C12.8546 5.99192 13.5727 6.23912 14.1848 6.4981L14.2437 6.50987V6.45101V2.16614L14.1613 2.14259C12.6427 1.61287 10.877 1.10669 7.61624 1.10669C2.00118 1.10669 0 4.39097 0 7.20439C0 8.81711 0.694526 12.6311 7.14538 13.0784Z" fill="white"/>
<path d="M21.3891 14.6673C22.8841 16.9039 23.6257 20.2824 23.6257 20.2824H29.794C29.1819 17.7397 26.5097 13.0664 26.5097 13.0664C28.9111 10.0293 29.9588 6.79209 30.1236 6.25059H24.226C24.1201 6.53311 23.3196 8.79327 21.3773 11.1358V1.11816L16.2213 2.13052V20.2824H21.3773V14.6673H21.3891Z" fill="white"/>
<path d="M43.096 4.92054C44.4615 4.92054 45.5563 3.81401 45.5563 2.46027C45.5563 1.10653 44.4497 0 43.096 0C41.7305 0 40.6357 1.10653 40.6357 2.46027C40.6357 3.81401 41.7423 4.92054 43.096 4.92054Z" fill="white"/>
<path d="M60 1.10669L55.0088 2.00133V20.2827H60V1.10669Z" fill="white"/>
<path d="M45.5916 6.26245H40.6005V20.2825H45.5916V6.26245Z" fill="white"/>
<path d="M35.8682 20.2827V13.8436C35.8682 11.3834 36.1978 10.3239 39.1172 10.218V6.12145C38.6228 6.0155 37.787 6.05082 37.787 6.05082C33.1725 6.20385 30.83 8.27566 30.83 12.384V20.2709H35.8682V20.2827Z" fill="white"/>
<path d="M47.7104 20.2827H52.7134V1.10669L47.7104 2.00133V20.2827Z" fill="white"/>
</svg>
