<svg width="21" height="20" viewBox="0 0 21 20" fill="none" xmlns="http://www.w3.org/2000/svg">
<g clip-path="url(#clip0)">
<path d="M10.5913 0C5.07726 0 0.591309 4.48595 0.591309 10C0.591309 15.5141 5.07726 20 10.5913 20C16.1054 20 20.5913 15.5141 20.5913 10C20.5913 4.48595 16.1053 0 10.5913 0ZM16.3244 2.75718C16.8216 3.15162 17.2773 3.59612 17.6841 4.08291C17.4683 4.04518 17.2663 4.04918 17.077 4.09551C16.7107 4.18508 16.4187 4.43001 16.2327 4.80367C16.1887 4.89202 16.098 4.943 16.0005 4.93238C15.8854 4.92029 15.7963 4.82759 15.7934 4.71678C15.7736 3.96613 16.1004 3.19445 16.3244 2.75718ZM4.2241 3.3082C5.02112 2.54951 5.95303 1.93148 6.97966 1.4939C7.40323 1.7836 8.57299 2.63929 9.43728 3.79929C9.54333 3.94161 9.57894 4.12165 9.53499 4.29331C9.49104 4.46511 9.3731 4.60612 9.21146 4.68006C8.30216 5.09619 7.0972 5.74159 6.52084 6.45334C6.38732 6.61832 6.17166 6.69201 5.97108 6.64113C5.20193 6.44601 4.58394 6.67886 4.23093 7.29664C3.78505 8.07676 4.40663 8.83595 4.95507 9.50583C5.01748 9.58204 5.08014 9.65867 5.14164 9.73544C4.56584 9.39355 4.12568 8.95132 3.83047 8.41471C3.32107 7.48852 2.98045 5.85275 4.2241 3.3082ZM1.34994 10C1.34994 8.18616 1.87557 6.49299 2.78199 5.06403C2.39235 6.76933 2.7303 7.98856 3.16576 8.78037C3.63029 9.62468 4.37481 10.2725 5.37874 10.7057C5.58534 10.7949 5.7399 10.976 5.79225 11.1904C5.79225 11.1904 5.81399 11.2839 5.8233 11.3302C5.89289 11.6758 5.94559 12.1904 5.86907 12.8477C5.75654 13.8186 6.18815 14.7714 6.99534 15.3342L7.75063 15.8612C7.7035 16.3995 7.6381 17.7585 8.02885 18.8797C4.17575 17.766 1.34994 14.2069 1.34994 10ZM19.5719 11.5455C19.5494 11.1473 19.3585 10.7749 19.0482 10.5239C18.7415 10.2757 18.3431 10.1681 17.9551 10.2283L17.9222 10.2333C17.6261 10.2765 17.331 10.2007 17.0915 10.0198C16.848 9.83563 16.6916 9.56657 16.6514 9.26215C16.6072 8.92719 16.5916 8.60659 16.6049 8.30921C16.6144 8.09993 16.4523 7.92266 16.2431 7.91325C16.0337 7.90369 15.8565 8.06584 15.8471 8.27512C15.8317 8.61686 15.8493 8.98232 15.8993 9.36143C15.9663 9.86876 16.2272 10.3175 16.6341 10.625C17.0366 10.9293 17.533 11.0567 18.032 10.9839L18.0718 10.9779C18.2512 10.9501 18.4285 10.9983 18.5711 11.1137C18.7154 11.2303 18.804 11.4033 18.8145 11.5883C18.8514 12.2418 18.9915 12.8097 19.2307 13.2802C17.9044 16.7613 14.5323 19.2413 10.5913 19.2413C10.2297 19.2413 9.87309 19.2197 9.52219 19.1791C9.64823 19.0508 9.79884 18.896 9.97707 18.7109C10.1224 18.56 10.1178 18.3199 9.96685 18.1746C9.81594 18.0294 9.57575 18.0339 9.43055 18.1848C9.16725 18.4584 8.9646 18.665 8.81449 18.8161C8.29402 17.595 8.52459 15.7478 8.52722 15.7272C8.54558 15.5869 8.48423 15.448 8.36816 15.367L7.42938 14.7119C6.85145 14.309 6.54233 13.6281 6.6227 12.9352C6.68561 12.394 6.67717 11.8642 6.6013 11.3798C7.2687 11.2 7.91657 11.1052 8.36877 11.0563C8.7012 11.0206 9.02893 11.131 9.26714 11.3595C9.817 11.8872 10.6684 12.5025 11.7976 13.1883C12.1326 13.3918 12.3629 13.7304 12.4291 14.1172C12.4951 14.5027 12.3912 14.8971 12.144 15.1991C11.8071 15.6107 11.395 16.0841 10.9193 16.6061C10.7782 16.7609 10.7893 17.0008 10.9441 17.1419C11.0169 17.2082 11.1083 17.2409 11.1995 17.2409C11.3025 17.2409 11.4051 17.1992 11.48 17.1171C11.9647 16.5852 12.3856 16.1015 12.7311 15.6795C13.1175 15.2075 13.2799 14.5914 13.1768 13.9892C13.0735 13.3857 12.7142 12.8575 12.1913 12.5399C11.1246 11.8921 10.2951 11.2946 9.79227 10.8121C9.39186 10.4281 8.84347 10.2422 8.28729 10.3021C7.82958 10.3516 7.18221 10.4455 6.50389 10.6208C6.36653 10.0327 5.93411 9.50421 5.542 9.02531C5.03498 8.40601 4.71559 7.97733 4.88947 7.67307C5.0017 7.47674 5.21654 7.23235 5.78446 7.37655C6.27069 7.49985 6.79121 7.32491 7.11029 6.93077C7.48779 6.46467 8.34606 5.91036 9.52705 5.36991C9.89802 5.20018 10.1687 4.87634 10.2699 4.4815C10.3709 4.08686 10.2892 3.673 10.0456 3.34608C9.32343 2.3768 8.42733 1.61933 7.83985 1.17694C8.70929 0.905252 9.63346 0.758684 10.5912 0.758684C12.4803 0.758684 14.2384 1.32882 15.7035 2.30549C15.4432 2.79066 15.009 3.75321 15.035 4.7368C15.0478 5.22663 15.4288 5.63513 15.9211 5.68692C15.9552 5.69051 15.9893 5.69228 16.0233 5.69228C16.395 5.69228 16.7434 5.48001 16.9118 5.14186C17.0393 4.8858 17.2033 4.84564 17.2572 4.83244C17.4264 4.79107 17.8133 4.80088 18.5333 5.303C18.3786 5.30568 18.199 5.29956 18.0041 5.27554C17.7148 5.23988 17.4279 5.31225 17.196 5.479C17.0439 5.58819 16.8996 5.7163 16.7668 5.85968C16.6245 6.01343 16.6337 6.25341 16.7874 6.39573C16.8603 6.4633 16.9528 6.49673 17.045 6.49673C17.147 6.49673 17.2487 6.45587 17.3234 6.37515C17.4217 6.26894 17.5278 6.17472 17.6387 6.09501C17.7154 6.03983 17.8125 6.01616 17.9114 6.02845C18.3345 6.0806 18.6988 6.06335 18.939 6.03781C19.5116 7.23928 19.8326 8.58282 19.8326 10C19.8326 10.6818 19.7578 11.3463 19.617 11.9864C19.5956 11.8459 19.5805 11.6989 19.5719 11.5455Z" fill="white" stroke="white" stroke-width="0.5"/>
<path d="M10.8225 17.4998C10.8134 17.477 10.8018 17.4548 10.7881 17.4345C10.7739 17.4133 10.7582 17.3941 10.7406 17.3769C10.7233 17.3592 10.7041 17.3435 10.6829 17.3294C10.6627 17.3157 10.6404 17.3041 10.6176 17.2945C10.5949 17.2854 10.5706 17.2778 10.5469 17.2732C10.4978 17.2631 10.4472 17.2631 10.3982 17.2732C10.3744 17.2778 10.3501 17.2854 10.3274 17.2945C10.3047 17.3041 10.2824 17.3157 10.2622 17.3294C10.2414 17.3435 10.2217 17.3592 10.2045 17.3769C10.1868 17.3941 10.1711 17.4133 10.157 17.4345C10.1433 17.4548 10.1317 17.477 10.1221 17.4998C10.113 17.5225 10.1054 17.5468 10.1008 17.5706C10.0958 17.5954 10.0933 17.6202 10.0933 17.6449C10.0933 17.6697 10.0958 17.6945 10.1008 17.7188C10.1054 17.7431 10.113 17.7668 10.1221 17.7901C10.1317 17.8129 10.1433 17.8346 10.157 17.8553C10.1711 17.8761 10.1868 17.8958 10.2045 17.913C10.2217 17.9307 10.2414 17.9464 10.2622 17.96C10.2824 17.9737 10.3047 17.9858 10.3274 17.9949C10.3501 18.0045 10.3745 18.0116 10.3982 18.0167C10.423 18.0217 10.4477 18.0243 10.4725 18.0243C10.4973 18.0243 10.5221 18.0217 10.5469 18.0167C10.5707 18.0116 10.5949 18.0045 10.6177 17.9949C10.6404 17.9858 10.6627 17.9737 10.6829 17.96C10.7042 17.9464 10.7234 17.9307 10.7406 17.913C10.7583 17.8958 10.774 17.8761 10.7881 17.8553C10.8018 17.8346 10.8134 17.8129 10.8225 17.7901C10.8321 17.7668 10.8398 17.7431 10.8443 17.7188C10.8494 17.6945 10.8518 17.6697 10.8518 17.6449C10.8518 17.6202 10.8493 17.5954 10.8443 17.5706C10.8397 17.5468 10.8321 17.5225 10.8225 17.4998Z" fill="white" stroke="white" stroke-width="0.5"/>
<path d="M12.4003 1.69019C12.3388 1.63486 11.7449 1.14499 9.85155 0.987245C9.57232 0.963879 9.45428 1.15025 9.42469 1.20786C9.28627 1.47727 9.45914 1.68048 9.72076 1.98814C10.023 2.34348 10.5289 2.93825 10.6071 3.53848C10.627 3.69071 10.7367 3.81599 10.8849 3.85574C10.9175 3.86449 10.9506 3.86874 10.9832 3.86874C11.0994 3.86874 11.2114 3.81523 11.2843 3.7202L12.4475 2.20293C12.568 2.04584 12.5474 1.8226 12.4003 1.69019ZM11.1246 2.68173C10.9722 2.36371 10.7715 2.07892 10.5835 1.84086C11.0477 1.919 11.3657 2.0159 11.5729 2.09697L11.1246 2.68173Z" fill="white" stroke="white" stroke-width="0.5"/>
<path d="M16.6398 6.85255C16.619 6.83889 16.5973 6.82726 16.5741 6.81765C16.5513 6.80804 16.5275 6.80096 16.5033 6.7959C16.4542 6.78629 16.4041 6.78629 16.3551 6.7959C16.3308 6.80096 16.307 6.80804 16.2843 6.81765C16.261 6.82726 16.2393 6.83889 16.2185 6.85255C16.1978 6.8662 16.1786 6.88239 16.1609 6.89958C16.1437 6.91728 16.1275 6.9365 16.1138 6.95724C16.1001 6.97798 16.0885 7.00023 16.0789 7.02299C16.0693 7.04575 16.0622 7.06952 16.0571 7.09379C16.0526 7.11857 16.05 7.14336 16.05 7.16814C16.05 7.19292 16.0526 7.2177 16.0571 7.24198C16.0621 7.2662 16.0692 7.29003 16.0789 7.31329C16.0884 7.33605 16.1001 7.3578 16.1137 7.37853C16.1274 7.39927 16.1436 7.41849 16.1608 7.43619C16.2316 7.50699 16.3292 7.54745 16.4294 7.54745C16.4536 7.54745 16.4789 7.54493 16.5032 7.53987C16.5275 7.53481 16.5512 7.52773 16.574 7.51812C16.5973 7.50902 16.619 7.49688 16.6398 7.48322C16.6605 7.46957 16.6797 7.45389 16.6974 7.43619C16.7146 7.41849 16.7308 7.39927 16.7445 7.37853C16.7582 7.3578 16.7698 7.33605 16.7793 7.31329C16.789 7.29003 16.796 7.26625 16.8011 7.24198C16.8062 7.2177 16.8082 7.19292 16.8082 7.16814C16.8082 7.068 16.7678 6.97039 16.6975 6.89958C16.6798 6.88239 16.6606 6.8662 16.6398 6.85255Z" fill="white" stroke="white" stroke-width="0.5"/>
</g>
<defs>
<clipPath id="clip0">
<rect x="0.591309" width="20" height="20" fill="white"/>
</clipPath>
</defs>
</svg>
