<svg width="18" height="15" viewBox="0 0 18 15" fill="none" xmlns="http://www.w3.org/2000/svg">
<g clip-path="url(#clip0)">
<path d="M12.0113 10.2634C11.2791 10.2634 10.682 9.67239 10.682 8.94732C10.682 8.22235 11.2791 7.63124 12.0113 7.63124C12.7436 7.63124 13.3407 8.22235 13.3407 8.94732C13.3407 9.67239 12.7436 10.2634 12.0113 10.2634ZM12.2461 12.4233C11.3378 13.32 9.60025 13.3908 9.09007 13.3908C8.57977 13.3908 6.83972 13.32 5.9339 12.4233C5.79881 12.2895 5.79881 12.0747 5.9339 11.9408C6.0692 11.8069 6.28606 11.8069 6.42136 11.9408C6.99277 12.5067 8.21496 12.7088 9.09007 12.7088C9.96268 12.7088 11.1872 12.5067 11.7589 11.9408C11.894 11.8069 12.1108 11.8069 12.2461 11.9408C12.3788 12.0747 12.3788 12.2895 12.2461 12.4233ZM4.83425 8.94742C4.83425 8.22245 5.43129 7.63134 6.16362 7.63134C6.89586 7.63134 7.49289 8.22245 7.49289 8.94742C7.49289 9.67239 6.89586 10.2636 6.16362 10.2636C5.43129 10.2634 4.83425 9.67239 4.83425 8.94742ZM17.5913 7.63134C17.5913 6.61328 16.7596 5.78979 15.7313 5.78979C15.2287 5.78979 14.7744 5.98673 14.4403 6.30766C13.1697 5.39829 11.417 4.81221 9.46505 4.744L10.3121 0.795648L13.0804 1.37926C13.1137 2.07649 13.6901 2.63227 14.4021 2.63227C15.1369 2.63227 15.7314 2.04362 15.7314 1.31608C15.7314 0.588646 15.1369 0 14.4021 0C13.879 0 13.4325 0.30059 13.2156 0.735037L10.1233 0.0833145C10.0366 0.0656448 9.94733 0.0809517 9.87324 0.128824C9.79937 0.176799 9.74821 0.250046 9.73047 0.335929C9.73047 0.335929 8.80172 4.71626 8.80172 4.74153C6.8142 4.79197 5.02818 5.38062 3.7372 6.30262C3.40299 5.98436 2.95133 5.78979 2.45131 5.78979C1.42305 5.78979 0.591309 6.61575 0.591309 7.63134C0.591309 8.37901 1.04287 9.02324 1.69096 9.31109C1.66294 9.49313 1.64758 9.67989 1.64758 9.86943C1.64758 12.7037 4.97973 15 9.09007 15C13.2003 15 16.5324 12.7037 16.5324 9.86943C16.5324 9.68246 16.5172 9.49806 16.4892 9.31623C17.1347 9.02827 17.5913 8.38415 17.5913 7.63134Z" fill="white"/>
</g>
<defs>
<clipPath id="clip0">
<rect x="0.591309" width="17" height="15" fill="white"/>
</clipPath>
</defs>
</svg>
