<svg width="13" height="12" viewBox="0 0 13 12" fill="none" xmlns="http://www.w3.org/2000/svg">
<mask id="path-1-inside-1" fill="white">
<path fill-rule="evenodd" clip-rule="evenodd" d="M5.59104 -0.000244141H0.591064V4.99978H5.59104V-0.000244141ZM5.59104 6.99991H0.591064V11.9999H5.59104V6.99991ZM7.59104 -0.000244141H12.591V4.99978H7.59104V-0.000244141ZM12.591 6.99991H7.59104V11.9999H12.591V6.99991Z"/>
</mask>
<path fill-rule="evenodd" clip-rule="evenodd" d="M5.59104 -0.000244141H0.591064V4.99978H5.59104V-0.000244141ZM5.59104 6.99991H0.591064V11.9999H5.59104V6.99991ZM7.59104 -0.000244141H12.591V4.99978H7.59104V-0.000244141ZM12.591 6.99991H7.59104V11.9999H12.591V6.99991Z" fill="black" fill-opacity="0.01"/>
<path d="M0.591064 -0.000244141V-1.00024H-0.408936V-0.000244141H0.591064ZM5.59104 -0.000244141H6.59104V-1.00024H5.59104V-0.000244141ZM0.591064 4.99978H-0.408936V5.99978H0.591064V4.99978ZM5.59104 4.99978V5.99978H6.59104V4.99978H5.59104ZM0.591064 6.99991V5.99991H-0.408936V6.99991H0.591064ZM5.59104 6.99991H6.59104V5.99991H5.59104V6.99991ZM0.591064 11.9999H-0.408936V12.9999H0.591064V11.9999ZM5.59104 11.9999V12.9999H6.59104V11.9999H5.59104ZM12.591 -0.000244141H13.591V-1.00024H12.591V-0.000244141ZM7.59104 -0.000244141V-1.00024H6.59104V-0.000244141H7.59104ZM12.591 4.99978V5.99978H13.591V4.99978H12.591ZM7.59104 4.99978H6.59104V5.99978H7.59104V4.99978ZM7.59104 6.99991V5.99991H6.59104V6.99991H7.59104ZM12.591 6.99991H13.591V5.99991H12.591V6.99991ZM7.59104 11.9999H6.59104V12.9999H7.59104V11.9999ZM12.591 11.9999V12.9999H13.591V11.9999H12.591ZM0.591064 0.999756H5.59104V-1.00024H0.591064V0.999756ZM1.59106 4.99978V-0.000244141H-0.408936V4.99978H1.59106ZM5.59104 3.99978H0.591064V5.99978H5.59104V3.99978ZM4.59104 -0.000244141V4.99978H6.59104V-0.000244141H4.59104ZM0.591064 7.99991H5.59104V5.99991H0.591064V7.99991ZM1.59106 11.9999V6.99991H-0.408936V11.9999H1.59106ZM5.59104 10.9999H0.591064V12.9999H5.59104V10.9999ZM4.59104 6.99991V11.9999H6.59104V6.99991H4.59104ZM12.591 -1.00024H7.59104V0.999756H12.591V-1.00024ZM13.591 4.99978V-0.000244141H11.591V4.99978H13.591ZM7.59104 5.99978H12.591V3.99978H7.59104V5.99978ZM6.59104 -0.000244141V4.99978H8.59104V-0.000244141H6.59104ZM7.59104 7.99991H12.591V5.99991H7.59104V7.99991ZM8.59104 11.9999V6.99991H6.59104V11.9999H8.59104ZM12.591 10.9999H7.59104V12.9999H12.591V10.9999ZM11.591 6.99991V11.9999H13.591V6.99991H11.591Z" fill="white" mask="url(#path-1-inside-1)"/>
</svg>
