<svg width="50" height="50" viewBox="0 0 50 50" fill="none" xmlns="http://www.w3.org/2000/svg">
<path d="M0.7818 37.2637C1.8243 36.2212 3.5145 36.2212 4.557 37.2637L12.7363 45.4431C13.7788 46.4855 13.7788 48.1757 12.7363 49.2182C11.6939 50.2606 10.0037 50.2606 8.9612 49.2182L0.7818 41.0388C-0.2606 39.9963 -0.2606 38.3061 0.7818 37.2637Z" fill="url(#paint0_linear)"/>
<path d="M1.67169 23.0269C2.71419 21.9844 4.40439 21.9844 5.44689 23.0269L26.8391 44.4191C27.8811 45.4616 27.8811 47.1517 26.8391 48.1942C25.7971 49.2367 24.1061 49.2367 23.0641 48.1942L1.67169 26.802C0.629293 25.7595 0.629293 24.0693 1.67169 23.0269Z" fill="url(#paint1_linear)"/>
<path d="M23.0269 1.67157C24.0689 0.629171 25.7589 0.629171 26.8019 1.67157L48.1939 23.0639C49.2369 24.1064 49.2369 25.7965 48.1939 26.839C47.1519 27.8815 45.4619 27.8815 44.4189 26.839L23.0269 5.44677C21.9839 4.40427 21.9839 2.71407 23.0269 1.67157Z" fill="url(#paint2_linear)"/>
<path d="M37.2639 0.7818C38.3059 -0.2606 39.9959 -0.2606 41.0389 0.7818L49.2179 8.9612C50.2609 10.0037 50.2609 11.6939 49.2179 12.7363C48.1759 13.7788 46.4859 13.7788 45.4429 12.7363L37.2639 4.557C36.2209 3.5145 36.2209 1.8243 37.2639 0.7818Z" fill="url(#paint3_linear)"/>
<path d="M34.272 22.6749C33.23 21.6324 31.54 21.6324 30.497 22.6749L22.814 30.3584C21.771 31.4009 21.771 33.0911 22.814 34.1335L31.923 43.2427C32.965 44.2852 34.655 44.2852 35.698 43.2427L37.583 41.3578L30.21 33.9853C29.132 32.907 29.132 31.1586 30.21 30.0803C31.288 29.002 33.037 29.002 34.115 30.0803L41.488 37.4528L43.381 35.5591C44.424 34.5167 44.424 32.8265 43.381 31.784L34.272 22.6749Z" fill="url(#paint4_linear)"/>
<path d="M29.041 36.5878C30.084 35.5453 31.774 35.5453 32.817 36.5878L40.996 44.7672C42.038 45.8097 42.038 47.4998 40.996 48.5423C39.954 49.5848 38.263 49.5848 37.221 48.5423L29.041 40.3629C27.999 39.3204 27.999 37.6303 29.041 36.5878Z" fill="url(#paint5_linear)"/>
<path d="M36.7251 28.905C37.7681 27.8625 39.4581 27.8625 40.5001 28.905L48.6801 37.0844C49.7221 38.1268 49.7221 39.817 48.6801 40.8595C47.6371 41.9019 45.9471 41.9019 44.9051 40.8595L36.7251 32.6801C35.6831 31.6376 35.6831 29.9475 36.7251 28.905Z" fill="url(#paint6_linear)"/>
<path d="M15.1893 26.6494C16.2318 27.6919 17.922 27.6919 18.9644 26.6494L26.648 18.9658C27.69 17.9234 27.69 16.2332 26.648 15.1907L17.5388 6.08156C16.4964 5.03906 14.8062 5.03906 13.7637 6.08156L11.8789 7.96636L19.2514 15.3389C20.3298 16.4173 20.3298 18.1656 19.2514 19.2439C18.1731 20.3223 16.4248 20.3223 15.3464 19.2439L7.97391 11.8714L6.08021 13.7651C5.03771 14.8076 5.03771 16.4978 6.08021 17.5402L15.1893 26.6494Z" fill="url(#paint7_linear)"/>
<path d="M20.4201 12.7363C19.3777 13.7788 17.6875 13.7788 16.645 12.7363L8.46571 4.55698C7.42321 3.51448 7.42321 1.82428 8.46571 0.781875C9.50811 -0.260625 11.1983 -0.260625 12.2408 0.781875L20.4201 8.96118C21.4631 10.0037 21.4631 11.6939 20.4201 12.7363Z" fill="url(#paint8_linear)"/>
<path d="M4.23308 8.18832V9.92302C4.23308 10.1185 4.29747 10.3085 4.41627 10.4638L5.86127 12.3518C6.18077 12.7693 6.79068 12.8203 7.17498 12.4616L7.88818 11.7959L12.7364 16.6441C13.7789 17.6865 13.7789 19.3767 12.7364 20.4192C11.6939 21.4616 10.0038 21.4616 8.96128 20.4192L0.781875 12.2398C-0.260625 11.1973 -0.260625 9.50712 0.781875 8.46472C1.72218 7.52442 3.18948 7.43222 4.23308 8.18832Z" fill="url(#paint9_linear)"/>
<defs>
<linearGradient id="paint0_linear" x1="42.939" y1="6.45759" x2="6.0127" y2="43.3843" gradientUnits="userSpaceOnUse">
<stop offset="0.00264941" stop-color="#783E97"/>
<stop offset="0.888832" stop-color="#32B0E5"/>
</linearGradient>
<linearGradient id="paint1_linear" x1="42.9391" y1="6.45757" x2="6.01279" y2="43.3843" gradientUnits="userSpaceOnUse">
<stop offset="0.00264941" stop-color="#783E97"/>
<stop offset="0.888832" stop-color="#32B0E5"/>
</linearGradient>
<linearGradient id="paint2_linear" x1="42.9389" y1="6.45757" x2="6.01258" y2="43.3843" gradientUnits="userSpaceOnUse">
<stop offset="0.00264941" stop-color="#783E97"/>
<stop offset="0.888832" stop-color="#32B0E5"/>
</linearGradient>
<linearGradient id="paint3_linear" x1="42.9389" y1="6.4576" x2="6.01264" y2="43.3843" gradientUnits="userSpaceOnUse">
<stop offset="0.00264941" stop-color="#783E97"/>
<stop offset="0.888832" stop-color="#32B0E5"/>
</linearGradient>
<linearGradient id="paint4_linear" x1="42.939" y1="6.45764" x2="6.01268" y2="43.3843" gradientUnits="userSpaceOnUse">
<stop offset="0.00264941" stop-color="#783E97"/>
<stop offset="0.888832" stop-color="#32B0E5"/>
</linearGradient>
<linearGradient id="paint5_linear" x1="42.939" y1="6.45759" x2="6.01273" y2="43.3843" gradientUnits="userSpaceOnUse">
<stop offset="0.00264941" stop-color="#783E97"/>
<stop offset="0.888832" stop-color="#32B0E5"/>
</linearGradient>
<linearGradient id="paint6_linear" x1="42.9391" y1="6.45765" x2="6.01281" y2="43.3844" gradientUnits="userSpaceOnUse">
<stop offset="0.00264941" stop-color="#783E97"/>
<stop offset="0.888832" stop-color="#32B0E5"/>
</linearGradient>
<linearGradient id="paint7_linear" x1="42.939" y1="6.45766" x2="6.01272" y2="43.3844" gradientUnits="userSpaceOnUse">
<stop offset="0.00264941" stop-color="#783E97"/>
<stop offset="0.888832" stop-color="#32B0E5"/>
</linearGradient>
<linearGradient id="paint8_linear" x1="42.9391" y1="6.45758" x2="6.0128" y2="43.3843" gradientUnits="userSpaceOnUse">
<stop offset="0.00264941" stop-color="#783E97"/>
<stop offset="0.888832" stop-color="#32B0E5"/>
</linearGradient>
<linearGradient id="paint9_linear" x1="42.939" y1="6.45762" x2="6.01268" y2="43.3843" gradientUnits="userSpaceOnUse">
<stop offset="0.00264941" stop-color="#783E97"/>
<stop offset="0.888832" stop-color="#32B0E5"/>
</linearGradient>
</defs>
</svg>
