<svg width="165" height="79" viewBox="0 0 165 79" fill="none" xmlns="http://www.w3.org/2000/svg">
<path d="M0.0112305 2.56796H5.02723V18H7.23523V2.56796H12.4192V0.431976H0.0112305V2.56796ZM14.772 18H16.98V10.584H24.732V18H26.94V0.431976H24.732V8.44797H16.98V0.431976H14.772V18ZM30.0532 14.928C30.0532 17.784 31.9492 18.168 33.5332 18.072C33.5332 18.072 40.5412 17.736 40.9012 17.664V15.936H33.7492C33.0532 15.936 32.2612 15.96 32.2612 14.688V10.44L39.9172 10.2V8.42397L32.2612 8.18398V3.93597C32.2612 3.28797 32.2612 2.59196 33.5092 2.59196H40.9012V0.815964C40.4932 0.767964 33.2932 0.431976 33.2932 0.431976C31.6612 0.383976 30.0532 1.17597 30.0532 3.69597V14.928ZM49.3344 6.21597C49.3344 8.08797 49.7424 10.488 53.6784 10.488H56.8704C58.3584 10.488 58.7184 11.376 58.7184 12.648V14.088C58.7184 15.984 56.8944 16.056 55.9104 16.056C53.6784 16.056 50.8224 15.888 49.8624 15.792V17.568C51.1824 17.856 54.4224 18.192 56.0784 18.192C58.4544 18.192 60.9264 17.616 60.9264 14.04V12.552C60.9264 10.584 60.3504 8.27997 57.0864 8.27997H53.8464C52.4304 8.27997 51.5424 8.06396 51.5424 6.09596V4.70396C51.5424 2.51996 52.7184 2.37597 54.3504 2.42397C54.5904 2.42397 58.7664 2.56797 60.3024 2.66397V0.911972C59.2704 0.719972 55.7184 0.287964 54.0864 0.287964C51.3984 0.311964 49.3344 1.15197 49.3344 4.63197V6.21597ZM62.4487 2.56796H67.4647V18H69.6727V2.56796H74.8567V0.431976H62.4487V2.56796ZM73.6759 18H76.2439L77.7319 13.392H84.4039L85.8439 18H88.3639L82.3159 0.431976H79.9879L73.6759 18ZM78.4519 11.28L81.1399 3.62396L83.7319 11.28H78.4519ZM90.6629 18H92.8949V4.58397L101.631 18H103.839V0.431976H101.631V13.896L92.9189 0.431976H90.6629V18ZM106.952 18H113.744C118.28 18 119.936 13.608 119.936 9.28796C119.936 5.49596 119.048 0.431976 113.744 0.431976H106.952V18ZM109.16 15.84V2.54398H113.672C116.216 2.54398 117.728 4.24798 117.728 9.26398C117.728 12.936 116.576 15.84 113.672 15.84H109.16ZM120.668 18H123.236L124.724 13.392H131.396L132.836 18H135.356L129.308 0.431976H126.98L120.668 18ZM125.444 11.28L128.132 3.62396L130.724 11.28H125.444ZM137.247 18H139.455V10.632L143.751 10.968L147.231 18H149.655L146.055 10.848C146.823 10.704 149.055 10.272 149.055 5.78397C149.055 1.72797 147.207 0.431976 144.783 0.431976H137.247V18ZM139.455 8.75996V2.56796H144.711C145.767 2.56796 146.823 2.95197 146.823 5.78397C146.823 8.68797 145.815 8.75996 144.711 8.75996H139.455ZM151.952 18H158.744C163.28 18 164.936 13.608 164.936 9.28796C164.936 5.49596 164.048 0.431976 158.744 0.431976H151.952V18ZM154.16 15.84V2.54398H158.672C161.216 2.54398 162.728 4.24798 162.728 9.26398C162.728 12.936 161.576 15.84 158.672 15.84H154.16ZM16.2603 48H18.4683V40.44L26.1243 40.2V38.424L18.4683 38.184V33.936C18.4683 33.288 18.4683 32.592 19.7163 32.592H27.1083V30.816C26.7003 30.768 19.5003 30.432 19.5003 30.432C17.8203 30.384 16.2603 31.224 16.2603 33.72V48ZM29.0727 39.336C29.0727 47.328 31.6407 48.096 35.9607 48.096C40.2807 48.096 42.8007 47.088 42.8007 39.336C42.8007 31.104 40.1127 30.312 35.9607 30.312C31.9287 30.312 29.0727 31.104 29.0727 39.336ZM31.2807 39.336C31.2807 32.592 32.9367 32.448 35.9607 32.448C39.0567 32.448 40.5927 32.64 40.5927 39.336C40.5927 44.976 39.4647 45.96 35.9607 45.96C32.3847 45.96 31.2807 45.144 31.2807 39.336ZM45.1726 48H47.3806V40.632L51.6766 40.968L55.1566 48H57.5806L53.9806 40.848C54.7486 40.704 56.9806 40.272 56.9806 35.784C56.9806 31.728 55.1326 30.432 52.7086 30.432H45.1726V48ZM47.3806 38.76V32.568H52.6366C53.6926 32.568 54.7486 32.952 54.7486 35.784C54.7486 38.688 53.7406 38.76 52.6366 38.76H47.3806ZM65.3255 39.168C65.3255 44.448 66.7655 48.144 71.2055 48.144C72.8135 48.168 75.4775 47.952 77.1335 47.592V45.84C77.1335 45.84 73.9415 46.008 71.4215 46.008C68.3495 46.008 67.5335 43.152 67.5335 39.216C67.5335 33.528 68.5655 32.376 71.4215 32.376C73.6775 32.376 77.1095 32.664 77.1335 32.664V30.912C75.4055 30.528 72.7895 30.24 71.2055 30.24C66.4295 30.24 65.3255 33.552 65.3255 39.168ZM79.2979 48H81.5059V40.632L85.8019 40.968L89.2819 48H91.7059L88.1059 40.848C88.8739 40.704 91.1059 40.272 91.1059 35.784C91.1059 31.728 89.2579 30.432 86.8339 30.432H79.2979V48ZM81.5059 38.76V32.568H86.7619C87.8179 32.568 88.8739 32.952 88.8739 35.784C88.8739 38.688 87.8659 38.76 86.7619 38.76H81.5059ZM92.5079 30.432L98.0279 41.976V48H100.236V41.976L106.236 30.432H103.812L99.1319 39.432L94.9079 30.432H92.5079ZM108.149 48H110.357V40.56C110.477 40.632 114.509 41.04 115.469 41.04C117.317 41.064 119.861 40.728 119.861 35.616C119.861 31.2 117.437 30.432 115.469 30.432H108.149V48ZM110.357 38.928V32.568H115.397C116.237 32.568 117.581 32.784 117.629 35.64C117.629 38.52 116.597 38.928 115.397 38.928H110.357ZM121.828 32.568H126.844V48H129.052V32.568H134.236V30.432H121.828V32.568ZM135.784 39.336C135.784 47.328 138.352 48.096 142.672 48.096C146.992 48.096 149.512 47.088 149.512 39.336C149.512 31.104 146.824 30.312 142.672 30.312C138.64 30.312 135.784 31.104 135.784 39.336ZM137.992 39.336C137.992 32.592 139.648 32.448 142.672 32.448C145.768 32.448 147.304 32.64 147.304 39.336C147.304 44.976 146.176 45.96 142.672 45.96C139.096 45.96 137.992 45.144 137.992 39.336ZM15.5091 69.168C15.5091 74.448 16.9491 78.144 21.3891 78.144C22.9971 78.168 25.6611 77.952 27.3171 77.592V75.84C27.3171 75.84 24.1251 76.008 21.6051 76.008C18.5331 76.008 17.7171 73.152 17.7171 69.216C17.7171 63.528 18.7491 62.376 21.6051 62.376C23.8611 62.376 27.2931 62.664 27.3171 62.664V60.912C25.5891 60.528 22.9731 60.24 21.3891 60.24C16.6131 60.24 15.5091 63.552 15.5091 69.168ZM28.8266 69.336C28.8266 77.328 31.3946 78.096 35.7146 78.096C40.0346 78.096 42.5546 77.088 42.5546 69.336C42.5546 61.104 39.8666 60.312 35.7146 60.312C31.6826 60.312 28.8266 61.104 28.8266 69.336ZM31.0346 69.336C31.0346 62.592 32.6906 62.448 35.7146 62.448C38.8106 62.448 40.3466 62.64 40.3466 69.336C40.3466 74.976 39.2186 75.96 35.7146 75.96C32.1386 75.96 31.0346 75.144 31.0346 69.336ZM45.3345 78H47.5665V64.584L56.3025 78H58.5105V60.432H56.3025V73.896L47.5905 60.432H45.3345V78ZM61.2876 66.216C61.2876 68.088 61.6956 70.488 65.6316 70.488H68.8236C70.3116 70.488 70.6716 71.376 70.6716 72.648V74.088C70.6716 75.984 68.8476 76.056 67.8636 76.056C65.6316 76.056 62.7756 75.888 61.8156 75.792V77.568C63.1356 77.856 66.3756 78.192 68.0316 78.192C70.4076 78.192 72.8796 77.616 72.8796 74.04V72.552C72.8796 70.584 72.3036 68.28 69.0396 68.28H65.7996C64.3836 68.28 63.4956 68.064 63.4956 66.096V64.704C63.4956 62.52 64.6716 62.376 66.3036 62.424C66.5436 62.424 70.7196 62.568 72.2556 62.664V60.912C71.2236 60.72 67.6716 60.288 66.0396 60.288C63.3516 60.312 61.2876 61.152 61.2876 64.632V66.216ZM75.6626 70.32C75.6626 78.312 78.9746 78.12 82.2389 78.12C85.1429 78.12 88.6949 78.072 88.6949 70.32V60.432H86.4629V70.32C86.4629 75.744 84.5909 75.984 82.2389 75.984C79.5269 75.984 77.8706 75.912 77.8706 70.32V60.432H75.6626V70.32ZM91.8109 74.88C91.8109 77.592 93.5149 78 95.1949 78H102.491V75.864H95.5069C94.8109 75.864 94.0189 75.888 94.0189 74.616V60.432H91.8109V74.88ZM101.379 62.568H106.395V78H108.603V62.568H113.787V60.432H101.379V62.568ZM116.139 78H118.347V60.432H116.139V78ZM121.46 78H123.692V64.584L132.428 78H134.636V60.432H132.428V73.896L123.716 60.432H121.46V78ZM137.197 69.12C137.197 74.208 137.941 78.216 142.909 78.12C145.021 78.12 146.437 77.4 147.301 76.824L147.829 78H149.461V68.568C148.885 68.52 148.333 68.496 147.829 68.496C145.957 68.496 144.637 68.784 143.653 69.096V70.536H147.253V74.904C147.253 74.904 144.853 76.032 143.077 76.008C140.269 75.96 139.405 74.304 139.405 69.168C139.405 64.464 140.029 62.352 143.053 62.352C145.525 62.352 148.981 62.664 149.125 62.664V60.936C147.205 60.528 144.469 60.24 142.837 60.24C138.061 60.24 137.197 64.248 137.197 69.12Z" fill="white"/>
</svg>
