<svg width="19" height="15" viewBox="0 0 19 15" fill="none" xmlns="http://www.w3.org/2000/svg">
<path d="M17.5913 2.539C16.9963 2.8 16.3623 2.973 15.7013 3.057C16.3813 2.651 16.9003 2.013 17.1443 1.244C16.5103 1.622 15.8103 1.889 15.0643 2.038C14.4623 1.397 13.6043 1 12.6683 1C10.8523 1 9.3903 2.474 9.3903 4.281C9.3903 4.541 9.4123 4.791 9.46631 5.029C6.73931 4.896 4.32631 3.589 2.70531 1.598C2.42231 2.089 2.25631 2.651 2.25631 3.256C2.25631 4.392 2.84131 5.399 3.71331 5.982C3.1863 5.972 2.66931 5.819 2.23131 5.578C2.23131 5.588 2.23131 5.601 2.23131 5.614C2.23131 7.208 3.3683 8.532 4.85931 8.837C4.5923 8.91 4.30131 8.945 3.99931 8.945C3.78931 8.945 3.57731 8.933 3.3783 8.889C3.80331 10.188 5.00931 11.143 6.44331 11.174C5.32731 12.047 3.91031 12.573 2.37631 12.573C2.10731 12.573 1.84931 12.561 1.59131 12.528C3.0443 13.465 4.76631 14 6.62331 14C12.6593 14 15.9593 9 15.9593 4.666C15.9593 4.521 15.9543 4.381 15.9473 4.242C16.5983 3.78 17.1453 3.203 17.5913 2.539Z" fill="white"/>
</svg>
