<svg width="143" height="102" viewBox="0 0 143 102" fill="none" xmlns="http://www.w3.org/2000/svg">
<path d="M23.9668 9L21.0605 1.40601H21.0137C21.0684 2.00801 21.0957 2.72299 21.0957 3.55099V9H20.1758V0.43399H21.6758L24.3887 7.5H24.4355L27.1719 0.43399H28.6602V9H27.6641V3.48001C27.6641 2.84801 27.6914 2.16 27.7461 1.418H27.6992L24.7695 9H23.9668ZM31.8418 9H30.8691V2.578H31.8418V9ZM30.7871 0.838013C30.7871 0.615013 30.8418 0.45299 30.9512 0.35199C31.0605 0.24599 31.1973 0.192993 31.3613 0.192993C31.5176 0.192993 31.6523 0.24599 31.7656 0.35199C31.8789 0.45699 31.9355 0.619013 31.9355 0.838013C31.9355 1.05701 31.8789 1.22099 31.7656 1.32999C31.6523 1.43599 31.5176 1.48801 31.3613 1.48801C31.1973 1.48801 31.0605 1.43599 30.9512 1.32999C30.8418 1.22099 30.7871 1.05701 30.7871 0.838013ZM38.2988 9V4.84601C38.2988 4.32201 38.1797 3.93201 37.9414 3.67401C37.7031 3.41601 37.3301 3.28699 36.8223 3.28699C36.1504 3.28699 35.6582 3.469 35.3457 3.832C35.0332 4.195 34.877 4.79501 34.877 5.63101V9H33.9043V2.578H34.6953L34.8535 3.457H34.9004C35.0996 3.141 35.3789 2.89601 35.7383 2.72501C36.0977 2.54901 36.498 2.461 36.9395 2.461C37.7129 2.461 38.2949 2.64801 38.6855 3.02301C39.0762 3.39501 39.2715 3.99 39.2715 4.811V9H38.2988ZM42.248 9H41.2754V2.578H42.248V9ZM41.1934 0.838013C41.1934 0.615013 41.248 0.45299 41.3574 0.35199C41.4668 0.24599 41.6035 0.192993 41.7676 0.192993C41.9238 0.192993 42.0586 0.24599 42.1719 0.35199C42.2852 0.45699 42.3418 0.619013 42.3418 0.838013C42.3418 1.05701 42.2852 1.22099 42.1719 1.32999C42.0586 1.43599 41.9238 1.48801 41.7676 1.48801C41.6035 1.48801 41.4668 1.43599 41.3574 1.32999C41.248 1.22099 41.1934 1.05701 41.1934 0.838013ZM48.7051 9V4.84601C48.7051 4.32201 48.5859 3.93201 48.3477 3.67401C48.1094 3.41601 47.7363 3.28699 47.2285 3.28699C46.5566 3.28699 46.0645 3.469 45.752 3.832C45.4395 4.195 45.2832 4.79501 45.2832 5.63101V9H44.3105V2.578H45.1016L45.2598 3.457H45.3066C45.5059 3.141 45.7852 2.89601 46.1445 2.72501C46.5039 2.54901 46.9043 2.461 47.3457 2.461C48.1191 2.461 48.7012 2.64801 49.0918 3.02301C49.4824 3.39501 49.6777 3.99 49.6777 4.811V9H48.7051ZM56.9375 2.578V3.19299L55.748 3.33401C55.8574 3.47101 55.9551 3.64999 56.041 3.87299C56.127 4.09199 56.1699 4.34 56.1699 4.617C56.1699 5.246 55.9551 5.74799 55.5254 6.12299C55.0957 6.49799 54.5059 6.686 53.7559 6.686C53.5645 6.686 53.3848 6.67001 53.2168 6.63901C52.8027 6.85701 52.5957 7.133 52.5957 7.465C52.5957 7.641 52.668 7.77099 52.8125 7.85699C52.957 7.93899 53.2051 7.98001 53.5566 7.98001H54.6934C55.3887 7.98001 55.9219 8.12701 56.293 8.42001C56.668 8.71301 56.8555 9.13899 56.8555 9.69699C56.8555 10.408 56.5703 10.949 56 11.32C55.4297 11.695 54.5977 11.883 53.5039 11.883C52.6641 11.883 52.0156 11.727 51.5586 11.414C51.1055 11.102 50.8789 10.66 50.8789 10.09C50.8789 9.699 51.0039 9.36099 51.2539 9.07599C51.5039 8.79099 51.8555 8.598 52.3086 8.496C52.1445 8.422 52.0059 8.30699 51.8926 8.14999C51.7832 7.99399 51.7285 7.81201 51.7285 7.60501C51.7285 7.37101 51.791 7.16599 51.916 6.98999C52.041 6.81399 52.2383 6.64501 52.5078 6.48001C52.1758 6.34401 51.9043 6.11099 51.6934 5.78299C51.4863 5.45499 51.3828 5.07999 51.3828 4.65799C51.3828 3.95499 51.5938 3.414 52.0156 3.035C52.4375 2.652 53.0352 2.461 53.8086 2.461C54.1445 2.461 54.4473 2.5 54.7168 2.578H56.9375ZM51.8164 10.078C51.8164 10.426 51.9629 10.689 52.2559 10.869C52.5488 11.049 52.9688 11.139 53.5156 11.139C54.332 11.139 54.9355 11.016 55.3262 10.77C55.7207 10.527 55.918 10.197 55.918 9.77899C55.918 9.43199 55.8105 9.18901 55.5957 9.05301C55.3809 8.92001 54.9766 8.854 54.3828 8.854H53.2168C52.7754 8.854 52.4316 8.95901 52.1855 9.17001C51.9395 9.38101 51.8164 9.684 51.8164 10.078ZM52.3438 4.63501C52.3438 5.08401 52.4707 5.42399 52.7246 5.65399C52.9785 5.88499 53.332 6 53.7852 6C54.7344 6 55.209 5.539 55.209 4.617C55.209 3.652 54.7285 3.17001 53.7676 3.17001C53.3105 3.17001 52.959 3.293 52.7129 3.539C52.4668 3.785 52.3438 4.15001 52.3438 4.63501ZM68.955 4.70499C68.955 6.07599 68.607 7.154 67.912 7.939C67.221 8.725 66.2578 9.117 65.0234 9.117C63.7617 9.117 62.7871 8.73201 62.0996 7.96301C61.416 7.18901 61.0742 6.09999 61.0742 4.69299C61.0742 3.29899 61.418 2.219 62.1055 1.453C62.793 0.684003 63.7695 0.299011 65.0352 0.299011C66.2656 0.299011 67.227 0.689008 67.918 1.47101C68.609 2.25201 68.955 3.32999 68.955 4.70499ZM62.1289 4.70499C62.1289 5.86499 62.375 6.74599 62.8672 7.34799C63.3633 7.94499 64.082 8.24399 65.0234 8.24399C65.9727 8.24399 66.6895 7.94499 67.174 7.34799C67.658 6.74999 67.9 5.86899 67.9 4.70499C67.9 3.55299 67.658 2.68 67.174 2.086C66.6934 1.488 65.9805 1.189 65.0352 1.189C64.0859 1.189 63.3633 1.49001 62.8672 2.09201C62.375 2.68901 62.1289 3.56099 62.1289 4.70499ZM73.713 9.117C73.295 9.117 72.912 9.04101 72.564 8.88901C72.221 8.73201 71.932 8.49401 71.697 8.17401H71.627C71.674 8.54901 71.697 8.90399 71.697 9.23999V11.883H70.725V2.578H71.516L71.65 3.457H71.697C71.947 3.105 72.238 2.85201 72.57 2.69501C72.902 2.53901 73.283 2.461 73.713 2.461C74.564 2.461 75.221 2.75201 75.682 3.33401C76.146 3.91601 76.379 4.73199 76.379 5.78299C76.379 6.83799 76.143 7.65799 75.67 8.24399C75.201 8.82599 74.549 9.117 73.713 9.117ZM73.572 3.28699C72.916 3.28699 72.441 3.469 72.148 3.832C71.855 4.195 71.705 4.77301 71.697 5.56601V5.78299C71.697 6.68599 71.848 7.33199 72.148 7.72299C72.449 8.10899 72.932 8.30301 73.596 8.30301C74.15 8.30301 74.584 8.078 74.896 7.629C75.213 7.18 75.371 6.561 75.371 5.771C75.371 4.971 75.213 4.35701 74.896 3.93201C74.584 3.50201 74.143 3.28699 73.572 3.28699ZM80.797 9.117C79.848 9.117 79.098 8.828 78.547 8.25C78 7.672 77.727 6.86901 77.727 5.84201C77.727 4.80701 77.98 3.984 78.488 3.375C79 2.766 79.686 2.461 80.545 2.461C81.35 2.461 81.986 2.727 82.455 3.258C82.924 3.785 83.158 4.48201 83.158 5.35001V5.965H78.734C78.754 6.719 78.943 7.29101 79.303 7.68201C79.666 8.07201 80.176 8.26801 80.832 8.26801C81.523 8.26801 82.207 8.12301 82.883 7.83401V8.70099C82.539 8.84999 82.213 8.95501 81.904 9.01801C81.6 9.08401 81.23 9.117 80.797 9.117ZM80.533 3.27499C80.018 3.27499 79.605 3.44299 79.297 3.77899C78.992 4.11499 78.812 4.58001 78.758 5.17401H82.115C82.115 4.56101 81.979 4.09201 81.705 3.76801C81.432 3.43901 81.041 3.27499 80.533 3.27499ZM87.752 2.461C88.037 2.461 88.293 2.48401 88.52 2.53101L88.385 3.43399C88.119 3.37499 87.885 3.34601 87.682 3.34601C87.162 3.34601 86.717 3.557 86.346 3.979C85.979 4.4 85.795 4.92599 85.795 5.55499V9H84.822V2.578H85.625L85.736 3.76801H85.783C86.021 3.35001 86.309 3.02699 86.645 2.80099C86.98 2.57399 87.35 2.461 87.752 2.461ZM93.67 9L93.477 8.086H93.43C93.109 8.488 92.789 8.76201 92.469 8.90601C92.152 9.04701 91.756 9.117 91.279 9.117C90.643 9.117 90.143 8.953 89.779 8.625C89.42 8.297 89.24 7.83001 89.24 7.22501C89.24 5.92801 90.277 5.248 92.352 5.186L93.441 5.14999V4.75201C93.441 4.24801 93.332 3.87701 93.113 3.63901C92.898 3.39601 92.553 3.27499 92.076 3.27499C91.541 3.27499 90.936 3.43901 90.26 3.76801L89.961 3.02301C90.277 2.85201 90.623 2.71699 90.998 2.61899C91.377 2.52099 91.756 2.47299 92.135 2.47299C92.9 2.47299 93.467 2.64299 93.834 2.98199C94.205 3.32199 94.391 3.867 94.391 4.617V9H93.67ZM91.473 8.314C92.078 8.314 92.553 8.14801 92.896 7.81601C93.244 7.48401 93.418 7.02 93.418 6.422V5.84201L92.445 5.883C91.672 5.91 91.113 6.031 90.77 6.246C90.43 6.457 90.26 6.78699 90.26 7.23599C90.26 7.58799 90.365 7.855 90.576 8.039C90.791 8.223 91.09 8.314 91.473 8.314ZM98.475 8.314C98.646 8.314 98.812 8.30299 98.973 8.27899C99.133 8.25199 99.26 8.22499 99.354 8.19699V8.94101C99.248 8.99201 99.092 9.033 98.885 9.064C98.682 9.1 98.498 9.117 98.334 9.117C97.092 9.117 96.471 8.46299 96.471 7.15399V3.33401H95.551V2.86499L96.471 2.461L96.881 1.09H97.443V2.578H99.307V3.33401H97.443V7.11301C97.443 7.50001 97.535 7.797 97.719 8.004C97.902 8.211 98.154 8.314 98.475 8.314ZM101.615 9H100.643V2.578H101.615V9ZM100.561 0.838013C100.561 0.615013 100.615 0.45299 100.725 0.35199C100.834 0.24599 100.971 0.192993 101.135 0.192993C101.291 0.192993 101.426 0.24599 101.539 0.35199C101.652 0.45699 101.709 0.619013 101.709 0.838013C101.709 1.05701 101.652 1.22099 101.539 1.32999C101.426 1.43599 101.291 1.48801 101.135 1.48801C100.971 1.48801 100.834 1.43599 100.725 1.32999C100.615 1.22099 100.561 1.05701 100.561 0.838013ZM109.221 5.78299C109.221 6.82999 108.957 7.64801 108.43 8.23801C107.902 8.82401 107.174 9.117 106.244 9.117C105.67 9.117 105.16 8.98201 104.715 8.71301C104.27 8.44301 103.926 8.05701 103.684 7.55301C103.441 7.04901 103.32 6.45899 103.32 5.78299C103.32 4.73599 103.582 3.922 104.105 3.34C104.629 2.754 105.355 2.461 106.285 2.461C107.184 2.461 107.896 2.75999 108.424 3.35699C108.955 3.95499 109.221 4.76399 109.221 5.78299ZM104.328 5.78299C104.328 6.60399 104.492 7.22899 104.82 7.65799C105.148 8.08799 105.631 8.30301 106.268 8.30301C106.904 8.30301 107.387 8.09 107.715 7.664C108.047 7.234 108.213 6.60699 108.213 5.78299C108.213 4.96699 108.047 4.34799 107.715 3.92599C107.387 3.49999 106.9 3.28699 106.256 3.28699C105.619 3.28699 105.139 3.496 104.814 3.914C104.49 4.332 104.328 4.95499 104.328 5.78299ZM115.326 9V4.84601C115.326 4.32201 115.207 3.93201 114.969 3.67401C114.73 3.41601 114.357 3.28699 113.85 3.28699C113.178 3.28699 112.686 3.469 112.373 3.832C112.061 4.195 111.904 4.79501 111.904 5.63101V9H110.932V2.578H111.723L111.881 3.457H111.928C112.127 3.141 112.406 2.89601 112.766 2.72501C113.125 2.54901 113.525 2.461 113.967 2.461C114.74 2.461 115.322 2.64801 115.713 3.02301C116.104 3.39501 116.299 3.99 116.299 4.811V9H115.326ZM122.445 7.24799C122.445 7.84599 122.223 8.30701 121.777 8.63101C121.332 8.95501 120.707 9.117 119.902 9.117C119.051 9.117 118.387 8.98201 117.91 8.71301V7.811C118.219 7.967 118.549 8.08999 118.9 8.17999C119.256 8.26999 119.598 8.314 119.926 8.314C120.434 8.314 120.824 8.234 121.098 8.07401C121.371 7.91001 121.508 7.66199 121.508 7.32999C121.508 7.07999 121.398 6.86701 121.18 6.69101C120.965 6.51201 120.543 6.30099 119.914 6.05899C119.316 5.83599 118.891 5.643 118.637 5.479C118.387 5.311 118.199 5.121 118.074 4.91C117.953 4.699 117.893 4.44699 117.893 4.15399C117.893 3.63099 118.105 3.219 118.531 2.918C118.957 2.613 119.541 2.461 120.283 2.461C120.975 2.461 121.65 2.602 122.311 2.883L121.965 3.67401C121.32 3.40801 120.736 3.27499 120.213 3.27499C119.752 3.27499 119.404 3.348 119.17 3.492C118.936 3.637 118.818 3.836 118.818 4.09C118.818 4.262 118.861 4.40799 118.947 4.52899C119.037 4.64999 119.18 4.766 119.375 4.875C119.57 4.984 119.945 5.14301 120.5 5.35001C121.262 5.62701 121.775 5.90599 122.041 6.18799C122.311 6.46899 122.445 6.82199 122.445 7.24799ZM2.76759 39V30.434H3.76368V39H2.76759ZM9.78709 31.201C8.84569 31.201 8.10158 31.516 7.55468 32.145C7.01168 32.77 6.74018 33.627 6.74018 34.717C6.74018 35.838 7.00198 36.705 7.52538 37.318C8.05268 37.928 8.80268 38.232 9.77538 38.232C10.373 38.232 11.0547 38.125 11.8203 37.91V38.783C11.2266 39.006 10.4941 39.117 9.62299 39.117C8.36129 39.117 7.38668 38.734 6.69918 37.969C6.01558 37.203 5.67379 36.115 5.67379 34.705C5.67379 33.822 5.83788 33.049 6.16599 32.385C6.49798 31.721 6.97458 31.209 7.59568 30.85C8.22068 30.49 8.95509 30.311 9.79879 30.311C10.6973 30.311 11.4824 30.475 12.1543 30.803L11.7324 31.658C11.084 31.354 10.4355 31.201 9.78709 31.201ZM21.125 34.705C21.125 36.076 20.7773 37.154 20.082 37.939C19.3906 38.725 18.4277 39.117 17.1934 39.117C15.9316 39.117 14.957 38.732 14.2695 37.963C13.5859 37.189 13.2441 36.1 13.2441 34.693C13.2441 33.299 13.5879 32.219 14.2754 31.453C14.9629 30.684 15.9395 30.299 17.2051 30.299C18.4355 30.299 19.3965 30.689 20.0879 31.471C20.7793 32.252 21.125 33.33 21.125 34.705ZM14.2988 34.705C14.2988 35.865 14.5449 36.746 15.0371 37.348C15.5332 37.945 16.252 38.244 17.1934 38.244C18.1426 38.244 18.8594 37.945 19.3438 37.348C19.8281 36.75 20.0703 35.869 20.0703 34.705C20.0703 33.553 19.8281 32.68 19.3438 32.086C18.8633 31.488 18.1504 31.189 17.2051 31.189C16.2559 31.189 15.5332 31.49 15.0371 32.092C14.5449 32.689 14.2988 33.561 14.2988 34.705ZM25.4609 35.713C25.4609 34.678 25.6113 33.709 25.9121 32.807C26.2168 31.904 26.6543 31.113 27.2246 30.434H28.1738C27.6113 31.188 27.1875 32.016 26.9023 32.918C26.6211 33.82 26.4805 34.748 26.4805 35.701C26.4805 36.639 26.625 37.555 26.9141 38.449C27.2031 39.344 27.6191 40.16 28.1621 40.898H27.2246C26.6504 40.234 26.2129 39.459 25.9121 38.572C25.6113 37.686 25.4609 36.732 25.4609 35.713ZM29.709 39V30.434H30.7051V39H29.709ZM37.3086 39V34.846C37.3086 34.322 37.1895 33.932 36.9512 33.674C36.7129 33.416 36.3398 33.287 35.832 33.287C35.1602 33.287 34.668 33.469 34.3555 33.832C34.043 34.195 33.8867 34.795 33.8867 35.631V39H32.9141V32.578H33.7051L33.8633 33.457H33.9102C34.1094 33.141 34.3887 32.896 34.748 32.725C35.1074 32.549 35.5078 32.461 35.9492 32.461C36.7227 32.461 37.3047 32.648 37.6953 33.023C38.0859 33.395 38.2812 33.99 38.2812 34.811V39H37.3086ZM41.2578 39H40.2852V32.578H41.2578V39ZM40.2031 30.838C40.2031 30.615 40.2578 30.453 40.3672 30.352C40.4766 30.246 40.6133 30.193 40.7773 30.193C40.9336 30.193 41.0684 30.246 41.1816 30.352C41.2949 30.457 41.3516 30.619 41.3516 30.838C41.3516 31.057 41.2949 31.221 41.1816 31.33C41.0684 31.436 40.9336 31.488 40.7773 31.488C40.6133 31.488 40.4766 31.436 40.3672 31.33C40.2578 31.221 40.2031 31.057 40.2031 30.838ZM45.3945 38.314C45.5664 38.314 45.7324 38.303 45.8926 38.279C46.0527 38.252 46.1797 38.225 46.2734 38.197V38.941C46.168 38.992 46.0117 39.033 45.8047 39.064C45.6016 39.1 45.418 39.117 45.2539 39.117C44.0117 39.117 43.3906 38.463 43.3906 37.154V33.334H42.4707V32.865L43.3906 32.461L43.8008 31.09H44.3633V32.578H46.2266V33.334H44.3633V37.113C44.3633 37.5 44.4551 37.797 44.6387 38.004C44.8223 38.211 45.0742 38.314 45.3945 38.314ZM48.5352 39H47.5625V32.578H48.5352V39ZM47.4805 30.838C47.4805 30.615 47.5352 30.453 47.6445 30.352C47.7539 30.246 47.8906 30.193 48.0547 30.193C48.2109 30.193 48.3457 30.246 48.459 30.352C48.5723 30.457 48.6289 30.619 48.6289 30.838C48.6289 31.057 48.5723 31.221 48.459 31.33C48.3457 31.436 48.2109 31.488 48.0547 31.488C47.8906 31.488 47.7539 31.436 47.6445 31.33C47.5352 31.221 47.4805 31.057 47.4805 30.838ZM54.5469 39L54.3535 38.086H54.3066C53.9863 38.488 53.666 38.762 53.3457 38.906C53.0293 39.047 52.6328 39.117 52.1562 39.117C51.5195 39.117 51.0195 38.953 50.6562 38.625C50.2969 38.297 50.1172 37.83 50.1172 37.225C50.1172 35.928 51.1543 35.248 53.2285 35.186L54.3184 35.15V34.752C54.3184 34.248 54.209 33.877 53.9902 33.639C53.7754 33.396 53.4297 33.275 52.9531 33.275C52.418 33.275 51.8125 33.439 51.1367 33.768L50.8379 33.023C51.1543 32.852 51.5 32.717 51.875 32.619C52.2539 32.521 52.6328 32.473 53.0117 32.473C53.7773 32.473 54.3438 32.643 54.7109 32.982C55.082 33.322 55.2676 33.867 55.2676 34.617V39H54.5469ZM52.3496 38.314C52.9551 38.314 53.4297 38.148 53.7734 37.816C54.1211 37.484 54.2949 37.02 54.2949 36.422V35.842L53.3223 35.883C52.5488 35.91 51.9902 36.031 51.6465 36.246C51.3066 36.457 51.1367 36.787 51.1367 37.236C51.1367 37.588 51.2422 37.855 51.4531 38.039C51.668 38.223 51.9668 38.314 52.3496 38.314ZM58.25 39H57.2773V29.883H58.25V39ZM67.244 31.201C66.3027 31.201 65.5586 31.516 65.0117 32.145C64.4688 32.77 64.1973 33.627 64.1973 34.717C64.1973 35.838 64.459 36.705 64.9824 37.318C65.5098 37.928 66.2598 38.232 67.232 38.232C67.83 38.232 68.512 38.125 69.277 37.91V38.783C68.684 39.006 67.951 39.117 67.08 39.117C65.8184 39.117 64.8438 38.734 64.1562 37.969C63.4727 37.203 63.1309 36.115 63.1309 34.705C63.1309 33.822 63.2949 33.049 63.623 32.385C63.9551 31.721 64.4316 31.209 65.0527 30.85C65.6777 30.49 66.4121 30.311 67.256 30.311C68.154 30.311 68.939 30.475 69.611 30.803L69.189 31.658C68.541 31.354 67.893 31.201 67.244 31.201ZM76.543 35.783C76.543 36.83 76.279 37.648 75.752 38.238C75.225 38.824 74.496 39.117 73.566 39.117C72.992 39.117 72.482 38.982 72.037 38.713C71.592 38.443 71.248 38.057 71.006 37.553C70.764 37.049 70.643 36.459 70.643 35.783C70.643 34.736 70.904 33.922 71.428 33.34C71.951 32.754 72.678 32.461 73.607 32.461C74.506 32.461 75.219 32.76 75.746 33.357C76.277 33.955 76.543 34.764 76.543 35.783ZM71.65 35.783C71.65 36.604 71.814 37.229 72.143 37.658C72.471 38.088 72.953 38.303 73.59 38.303C74.227 38.303 74.709 38.09 75.037 37.664C75.369 37.234 75.535 36.607 75.535 35.783C75.535 34.967 75.369 34.348 75.037 33.926C74.709 33.5 74.223 33.287 73.578 33.287C72.941 33.287 72.461 33.496 72.137 33.914C71.812 34.332 71.65 34.955 71.65 35.783ZM79.227 39H78.254V32.578H79.227V39ZM78.172 30.838C78.172 30.615 78.227 30.453 78.336 30.352C78.445 30.246 78.582 30.193 78.746 30.193C78.902 30.193 79.037 30.246 79.15 30.352C79.264 30.457 79.32 30.619 79.32 30.838C79.32 31.057 79.264 31.221 79.15 31.33C79.037 31.436 78.902 31.488 78.746 31.488C78.582 31.488 78.445 31.436 78.336 31.33C78.227 31.221 78.172 31.057 78.172 30.838ZM85.684 39V34.846C85.684 34.322 85.564 33.932 85.326 33.674C85.088 33.416 84.715 33.287 84.207 33.287C83.535 33.287 83.043 33.469 82.73 33.832C82.418 34.195 82.262 34.795 82.262 35.631V39H81.289V32.578H82.08L82.238 33.457H82.285C82.484 33.141 82.764 32.896 83.123 32.725C83.482 32.549 83.883 32.461 84.324 32.461C85.098 32.461 85.68 32.648 86.07 33.023C86.461 33.395 86.656 33.99 86.656 34.811V39H85.684ZM99.359 34.705C99.359 36.076 99.012 37.154 98.316 37.939C97.625 38.725 96.662 39.117 95.428 39.117C94.166 39.117 93.191 38.732 92.504 37.963C91.82 37.189 91.479 36.1 91.479 34.693C91.479 33.299 91.822 32.219 92.51 31.453C93.197 30.684 94.174 30.299 95.439 30.299C96.67 30.299 97.631 30.689 98.322 31.471C99.014 32.252 99.359 33.33 99.359 34.705ZM92.533 34.705C92.533 35.865 92.779 36.746 93.271 37.348C93.768 37.945 94.486 38.244 95.428 38.244C96.377 38.244 97.094 37.945 97.578 37.348C98.062 36.75 98.305 35.869 98.305 34.705C98.305 33.553 98.062 32.68 97.578 32.086C97.098 31.488 96.385 31.189 95.439 31.189C94.49 31.189 93.768 31.49 93.271 32.092C92.779 32.689 92.533 33.561 92.533 34.705ZM108.09 33.334H106.455V39H105.482V33.334H104.334V32.895L105.482 32.543V32.186C105.482 30.607 106.172 29.818 107.551 29.818C107.891 29.818 108.289 29.887 108.746 30.023L108.494 30.803C108.119 30.682 107.799 30.621 107.533 30.621C107.166 30.621 106.895 30.744 106.719 30.99C106.543 31.232 106.455 31.623 106.455 32.162V32.578H108.09V33.334ZM104.023 33.334H102.389V39H101.416V33.334H100.268V32.895L101.416 32.543V32.186C101.416 30.607 102.105 29.818 103.484 29.818C103.824 29.818 104.223 29.887 104.68 30.023L104.428 30.803C104.053 30.682 103.732 30.621 103.467 30.621C103.1 30.621 102.828 30.744 102.652 30.99C102.477 31.232 102.389 31.623 102.389 32.162V32.578H104.023V33.334ZM111.986 39.117C111.037 39.117 110.287 38.828 109.736 38.25C109.189 37.672 108.916 36.869 108.916 35.842C108.916 34.807 109.17 33.984 109.678 33.375C110.189 32.766 110.875 32.461 111.734 32.461C112.539 32.461 113.176 32.727 113.645 33.258C114.113 33.785 114.348 34.482 114.348 35.35V35.965H109.924C109.943 36.719 110.133 37.291 110.492 37.682C110.855 38.072 111.365 38.268 112.021 38.268C112.713 38.268 113.396 38.123 114.072 37.834V38.701C113.729 38.85 113.402 38.955 113.094 39.018C112.789 39.084 112.42 39.117 111.986 39.117ZM111.723 33.275C111.207 33.275 110.795 33.443 110.486 33.779C110.182 34.115 110.002 34.58 109.947 35.174H113.305C113.305 34.561 113.168 34.092 112.895 33.768C112.621 33.439 112.23 33.275 111.723 33.275ZM118.941 32.461C119.227 32.461 119.482 32.484 119.709 32.531L119.574 33.434C119.309 33.375 119.074 33.346 118.871 33.346C118.352 33.346 117.906 33.557 117.535 33.979C117.168 34.4 116.984 34.926 116.984 35.555V39H116.012V32.578H116.814L116.926 33.768H116.973C117.211 33.35 117.498 33.027 117.834 32.801C118.17 32.574 118.539 32.461 118.941 32.461ZM121.883 39H120.91V32.578H121.883V39ZM120.828 30.838C120.828 30.615 120.883 30.453 120.992 30.352C121.102 30.246 121.238 30.193 121.402 30.193C121.559 30.193 121.693 30.246 121.807 30.352C121.92 30.457 121.977 30.619 121.977 30.838C121.977 31.057 121.92 31.221 121.807 31.33C121.693 31.436 121.559 31.488 121.402 31.488C121.238 31.488 121.102 31.436 120.992 31.33C120.883 31.221 120.828 31.057 120.828 30.838ZM128.34 39V34.846C128.34 34.322 128.221 33.932 127.982 33.674C127.744 33.416 127.371 33.287 126.863 33.287C126.191 33.287 125.699 33.469 125.387 33.832C125.074 34.195 124.918 34.795 124.918 35.631V39H123.945V32.578H124.736L124.895 33.457H124.941C125.141 33.141 125.42 32.896 125.779 32.725C126.139 32.549 126.539 32.461 126.98 32.461C127.754 32.461 128.336 32.648 128.727 33.023C129.117 33.395 129.312 33.99 129.312 34.811V39H128.34ZM136.572 32.578V33.193L135.383 33.334C135.492 33.471 135.59 33.65 135.676 33.873C135.762 34.092 135.805 34.34 135.805 34.617C135.805 35.246 135.59 35.748 135.16 36.123C134.73 36.498 134.141 36.686 133.391 36.686C133.199 36.686 133.02 36.67 132.852 36.639C132.438 36.857 132.23 37.133 132.23 37.465C132.23 37.641 132.303 37.771 132.447 37.857C132.592 37.939 132.84 37.98 133.191 37.98H134.328C135.023 37.98 135.557 38.127 135.928 38.42C136.303 38.713 136.49 39.139 136.49 39.697C136.49 40.408 136.205 40.949 135.635 41.32C135.064 41.695 134.232 41.883 133.139 41.883C132.299 41.883 131.65 41.727 131.193 41.414C130.74 41.102 130.514 40.66 130.514 40.09C130.514 39.699 130.639 39.361 130.889 39.076C131.139 38.791 131.49 38.598 131.943 38.496C131.779 38.422 131.641 38.307 131.527 38.15C131.418 37.994 131.363 37.812 131.363 37.605C131.363 37.371 131.426 37.166 131.551 36.99C131.676 36.814 131.873 36.645 132.143 36.48C131.811 36.344 131.539 36.111 131.328 35.783C131.121 35.455 131.018 35.08 131.018 34.658C131.018 33.955 131.229 33.414 131.65 33.035C132.072 32.652 132.67 32.461 133.443 32.461C133.779 32.461 134.082 32.5 134.352 32.578H136.572ZM131.451 40.078C131.451 40.426 131.598 40.689 131.891 40.869C132.184 41.049 132.604 41.139 133.15 41.139C133.967 41.139 134.57 41.016 134.961 40.77C135.355 40.527 135.553 40.197 135.553 39.779C135.553 39.432 135.445 39.189 135.23 39.053C135.016 38.92 134.611 38.854 134.018 38.854H132.852C132.41 38.854 132.066 38.959 131.82 39.17C131.574 39.381 131.451 39.684 131.451 40.078ZM131.979 34.635C131.979 35.084 132.105 35.424 132.359 35.654C132.613 35.885 132.967 36 133.42 36C134.369 36 134.844 35.539 134.844 34.617C134.844 33.652 134.363 33.17 133.402 33.17C132.945 33.17 132.594 33.293 132.348 33.539C132.102 33.785 131.979 34.15 131.979 34.635ZM139.93 35.713C139.93 36.74 139.777 37.697 139.473 38.584C139.172 39.471 138.736 40.242 138.166 40.898H137.229C137.771 40.164 138.188 39.35 138.477 38.455C138.766 37.557 138.91 36.639 138.91 35.701C138.91 34.748 138.768 33.82 138.482 32.918C138.201 32.016 137.779 31.188 137.217 30.434H138.166C138.74 31.117 139.178 31.912 139.479 32.818C139.779 33.721 139.93 34.686 139.93 35.713ZM6.96288 69H5.82618L1.14449 61.811H1.09768C1.16018 62.654 1.19138 63.428 1.19138 64.131V69H0.271484V60.434H1.39648L6.06638 67.594H6.11329C6.10548 67.488 6.08789 67.15 6.06049 66.58C6.03319 66.006 6.02339 65.596 6.03119 65.35V60.434H6.96288V69ZM11.8848 69.117C10.9355 69.117 10.1855 68.828 9.63478 68.25C9.08788 67.672 8.81448 66.869 8.81448 65.842C8.81448 64.807 9.06838 63.984 9.57618 63.375C10.0879 62.766 10.7734 62.461 11.6328 62.461C12.4375 62.461 13.0742 62.727 13.543 63.258C14.0117 63.785 14.2461 64.482 14.2461 65.35V65.965H9.82228C9.84178 66.719 10.0312 67.291 10.3906 67.682C10.7539 68.072 11.2637 68.268 11.9199 68.268C12.6113 68.268 13.2949 68.123 13.9707 67.834V68.701C13.627 68.85 13.3008 68.955 12.9922 69.018C12.6875 69.084 12.3184 69.117 11.8848 69.117ZM11.6211 63.275C11.1055 63.275 10.6934 63.443 10.3848 63.779C10.0801 64.115 9.90038 64.58 9.84568 65.174H13.2031C13.2031 64.561 13.0664 64.092 12.793 63.768C12.5195 63.439 12.1289 63.275 11.6211 63.275ZM21.1543 69L19.9766 65.232C19.9023 65.002 19.7637 64.479 19.5605 63.662H19.5137C19.3574 64.346 19.2207 64.873 19.1035 65.244L17.8906 69H16.7656L15.0137 62.578H16.0332C16.4473 64.191 16.7617 65.42 16.9766 66.264C17.1953 67.107 17.3203 67.676 17.3516 67.969H17.3984C17.4414 67.746 17.5098 67.459 17.6035 67.107C17.7012 66.752 17.7852 66.471 17.8555 66.264L19.0332 62.578H20.0879L21.2363 66.264C21.4551 66.936 21.6035 67.5 21.6816 67.957H21.7285C21.7441 67.816 21.7852 67.6 21.8516 67.307C21.9219 67.014 22.3301 65.438 23.0762 62.578H24.084L22.3086 69H21.1543ZM28.5137 60.434H30.9336C32.0703 60.434 32.8926 60.604 33.4004 60.943C33.9082 61.283 34.1621 61.82 34.1621 62.555C34.1621 63.062 34.0195 63.482 33.7344 63.814C33.4531 64.143 33.041 64.355 32.498 64.453V64.512C33.7988 64.734 34.4492 65.418 34.4492 66.562C34.4492 67.328 34.1895 67.926 33.6699 68.355C33.1543 68.785 32.4316 69 31.502 69H28.5137V60.434ZM29.5098 64.102H31.1504C31.8535 64.102 32.3594 63.992 32.668 63.773C32.9766 63.551 33.1309 63.178 33.1309 62.654C33.1309 62.174 32.959 61.828 32.6152 61.617C32.2715 61.402 31.7246 61.295 30.9746 61.295H29.5098V64.102ZM29.5098 64.945V68.15H31.2969C31.9883 68.15 32.5078 68.018 32.8555 67.752C33.207 67.482 33.3828 67.062 33.3828 66.492C33.3828 65.961 33.2031 65.57 32.8438 65.32C32.4883 65.07 31.9453 64.945 31.2148 64.945H29.5098ZM37.0625 62.578V66.744C37.0625 67.268 37.1816 67.658 37.4199 67.916C37.6582 68.174 38.0312 68.303 38.5391 68.303C39.2109 68.303 39.7012 68.119 40.0098 67.752C40.3223 67.385 40.4785 66.785 40.4785 65.953V62.578H41.4512V69H40.6484L40.5078 68.139H40.4551C40.2559 68.455 39.9785 68.697 39.623 68.865C39.2715 69.033 38.8691 69.117 38.416 69.117C37.6348 69.117 37.0488 68.932 36.6582 68.561C36.2715 68.189 36.0781 67.596 36.0781 66.779V62.578H37.0625ZM47.6621 67.248C47.6621 67.846 47.4395 68.307 46.9941 68.631C46.5488 68.955 45.9238 69.117 45.1191 69.117C44.2676 69.117 43.6035 68.982 43.127 68.713V67.811C43.4355 67.967 43.7656 68.09 44.1172 68.18C44.4727 68.27 44.8145 68.314 45.1426 68.314C45.6504 68.314 46.041 68.234 46.3145 68.074C46.5879 67.91 46.7246 67.662 46.7246 67.33C46.7246 67.08 46.6152 66.867 46.3965 66.691C46.1816 66.512 45.7598 66.301 45.1309 66.059C44.5332 65.836 44.1074 65.643 43.8535 65.479C43.6035 65.311 43.416 65.121 43.291 64.91C43.1699 64.699 43.1094 64.447 43.1094 64.154C43.1094 63.631 43.3223 63.219 43.748 62.918C44.1738 62.613 44.7578 62.461 45.5 62.461C46.1914 62.461 46.8672 62.602 47.5273 62.883L47.1816 63.674C46.5371 63.408 45.9531 63.275 45.4297 63.275C44.9688 63.275 44.6211 63.348 44.3867 63.492C44.1523 63.637 44.0352 63.836 44.0352 64.09C44.0352 64.262 44.0781 64.408 44.1641 64.529C44.2539 64.65 44.3965 64.766 44.5918 64.875C44.7871 64.984 45.1621 65.143 45.7168 65.35C46.4785 65.627 46.9922 65.906 47.2578 66.188C47.5273 66.469 47.6621 66.822 47.6621 67.248ZM50.2227 69H49.25V62.578H50.2227V69ZM49.168 60.838C49.168 60.615 49.2227 60.453 49.332 60.352C49.4414 60.246 49.5781 60.193 49.7422 60.193C49.8984 60.193 50.0332 60.246 50.1465 60.352C50.2598 60.457 50.3164 60.619 50.3164 60.838C50.3164 61.057 50.2598 61.221 50.1465 61.33C50.0332 61.436 49.8984 61.488 49.7422 61.488C49.5781 61.488 49.4414 61.436 49.332 61.33C49.2227 61.221 49.168 61.057 49.168 60.838ZM56.6797 69V64.846C56.6797 64.322 56.5605 63.932 56.3223 63.674C56.084 63.416 55.7109 63.287 55.2031 63.287C54.5312 63.287 54.0391 63.469 53.7266 63.832C53.4141 64.195 53.2578 64.795 53.2578 65.631V69H52.2852V62.578H53.0762L53.2344 63.457H53.2812C53.4805 63.141 53.7598 62.896 54.1191 62.725C54.4785 62.549 54.8789 62.461 55.3203 62.461C56.0938 62.461 56.6758 62.648 57.0664 63.023C57.457 63.395 57.6523 63.99 57.6523 64.811V69H56.6797ZM62.3691 69.117C61.4199 69.117 60.6699 68.828 60.1191 68.25C59.5723 67.672 59.2988 66.869 59.2988 65.842C59.2988 64.807 59.5527 63.984 60.0605 63.375C60.5723 62.766 61.2578 62.461 62.1172 62.461C62.9219 62.461 63.5586 62.727 64.0273 63.258C64.4961 63.785 64.7305 64.482 64.7305 65.35V65.965H60.3066C60.3262 66.719 60.5156 67.291 60.875 67.682C61.2383 68.072 61.748 68.268 62.4043 68.268C63.0957 68.268 63.7793 68.123 64.4551 67.834V68.701C64.1113 68.85 63.7852 68.955 63.4766 69.018C63.1719 69.084 62.8027 69.117 62.3691 69.117ZM62.1055 63.275C61.5898 63.275 61.1777 63.443 60.8691 63.779C60.5645 64.115 60.3848 64.58 60.3301 65.174H63.6875C63.6875 64.561 63.5508 64.092 63.2773 63.768C63.0039 63.439 62.6133 63.275 62.1055 63.275ZM70.537 67.248C70.537 67.846 70.314 68.307 69.869 68.631C69.424 68.955 68.799 69.117 67.994 69.117C67.143 69.117 66.4785 68.982 66.002 68.713V67.811C66.3105 67.967 66.6406 68.09 66.9922 68.18C67.348 68.27 67.689 68.314 68.018 68.314C68.525 68.314 68.916 68.234 69.189 68.074C69.463 67.91 69.6 67.662 69.6 67.33C69.6 67.08 69.49 66.867 69.271 66.691C69.057 66.512 68.635 66.301 68.006 66.059C67.408 65.836 66.9824 65.643 66.7285 65.479C66.4785 65.311 66.291 65.121 66.166 64.91C66.0449 64.699 65.9844 64.447 65.9844 64.154C65.9844 63.631 66.1973 63.219 66.623 62.918C67.049 62.613 67.633 62.461 68.375 62.461C69.066 62.461 69.742 62.602 70.402 62.883L70.057 63.674C69.412 63.408 68.828 63.275 68.305 63.275C67.844 63.275 67.496 63.348 67.262 63.492C67.027 63.637 66.9102 63.836 66.9102 64.09C66.9102 64.262 66.9531 64.408 67.039 64.529C67.129 64.65 67.271 64.766 67.467 64.875C67.662 64.984 68.037 65.143 68.592 65.35C69.354 65.627 69.867 65.906 70.133 66.188C70.402 66.469 70.537 66.822 70.537 67.248ZM76.268 67.248C76.268 67.846 76.045 68.307 75.6 68.631C75.154 68.955 74.529 69.117 73.725 69.117C72.873 69.117 72.209 68.982 71.732 68.713V67.811C72.041 67.967 72.371 68.09 72.723 68.18C73.078 68.27 73.42 68.314 73.748 68.314C74.256 68.314 74.646 68.234 74.92 68.074C75.193 67.91 75.33 67.662 75.33 67.33C75.33 67.08 75.221 66.867 75.002 66.691C74.787 66.512 74.365 66.301 73.736 66.059C73.139 65.836 72.713 65.643 72.459 65.479C72.209 65.311 72.021 65.121 71.896 64.91C71.775 64.699 71.715 64.447 71.715 64.154C71.715 63.631 71.928 63.219 72.354 62.918C72.779 62.613 73.363 62.461 74.105 62.461C74.797 62.461 75.473 62.602 76.133 62.883L75.787 63.674C75.143 63.408 74.559 63.275 74.035 63.275C73.574 63.275 73.227 63.348 72.992 63.492C72.758 63.637 72.641 63.836 72.641 64.09C72.641 64.262 72.684 64.408 72.77 64.529C72.859 64.65 73.002 64.766 73.197 64.875C73.393 64.984 73.768 65.143 74.322 65.35C75.084 65.627 75.598 65.906 75.863 66.188C76.133 66.469 76.268 66.822 76.268 67.248ZM81.119 69V60.434H82.115V69H81.119ZM88.719 69V64.846C88.719 64.322 88.6 63.932 88.361 63.674C88.123 63.416 87.75 63.287 87.242 63.287C86.57 63.287 86.078 63.469 85.766 63.832C85.453 64.195 85.297 64.795 85.297 65.631V69H84.324V62.578H85.115L85.273 63.457H85.32C85.52 63.141 85.799 62.896 86.158 62.725C86.518 62.549 86.918 62.461 87.359 62.461C88.133 62.461 88.715 62.648 89.105 63.023C89.496 63.395 89.691 63.99 89.691 64.811V69H88.719ZM93.102 69L90.664 62.578H91.707L93.09 66.387C93.402 67.277 93.586 67.855 93.641 68.121H93.688C93.73 67.914 93.865 67.486 94.092 66.838C94.322 66.186 94.836 64.766 95.633 62.578H96.676L94.238 69H93.102ZM100.42 69.117C99.471 69.117 98.721 68.828 98.17 68.25C97.623 67.672 97.35 66.869 97.35 65.842C97.35 64.807 97.604 63.984 98.111 63.375C98.623 62.766 99.309 62.461 100.168 62.461C100.973 62.461 101.609 62.727 102.078 63.258C102.547 63.785 102.781 64.482 102.781 65.35V65.965H98.357C98.377 66.719 98.566 67.291 98.926 67.682C99.289 68.072 99.799 68.268 100.455 68.268C101.146 68.268 101.83 68.123 102.506 67.834V68.701C102.162 68.85 101.836 68.955 101.527 69.018C101.223 69.084 100.854 69.117 100.42 69.117ZM100.156 63.275C99.641 63.275 99.229 63.443 98.92 63.779C98.615 64.115 98.436 64.58 98.381 65.174H101.738C101.738 64.561 101.602 64.092 101.328 63.768C101.055 63.439 100.664 63.275 100.156 63.275ZM108.588 67.248C108.588 67.846 108.365 68.307 107.92 68.631C107.475 68.955 106.85 69.117 106.045 69.117C105.193 69.117 104.529 68.982 104.053 68.713V67.811C104.361 67.967 104.691 68.09 105.043 68.18C105.398 68.27 105.74 68.314 106.068 68.314C106.576 68.314 106.967 68.234 107.24 68.074C107.514 67.91 107.65 67.662 107.65 67.33C107.65 67.08 107.541 66.867 107.322 66.691C107.107 66.512 106.686 66.301 106.057 66.059C105.459 65.836 105.033 65.643 104.779 65.479C104.529 65.311 104.342 65.121 104.217 64.91C104.096 64.699 104.035 64.447 104.035 64.154C104.035 63.631 104.248 63.219 104.674 62.918C105.1 62.613 105.684 62.461 106.426 62.461C107.117 62.461 107.793 62.602 108.453 62.883L108.107 63.674C107.463 63.408 106.879 63.275 106.355 63.275C105.895 63.275 105.547 63.348 105.312 63.492C105.078 63.637 104.961 63.836 104.961 64.09C104.961 64.262 105.004 64.408 105.09 64.529C105.18 64.65 105.322 64.766 105.518 64.875C105.713 64.984 106.088 65.143 106.643 65.35C107.404 65.627 107.918 65.906 108.184 66.188C108.453 66.469 108.588 66.822 108.588 67.248ZM112.25 68.314C112.422 68.314 112.588 68.303 112.748 68.279C112.908 68.252 113.035 68.225 113.129 68.197V68.941C113.023 68.992 112.867 69.033 112.66 69.064C112.457 69.1 112.273 69.117 112.109 69.117C110.867 69.117 110.246 68.463 110.246 67.154V63.334H109.326V62.865L110.246 62.461L110.656 61.09H111.219V62.578H113.082V63.334H111.219V67.113C111.219 67.5 111.311 67.797 111.494 68.004C111.678 68.211 111.93 68.314 112.25 68.314ZM122.604 69V64.822C122.604 64.311 122.494 63.928 122.275 63.674C122.057 63.416 121.717 63.287 121.256 63.287C120.65 63.287 120.203 63.461 119.914 63.809C119.625 64.156 119.48 64.691 119.48 65.414V69H118.508V64.822C118.508 64.311 118.398 63.928 118.18 63.674C117.961 63.416 117.619 63.287 117.154 63.287C116.545 63.287 116.098 63.471 115.812 63.838C115.531 64.201 115.391 64.799 115.391 65.631V69H114.418V62.578H115.209L115.367 63.457H115.414C115.598 63.145 115.855 62.9 116.188 62.725C116.523 62.549 116.898 62.461 117.312 62.461C118.316 62.461 118.973 62.824 119.281 63.551H119.328C119.52 63.215 119.797 62.949 120.16 62.754C120.523 62.559 120.938 62.461 121.402 62.461C122.129 62.461 122.672 62.648 123.031 63.023C123.395 63.395 123.576 63.99 123.576 64.811V69H122.604ZM128.299 69.117C127.35 69.117 126.6 68.828 126.049 68.25C125.502 67.672 125.229 66.869 125.229 65.842C125.229 64.807 125.482 63.984 125.99 63.375C126.502 62.766 127.188 62.461 128.047 62.461C128.852 62.461 129.488 62.727 129.957 63.258C130.426 63.785 130.66 64.482 130.66 65.35V65.965H126.236C126.256 66.719 126.445 67.291 126.805 67.682C127.168 68.072 127.678 68.268 128.334 68.268C129.025 68.268 129.709 68.123 130.385 67.834V68.701C130.041 68.85 129.715 68.955 129.406 69.018C129.102 69.084 128.732 69.117 128.299 69.117ZM128.035 63.275C127.52 63.275 127.107 63.443 126.799 63.779C126.494 64.115 126.314 64.58 126.26 65.174H129.617C129.617 64.561 129.48 64.092 129.207 63.768C128.934 63.439 128.543 63.275 128.035 63.275ZM136.719 69V64.846C136.719 64.322 136.6 63.932 136.361 63.674C136.123 63.416 135.75 63.287 135.242 63.287C134.57 63.287 134.078 63.469 133.766 63.832C133.453 64.195 133.297 64.795 133.297 65.631V69H132.324V62.578H133.115L133.273 63.457H133.32C133.52 63.141 133.799 62.896 134.158 62.725C134.518 62.549 134.918 62.461 135.359 62.461C136.133 62.461 136.715 62.648 137.105 63.023C137.496 63.395 137.691 63.99 137.691 64.811V69H136.719ZM141.77 68.314C141.941 68.314 142.107 68.303 142.268 68.279C142.428 68.252 142.555 68.225 142.648 68.197V68.941C142.543 68.992 142.387 69.033 142.18 69.064C141.977 69.1 141.793 69.117 141.629 69.117C140.387 69.117 139.766 68.463 139.766 67.154V63.334H138.846V62.865L139.766 62.461L140.176 61.09H140.738V62.578H142.602V63.334H140.738V67.113C140.738 67.5 140.83 67.797 141.014 68.004C141.197 68.211 141.449 68.314 141.77 68.314ZM8.48048 90.434H10.9004C12.0371 90.434 12.8594 90.604 13.3672 90.943C13.875 91.283 14.1289 91.82 14.1289 92.555C14.1289 93.062 13.9863 93.482 13.7012 93.814C13.4199 94.143 13.0078 94.355 12.4648 94.453V94.512C13.7656 94.734 14.416 95.418 14.416 96.562C14.416 97.328 14.1562 97.926 13.6367 98.355C13.1211 98.785 12.3984 99 11.4688 99H8.48048V90.434ZM9.47659 94.102H11.1172C11.8203 94.102 12.3262 93.992 12.6348 93.773C12.9434 93.551 13.0977 93.178 13.0977 92.654C13.0977 92.174 12.9258 91.828 12.582 91.617C12.2383 91.402 11.6914 91.295 10.9414 91.295H9.47659V94.102ZM9.47659 94.945V98.15H11.2637C11.9551 98.15 12.4746 98.018 12.8223 97.752C13.1738 97.482 13.3496 97.062 13.3496 96.492C13.3496 95.961 13.1699 95.57 12.8105 95.32C12.4551 95.07 11.9121 94.945 11.1816 94.945H9.47659ZM17.0879 99H16.1152V89.883H17.0879V99ZM24.6934 95.783C24.6934 96.83 24.4297 97.648 23.9023 98.238C23.375 98.824 22.6465 99.117 21.7168 99.117C21.1426 99.117 20.6328 98.982 20.1875 98.713C19.7422 98.443 19.3984 98.057 19.1562 97.553C18.9141 97.049 18.793 96.459 18.793 95.783C18.793 94.736 19.0547 93.922 19.5781 93.34C20.1016 92.754 20.8281 92.461 21.7578 92.461C22.6562 92.461 23.3691 92.76 23.8965 93.357C24.4277 93.955 24.6934 94.764 24.6934 95.783ZM19.8008 95.783C19.8008 96.604 19.9648 97.229 20.293 97.658C20.6211 98.088 21.1035 98.303 21.7402 98.303C22.377 98.303 22.8594 98.09 23.1875 97.664C23.5195 97.234 23.6855 96.607 23.6855 95.783C23.6855 94.967 23.5195 94.348 23.1875 93.926C22.8594 93.5 22.373 93.287 21.7285 93.287C21.0918 93.287 20.6113 93.496 20.2871 93.914C19.9629 94.332 19.8008 94.955 19.8008 95.783ZM28.9707 99.117C28.041 99.117 27.3203 98.832 26.8086 98.262C26.3008 97.688 26.0469 96.877 26.0469 95.83C26.0469 94.756 26.3047 93.926 26.8203 93.34C27.3398 92.754 28.0781 92.461 29.0352 92.461C29.3438 92.461 29.6523 92.494 29.9609 92.561C30.2695 92.627 30.5117 92.705 30.6875 92.795L30.3887 93.621C30.1738 93.535 29.9395 93.465 29.6855 93.41C29.4316 93.352 29.207 93.322 29.0117 93.322C27.707 93.322 27.0547 94.154 27.0547 95.818C27.0547 96.607 27.2129 97.213 27.5293 97.635C27.8496 98.057 28.3223 98.268 28.9473 98.268C29.4824 98.268 30.0312 98.152 30.5938 97.922V98.783C30.1641 99.006 29.623 99.117 28.9707 99.117ZM33.084 95.713C33.252 95.475 33.5078 95.162 33.8516 94.775L35.9258 92.578H37.0801L34.4785 95.314L37.2617 99H36.084L33.8164 95.965L33.084 96.598V99H32.123V89.883H33.084V94.717C33.084 94.932 33.0684 95.264 33.0371 95.713H33.084ZM40.9941 99.117C40.0645 99.117 39.3438 98.832 38.832 98.262C38.3242 97.688 38.0703 96.877 38.0703 95.83C38.0703 94.756 38.3281 93.926 38.8438 93.34C39.3633 92.754 40.1016 92.461 41.0586 92.461C41.3672 92.461 41.6758 92.494 41.9844 92.561C42.293 92.627 42.5352 92.705 42.7109 92.795L42.4121 93.621C42.1973 93.535 41.9629 93.465 41.709 93.41C41.4551 93.352 41.2305 93.322 41.0352 93.322C39.7305 93.322 39.0781 94.154 39.0781 95.818C39.0781 96.607 39.2363 97.213 39.5527 97.635C39.873 98.057 40.3457 98.268 40.9707 98.268C41.5059 98.268 42.0547 98.152 42.6172 97.922V98.783C42.1875 99.006 41.6465 99.117 40.9941 99.117ZM48.541 99V94.846C48.541 94.322 48.4219 93.932 48.1836 93.674C47.9453 93.416 47.5723 93.287 47.0645 93.287C46.3887 93.287 45.8945 93.471 45.582 93.838C45.2734 94.205 45.1191 94.807 45.1191 95.643V99H44.1465V89.883H45.1191V92.643C45.1191 92.975 45.1035 93.25 45.0723 93.469H45.1309C45.3223 93.16 45.5938 92.918 45.9453 92.742C46.3008 92.562 46.7051 92.473 47.1582 92.473C47.9434 92.473 48.5312 92.66 48.9219 93.035C49.3164 93.406 49.5137 93.998 49.5137 94.811V99H48.541ZM55.4668 99L55.2734 98.086H55.2266C54.9062 98.488 54.5859 98.762 54.2656 98.906C53.9492 99.047 53.5527 99.117 53.0762 99.117C52.4395 99.117 51.9395 98.953 51.5762 98.625C51.2168 98.297 51.0371 97.83 51.0371 97.225C51.0371 95.928 52.0742 95.248 54.1484 95.186L55.2383 95.15V94.752C55.2383 94.248 55.1289 93.877 54.9102 93.639C54.6953 93.396 54.3496 93.275 53.873 93.275C53.3379 93.275 52.7324 93.439 52.0566 93.768L51.7578 93.023C52.0742 92.852 52.4199 92.717 52.7949 92.619C53.1738 92.521 53.5527 92.473 53.9316 92.473C54.6973 92.473 55.2637 92.643 55.6309 92.982C56.002 93.322 56.1875 93.867 56.1875 94.617V99H55.4668ZM53.2695 98.314C53.875 98.314 54.3496 98.148 54.6934 97.816C55.041 97.484 55.2148 97.02 55.2148 96.422V95.842L54.2422 95.883C53.4688 95.91 52.9102 96.031 52.5664 96.246C52.2266 96.457 52.0566 96.787 52.0566 97.236C52.0566 97.588 52.1621 97.855 52.373 98.039C52.5879 98.223 52.8867 98.314 53.2695 98.314ZM59.1699 99H58.1973V92.578H59.1699V99ZM58.1152 90.838C58.1152 90.615 58.1699 90.453 58.2793 90.352C58.3887 90.246 58.5254 90.193 58.6895 90.193C58.8457 90.193 58.9805 90.246 59.0938 90.352C59.207 90.457 59.2637 90.619 59.2637 90.838C59.2637 91.057 59.207 91.221 59.0938 91.33C58.9805 91.436 58.8457 91.488 58.6895 91.488C58.5254 91.488 58.3887 91.436 58.2793 91.33C58.1699 91.221 58.1152 91.057 58.1152 90.838ZM65.627 99V94.846C65.627 94.322 65.5078 93.932 65.2695 93.674C65.0312 93.416 64.6582 93.287 64.1504 93.287C63.4785 93.287 62.9863 93.469 62.6738 93.832C62.3613 94.195 62.2051 94.795 62.2051 95.631V99H61.2324V92.578H62.0234L62.1816 93.457H62.2285C62.4277 93.141 62.707 92.896 63.0664 92.725C63.4258 92.549 63.8262 92.461 64.2676 92.461C65.041 92.461 65.623 92.648 66.0137 93.023C66.4043 93.395 66.5996 93.99 66.5996 94.811V99H65.627ZM74.504 99H73.508V91.318H70.795V90.434H77.217V91.318H74.504V99ZM81.078 99.117C80.129 99.117 79.379 98.828 78.828 98.25C78.281 97.672 78.008 96.869 78.008 95.842C78.008 94.807 78.262 93.984 78.77 93.375C79.281 92.766 79.967 92.461 80.826 92.461C81.631 92.461 82.268 92.727 82.736 93.258C83.205 93.785 83.439 94.482 83.439 95.35V95.965H79.016C79.035 96.719 79.225 97.291 79.584 97.682C79.947 98.072 80.457 98.268 81.113 98.268C81.805 98.268 82.488 98.123 83.164 97.834V98.701C82.82 98.85 82.494 98.955 82.186 99.018C81.881 99.084 81.512 99.117 81.078 99.117ZM80.814 93.275C80.299 93.275 79.887 93.443 79.578 93.779C79.273 94.115 79.094 94.58 79.039 95.174H82.396C82.396 94.561 82.26 94.092 81.986 93.768C81.713 93.439 81.322 93.275 80.814 93.275ZM87.67 99.117C86.74 99.117 86.02 98.832 85.508 98.262C85 97.688 84.746 96.877 84.746 95.83C84.746 94.756 85.004 93.926 85.52 93.34C86.039 92.754 86.777 92.461 87.734 92.461C88.043 92.461 88.352 92.494 88.66 92.561C88.969 92.627 89.211 92.705 89.387 92.795L89.088 93.621C88.873 93.535 88.639 93.465 88.385 93.41C88.131 93.352 87.906 93.322 87.711 93.322C86.406 93.322 85.754 94.154 85.754 95.818C85.754 96.607 85.912 97.213 86.229 97.635C86.549 98.057 87.021 98.268 87.646 98.268C88.182 98.268 88.73 98.152 89.293 97.922V98.783C88.863 99.006 88.322 99.117 87.67 99.117ZM95.217 99V94.846C95.217 94.322 95.098 93.932 94.859 93.674C94.621 93.416 94.248 93.287 93.74 93.287C93.064 93.287 92.57 93.471 92.258 93.838C91.949 94.205 91.795 94.807 91.795 95.643V99H90.822V89.883H91.795V92.643C91.795 92.975 91.779 93.25 91.748 93.469H91.807C91.998 93.16 92.27 92.918 92.621 92.742C92.977 92.562 93.381 92.473 93.834 92.473C94.619 92.473 95.207 92.66 95.598 93.035C95.992 93.406 96.189 93.998 96.189 94.811V99H95.217ZM102.588 99V94.846C102.588 94.322 102.469 93.932 102.23 93.674C101.992 93.416 101.619 93.287 101.111 93.287C100.439 93.287 99.947 93.469 99.635 93.832C99.322 94.195 99.166 94.795 99.166 95.631V99H98.193V92.578H98.984L99.143 93.457H99.189C99.389 93.141 99.668 92.896 100.027 92.725C100.387 92.549 100.787 92.461 101.229 92.461C102.002 92.461 102.584 92.648 102.975 93.023C103.365 93.395 103.561 93.99 103.561 94.811V99H102.588ZM111.107 95.783C111.107 96.83 110.844 97.648 110.316 98.238C109.789 98.824 109.061 99.117 108.131 99.117C107.557 99.117 107.047 98.982 106.602 98.713C106.156 98.443 105.812 98.057 105.57 97.553C105.328 97.049 105.207 96.459 105.207 95.783C105.207 94.736 105.469 93.922 105.992 93.34C106.516 92.754 107.242 92.461 108.172 92.461C109.07 92.461 109.783 92.76 110.311 93.357C110.842 93.955 111.107 94.764 111.107 95.783ZM106.215 95.783C106.215 96.604 106.379 97.229 106.707 97.658C107.035 98.088 107.518 98.303 108.154 98.303C108.791 98.303 109.273 98.09 109.602 97.664C109.934 97.234 110.1 96.607 110.1 95.783C110.1 94.967 109.934 94.348 109.602 93.926C109.273 93.5 108.787 93.287 108.143 93.287C107.506 93.287 107.025 93.496 106.701 93.914C106.377 94.332 106.215 94.955 106.215 95.783ZM113.791 99H112.818V89.883H113.791V99ZM121.396 95.783C121.396 96.83 121.133 97.648 120.605 98.238C120.078 98.824 119.35 99.117 118.42 99.117C117.846 99.117 117.336 98.982 116.891 98.713C116.445 98.443 116.102 98.057 115.859 97.553C115.617 97.049 115.496 96.459 115.496 95.783C115.496 94.736 115.758 93.922 116.281 93.34C116.805 92.754 117.531 92.461 118.461 92.461C119.359 92.461 120.072 92.76 120.6 93.357C121.131 93.955 121.396 94.764 121.396 95.783ZM116.504 95.783C116.504 96.604 116.668 97.229 116.996 97.658C117.324 98.088 117.807 98.303 118.443 98.303C119.08 98.303 119.562 98.09 119.891 97.664C120.223 97.234 120.389 96.607 120.389 95.783C120.389 94.967 120.223 94.348 119.891 93.926C119.562 93.5 119.076 93.287 118.432 93.287C117.795 93.287 117.314 93.496 116.99 93.914C116.666 94.332 116.504 94.955 116.504 95.783ZM128.363 92.578V93.193L127.174 93.334C127.283 93.471 127.381 93.65 127.467 93.873C127.553 94.092 127.596 94.34 127.596 94.617C127.596 95.246 127.381 95.748 126.951 96.123C126.521 96.498 125.932 96.686 125.182 96.686C124.99 96.686 124.811 96.67 124.643 96.639C124.229 96.857 124.021 97.133 124.021 97.465C124.021 97.641 124.094 97.771 124.238 97.857C124.383 97.939 124.631 97.98 124.982 97.98H126.119C126.814 97.98 127.348 98.127 127.719 98.42C128.094 98.713 128.281 99.139 128.281 99.697C128.281 100.408 127.996 100.949 127.426 101.32C126.855 101.695 126.023 101.883 124.93 101.883C124.09 101.883 123.441 101.727 122.984 101.414C122.531 101.102 122.305 100.66 122.305 100.09C122.305 99.699 122.43 99.361 122.68 99.076C122.93 98.791 123.281 98.598 123.734 98.496C123.57 98.422 123.432 98.307 123.318 98.15C123.209 97.994 123.154 97.812 123.154 97.605C123.154 97.371 123.217 97.166 123.342 96.99C123.467 96.814 123.664 96.645 123.934 96.48C123.602 96.344 123.33 96.111 123.119 95.783C122.912 95.455 122.809 95.08 122.809 94.658C122.809 93.955 123.02 93.414 123.441 93.035C123.863 92.652 124.461 92.461 125.234 92.461C125.57 92.461 125.873 92.5 126.143 92.578H128.363ZM123.242 100.078C123.242 100.426 123.389 100.689 123.682 100.869C123.975 101.049 124.395 101.139 124.941 101.139C125.758 101.139 126.361 101.016 126.752 100.77C127.146 100.527 127.344 100.197 127.344 99.779C127.344 99.432 127.236 99.189 127.021 99.053C126.807 98.92 126.402 98.854 125.809 98.854H124.643C124.201 98.854 123.857 98.959 123.611 99.17C123.365 99.381 123.242 99.684 123.242 100.078ZM123.77 94.635C123.77 95.084 123.896 95.424 124.15 95.654C124.404 95.885 124.758 96 125.211 96C126.16 96 126.635 95.539 126.635 94.617C126.635 93.652 126.154 93.17 125.193 93.17C124.736 93.17 124.385 93.293 124.139 93.539C123.893 93.785 123.77 94.15 123.77 94.635ZM128.662 92.578H129.705L131.111 96.24C131.42 97.076 131.611 97.68 131.686 98.051H131.732C131.783 97.852 131.889 97.512 132.049 97.031C132.213 96.547 132.744 95.062 133.643 92.578H134.686L131.926 99.891C131.652 100.613 131.332 101.125 130.965 101.426C130.602 101.73 130.154 101.883 129.623 101.883C129.326 101.883 129.033 101.85 128.744 101.783V101.004C128.959 101.051 129.199 101.074 129.465 101.074C130.133 101.074 130.609 100.699 130.895 99.949L131.252 99.035L128.662 92.578Z" fill="white"/>
</svg>
