<svg width="18" height="20" viewBox="0 0 18 20" fill="none" xmlns="http://www.w3.org/2000/svg">
<path d="M12.4648 11.7344L12.4141 11.7109C12.293 11.6562 12.168 11.6016 12.043 11.5547C11.9063 11.5 11.7656 11.4492 11.625 11.4023C11.5156 11.3672 11.4023 11.332 11.2891 11.2969C11.1172 11.2461 10.9414 11.2031 10.7617 11.1641C10.6992 11.1523 10.6406 11.1406 10.5781 11.1289L10.5352 11.1211C10.4297 11.1016 10.3242 11.082 10.2148 11.0664L10.1836 11.0625H10.1797L10.1484 11.0586C10.0586 11.0469 9.96875 11.0313 9.87891 11.0234L9.5625 10.9961C9.17578 10.9688 8.77734 10.9727 8.39453 11L8.28125 11.0078L8.23047 11.0117L8.10156 11.0234C7.98047 11.0352 7.86328 11.0508 7.74219 11.0703L7.70703 11.0742C7.625 11.0859 7.54297 11.1016 7.46484 11.1172C7.375 11.1328 7.28906 11.1523 7.19922 11.168C7.03125 11.207 6.85938 11.25 6.69922 11.2969C6.57031 11.3359 6.44141 11.375 6.32031 11.418L6.23828 11.4492C5.98438 11.5391 5.73047 11.6445 5.48438 11.7578L5.41797 11.7891C2.54688 13.1641 0.691406 16.0977 0.691406 19.2773C0.691406 19.3516 0.695313 19.4219 0.699219 19.4961L0.722656 20H17.2734L17.2969 19.5C17.3008 19.4258 17.3047 19.3516 17.3047 19.2773C17.3086 16.0469 15.4063 13.0898 12.4648 11.7344ZM1.50391 19.1875C1.53906 16.332 3.22656 13.7109 5.80078 12.5039L5.88281 12.4727L5.89063 12.4648C6.09375 12.3711 6.30078 12.2891 6.51172 12.2148L6.57813 12.1914C6.69141 12.1523 6.80859 12.1133 6.92578 12.082C7.07422 12.0391 7.22656 12 7.375 11.9648C7.45313 11.9492 7.53125 11.9336 7.61328 11.918C7.67578 11.9062 7.74219 11.8945 7.80469 11.8828L7.83594 11.8789C7.95313 11.8594 8.07031 11.8438 8.1836 11.832L8.44922 11.8086C8.79688 11.7812 9.12891 11.7812 9.53125 11.8086L9.78906 11.832C9.85156 11.8398 9.91797 11.8477 9.99219 11.8594L10.0859 11.8711C10.1836 11.8867 10.2813 11.9023 10.3789 11.9219L10.4258 11.9297C10.4805 11.9414 10.5352 11.9492 10.5859 11.9609C10.7461 11.9961 10.9023 12.0391 11.0586 12.082C11.1602 12.1133 11.2656 12.1445 11.3633 12.1758C11.4883 12.2188 11.6133 12.2656 11.7383 12.3125C11.8555 12.3594 11.9727 12.4102 12.0898 12.4609L12.1094 12.4688C14.7422 13.6758 16.4531 16.3047 16.4883 19.1914L1.50391 19.1875ZM6.99609 9.94922C7.05859 9.97656 7.12109 9.99609 7.18359 10.0195L7.31641 10.0664C7.36719 10.0859 7.41797 10.1055 7.46875 10.1211C7.95313 10.2734 8.45703 10.3516 8.97266 10.3555H9.01172C9.1875 10.3555 9.36328 10.3477 9.53516 10.3281C9.59375 10.3242 9.64844 10.3125 9.70703 10.3047L9.83594 10.2852C9.90625 10.2773 9.98047 10.2656 10.0547 10.25C10.1055 10.2383 10.1563 10.2266 10.2031 10.2109L10.3438 10.1758C10.4141 10.1602 10.4805 10.1406 10.5469 10.1211C10.5898 10.1094 10.6289 10.0938 10.6719 10.0781L10.7852 10.0391C10.8633 10.0117 10.9453 9.98438 11.0234 9.94922C11.0547 9.9375 11.0859 9.92188 11.1133 9.90625L11.1484 9.88672C11.2578 9.83594 11.3672 9.78906 11.4766 9.73047L11.5469 9.6875C11.668 9.61719 11.7891 9.54688 11.9141 9.46484C11.9766 9.42188 12.0391 9.375 12.0977 9.32422L12.3047 9.16406C13.5 8.17578 14.1836 6.72266 14.1836 5.21875L14.1875 5.17578C14.1914 2.32422 11.8672 0 9.01172 0C6.28516 0 4.01953 2.13281 3.84766 4.85156L3.84375 4.91797C3.83594 5.00391 3.83203 5.08984 3.83203 5.17578C3.83203 7.26562 5.07422 9.13672 6.99609 9.94922ZM4.65234 4.97656L4.65625 4.90234C4.80078 2.60938 6.71094 0.8125 9.00781 0.8125C11.418 0.8125 13.375 2.76953 13.375 5.14062L13.3711 5.18359C13.3711 6.48438 12.7891 7.70703 11.7773 8.54688L11.5859 8.69531C11.543 8.73047 11.5 8.76562 11.4453 8.80078C11.3477 8.86719 11.2461 8.92578 11.1406 8.98438L11.082 9.01953C10.9961 9.06641 10.9023 9.10938 10.8047 9.15234L10.6953 9.20312C10.6328 9.23047 10.5703 9.25 10.5039 9.27344L10.3711 9.32031C10.3438 9.32812 10.3203 9.33984 10.293 9.34766C10.2422 9.36328 10.1914 9.375 10.1406 9.38672L9.98047 9.42969C9.94531 9.4375 9.91016 9.44922 9.87891 9.45703C9.82422 9.46875 9.76953 9.47656 9.71484 9.48438L9.5625 9.50781C9.52344 9.51562 9.48828 9.51953 9.44531 9.52344C9.30859 9.53906 9.17578 9.54688 9.03516 9.54688H8.99609C8.55078 9.54688 8.11719 9.48047 7.69922 9.35156C7.66406 9.33984 7.62891 9.32422 7.59375 9.3125L7.44141 9.25781C7.39453 9.24219 7.34766 9.22656 7.30078 9.20703C5.67969 8.52344 4.63281 6.94141 4.63281 5.18359C4.64453 5.10938 4.64844 5.04297 4.65234 4.97656Z" fill="white" stroke="white" stroke-miterlimit="10"/>
</svg>
