<svg width="45" height="57" viewBox="0 0 45 57" fill="none" xmlns="http://www.w3.org/2000/svg">
<path d="M42.0404 0.247197H39.2144C38.3366 0.247197 37.6838 0.488691 37.298 1.3729L31.8671 13.8032H35.7082C35.7082 13.8032 36.3347 12.1318 36.4768 11.7657C36.8973 11.7657 40.6293 11.7714 41.1608 11.7714C41.2699 12.2449 41.6067 13.8032 41.6067 13.8032H45L42.0404 0.247197ZM37.5295 8.99043C37.8305 8.21175 38.9867 5.19973 38.9867 5.19973C38.9669 5.23681 39.2849 4.41535 39.474 3.90479L39.7205 5.07423C39.7205 5.07423 40.4214 8.31253 40.5681 8.99043H37.5295ZM32.123 9.36503C32.0966 12.1821 29.598 14 25.7531 14C24.1134 13.9829 22.5339 13.6568 21.6778 13.2774L22.1924 10.2416L22.6637 10.4584C23.865 10.9642 24.643 11.1686 26.1078 11.1686C27.1586 11.1686 28.2838 10.7522 28.295 9.84421C28.3016 9.24998 27.8237 8.82689 26.3985 8.16136C25.0099 7.51199 23.1717 6.42431 23.1952 4.4762C23.215 1.83973 25.7625 0 29.3769 0C30.7937 0 31.9292 0.294736 32.6536 0.569507L32.1587 3.50927L31.8285 3.35239C31.1549 3.07857 30.2876 2.81426 29.0909 2.83328C27.6591 2.83328 26.9949 3.43606 26.9949 3.99986C26.9874 4.63497 27.7701 5.05331 29.0495 5.68272C31.1634 6.64774 32.139 7.82384 32.123 9.36503ZM0 0.387911L0.0470377 0.115993H5.7179C6.48273 0.145467 7.09893 0.391713 7.31154 1.21793L8.54486 7.21154C7.33317 4.07688 4.41307 1.46893 0 0.387911ZM16.5394 0.245297L10.7792 13.7832L6.90889 13.7899L3.63319 2.47864C5.9879 4.00176 7.99358 6.41861 8.70009 8.10146L9.08203 9.49813L12.6644 0.248149L16.5394 0.245297ZM18.0183 0.233886H21.6778L19.3889 13.7975H15.7313L18.0183 0.233886Z" fill="white"/>
<path d="M43.8646 50.612C43.7949 50.5738 43.7243 50.5542 43.6518 50.5542C43.5775 50.5542 43.5069 50.5738 43.4381 50.612C43.3694 50.6501 43.3127 50.7032 43.2746 50.774C43.2346 50.8429 43.217 50.9155 43.217 50.99C43.217 51.0645 43.2365 51.138 43.2746 51.206C43.3145 51.2749 43.3684 51.3307 43.4363 51.3689C43.505 51.4071 43.5775 51.4266 43.6537 51.4266C43.728 51.4266 43.8005 51.4071 43.8683 51.3689C43.9361 51.3307 43.991 51.2749 44.0291 51.206C44.0681 51.138 44.0867 51.0654 44.0867 50.99C44.0867 50.9146 44.0671 50.8429 44.0291 50.774C43.9891 50.7013 43.9343 50.6501 43.8646 50.612ZM43.7615 51.2339L43.7206 51.1594C43.6881 51.1017 43.6611 51.0635 43.6407 51.0486C43.6277 51.0393 43.6072 51.0319 43.5812 51.0319H43.5375V51.232H43.4613V50.7619H43.623C43.6788 50.7619 43.7187 50.7665 43.741 50.7758C43.7661 50.7851 43.7875 50.7982 43.8005 50.8214C43.8153 50.8429 43.8219 50.8661 43.8219 50.8903C43.8219 50.9248 43.8088 50.9537 43.7856 50.9807C43.7615 51.0049 43.728 51.0207 43.6881 51.0235C43.7048 51.0291 43.7178 51.0384 43.728 51.0486C43.7475 51.0672 43.7698 51.098 43.7977 51.1408L43.8553 51.233H43.7615V51.2339ZM43.7169 50.9481C43.7001 50.9639 43.6713 50.9676 43.6277 50.9676H43.5347V50.828H43.6221C43.6583 50.828 43.6816 50.8308 43.6964 50.8363C43.7113 50.8419 43.7196 50.8522 43.7289 50.8587C43.7364 50.8717 43.7401 50.882 43.7401 50.8969C43.7401 50.9192 43.7327 50.9341 43.7169 50.9481ZM43.2885 46.2071C43.2309 46.2369 43.1854 46.2834 43.1529 46.3421C43.1204 46.4007 43.1036 46.4631 43.1036 46.5236C43.1036 46.586 43.1204 46.6475 43.151 46.7043C43.1854 46.762 43.2291 46.8058 43.2867 46.8402C43.3443 46.8719 43.4037 46.8905 43.466 46.8905C43.5282 46.8905 43.5896 46.8719 43.6453 46.8402C43.7029 46.8076 43.7475 46.7629 43.781 46.7043C43.8135 46.6465 43.8284 46.586 43.8284 46.5236C43.8284 46.4631 43.8116 46.4007 43.7791 46.3421C43.7466 46.2844 43.7011 46.2397 43.6435 46.2071C43.5859 46.1745 43.5273 46.1587 43.466 46.1587C43.4065 46.1587 43.3461 46.1754 43.2885 46.2071ZM43.6165 46.3533C43.6323 46.3737 43.6379 46.397 43.6379 46.4222C43.6379 46.4566 43.6249 46.4855 43.6007 46.5115C43.5766 46.5385 43.5431 46.5497 43.5041 46.5544C43.5227 46.5618 43.5348 46.5702 43.544 46.5786C43.5636 46.5981 43.5859 46.6261 43.6128 46.6707L43.6704 46.7639H43.5775L43.5357 46.6912C43.5032 46.6326 43.4771 46.5953 43.4576 46.5814C43.4418 46.5693 43.4233 46.5637 43.3963 46.5637H43.3536V46.7629H43.2755V46.2937H43.4381C43.4929 46.2937 43.5338 46.2983 43.5571 46.3086C43.5803 46.3169 43.6007 46.3328 43.6165 46.3533ZM43.4381 46.357C43.4753 46.357 43.4985 46.3616 43.5143 46.3663C43.5282 46.3728 43.5385 46.3803 43.5459 46.3896C43.5543 46.4026 43.558 46.4119 43.558 46.4277C43.558 46.4482 43.5496 46.4659 43.5357 46.4799C43.518 46.4938 43.4892 46.4994 43.4456 46.4994H43.3536V46.3579H43.4381V46.357ZM33.4871 44.4278C33.7314 44.4287 33.7574 44.4529 33.7992 44.4613C33.8262 44.7025 33.6478 45.8365 32.7846 45.8365C32.3386 45.8365 32.2234 45.4976 32.2234 45.2946C32.2234 44.9008 32.4362 44.4278 33.4871 44.4278ZM10.2419 44.4278C10.4872 44.4287 10.5132 44.4529 10.5541 44.4613C10.582 44.7025 10.4026 45.8365 9.53946 45.8365C9.0944 45.8365 8.97826 45.4976 8.97826 45.2946C8.97826 44.9008 9.19103 44.4278 10.2419 44.4278ZM31.5303 30C28.0544 30.0009 24.886 31.3212 22.4972 33.4896C20.1075 31.324 16.941 30.0028 13.4679 30.0028C13.439 30.0028 13.4093 30.0028 13.3814 30.0028C5.98736 30.0512 0 36.0789 0 43.4995C0 50.949 6.03382 56.9953 13.4679 56.9953C16.94 56.9953 20.1065 55.676 22.4963 53.5085C21.9973 53.0569 21.5458 52.557 21.1193 52.0337H23.9002C23.4812 52.5486 23.024 53.0309 22.5325 53.4796H22.5297H22.5307C22.5195 53.4917 22.5074 53.4992 22.4963 53.5094C24.887 55.6788 28.0572 57.0009 31.5359 57C38.9745 56.9972 45.0019 50.9527 45 43.4995C45 43.4967 45 43.4949 45 43.493C45 36.0398 38.969 29.9981 31.5303 30ZM21.2726 34.8834H23.8324C24.2096 35.3415 24.5599 35.8238 24.8777 36.3285H20.311C20.6055 35.8452 20.9288 35.3499 21.2726 34.8834ZM19.5156 37.7465H25.6544C25.8728 38.2139 26.066 38.6971 26.2351 39.1924H18.7881C18.8624 39.0528 19.1226 38.4904 19.5156 37.7465ZM5.49771 46.937L6.31442 41.7771L4.47194 46.937H3.48427L3.35605 41.7771L2.48359 46.937H1.1001L2.24665 40.0937H4.33907L4.41248 44.2928L5.82569 40.0937H8.09558L6.96482 46.937H5.49771ZM10.3896 46.9296L10.437 46.3793C10.4147 46.3821 9.97801 47.0394 8.96618 47.0394C8.43657 47.0394 7.58176 46.7499 7.58176 45.4911C7.58176 43.8906 8.88442 43.3599 10.1248 43.3599C10.3199 43.3599 10.7408 43.3953 10.7408 43.3953C10.7408 43.3953 10.7882 43.2975 10.7882 43.0331C10.7882 42.5983 10.398 42.5387 9.86373 42.5387C8.92251 42.5387 8.30092 42.791 8.30092 42.791L8.50904 41.5527C8.50904 41.5527 9.2635 41.2361 10.2456 41.2361C10.7538 41.2361 12.2154 41.2901 12.2154 42.9688L11.6523 46.9259H10.3896V46.9296ZM15.7266 45.1838C15.7266 47.0935 13.8804 47.0115 13.558 47.0115C12.3547 47.0115 11.9831 46.8449 11.9487 46.8355L12.1401 45.5786C12.142 45.5674 12.7441 45.7974 13.414 45.7974C13.8005 45.7974 14.3022 45.7592 14.3022 45.2965C14.3022 44.6038 12.5071 44.7695 12.5071 43.1243C12.5071 41.6728 13.5831 41.2482 14.6441 41.2482C15.4636 41.2482 15.9672 41.3609 15.9672 41.3609L15.7861 42.629C15.7861 42.629 15.0084 42.5647 14.8067 42.5647C14.2966 42.5647 14.0188 42.6765 14.0188 43.034C14.0179 43.7519 15.7266 43.399 15.7266 45.1838ZM17.9435 45.6838C18.0708 45.6838 18.2148 45.6401 18.3133 45.6401L18.134 46.8607C17.99 46.9007 17.5821 47.046 17.059 47.0497C16.3909 47.0553 15.9161 46.681 15.9161 45.8319C15.9161 45.262 16.731 40.5667 16.7626 40.536H18.1962L18.0504 41.3758H18.7658L18.5828 42.7286H17.8237L17.4204 45.2211C17.3897 45.4185 17.4446 45.6838 17.9435 45.6838ZM21.097 41.2166C22.671 41.2166 23.142 42.3711 23.142 43.318C23.142 43.6969 22.9525 44.628 22.9525 44.628H20.0387C20.0387 44.628 19.7693 45.7779 21.3088 45.7779C22.0308 45.7779 22.8317 45.4241 22.8317 45.4241L22.579 46.8095C22.579 46.8095 22.1163 47.046 21.0645 47.046C19.9244 47.046 18.5874 46.5627 18.5874 44.533C18.5883 42.7742 19.655 41.2175 21.097 41.2166ZM24.8953 50.6427H20.1168C19.8259 50.1771 19.5546 49.6995 19.3214 49.1977H25.6795C25.4463 49.6967 25.1843 50.179 24.8953 50.6427ZM24.5748 46.9473H23.103L23.9978 41.3776H25.3329L25.2047 42.1849C25.2047 42.1849 25.6804 41.3069 26.3225 41.3069C26.5092 41.3069 26.5994 41.3255 26.5994 41.3255C26.4089 41.7147 26.2407 42.0713 26.066 42.9921C25.07 42.6374 24.9938 44.5675 24.5748 46.9473ZM30.1821 46.8607C30.1821 46.8607 29.4109 47.0581 28.9278 47.0581C27.2163 47.0581 26.3476 45.8747 26.3476 44.0824C26.3476 41.3795 27.9578 39.9401 29.6126 39.9401C30.3605 39.9401 31.2274 40.292 31.2274 40.292L30.9932 41.8143C30.9932 41.8143 30.407 41.4037 29.6776 41.4037C28.702 41.4037 27.8267 42.3366 27.8267 44.0321C27.8267 44.8673 28.2346 45.6456 29.253 45.6456C29.7371 45.6456 30.4386 45.2928 30.4386 45.2928L30.1821 46.8607ZM33.6339 46.9296L33.6822 46.3793C33.6589 46.3821 33.2222 47.0394 32.2113 47.0394C31.6817 47.0394 30.8269 46.7499 30.8269 45.4911C30.8269 43.8906 32.1296 43.3599 33.3691 43.3599C33.5642 43.3599 33.986 43.3953 33.986 43.3953C33.986 43.3953 34.0343 43.2984 34.0343 43.034C34.0343 42.5992 33.6441 42.5396 33.1089 42.5396C32.1677 42.5396 31.547 42.7919 31.547 42.7919L31.7551 41.5536C31.7551 41.5536 32.5096 41.237 33.4926 41.237C33.9999 41.237 35.4624 41.291 35.4615 42.9698L34.8984 46.9268C34.8975 46.9296 33.6339 46.9296 33.6339 46.9296ZM36.6136 46.9473H35.1418L36.0366 41.3776H37.3727L37.2445 42.1849C37.2445 42.1849 37.7211 41.3069 38.3632 41.3069C38.5499 41.3069 38.6391 41.3255 38.6391 41.3255C38.4496 41.7147 38.2795 42.0713 38.1058 42.9921C37.1088 42.6374 37.0326 44.5675 36.6136 46.9473ZM43.8442 46.3058C43.8841 46.3756 43.9018 46.4482 43.9018 46.5236C43.9018 46.5991 43.8832 46.6698 43.8442 46.7396C43.8061 46.8085 43.7522 46.8616 43.6834 46.9026C43.6156 46.9408 43.5431 46.9603 43.4669 46.9603C43.3926 46.9603 43.321 46.9408 43.2523 46.9026C43.1835 46.8616 43.1296 46.8085 43.0915 46.7396C43.0525 46.6698 43.0339 46.5991 43.0339 46.5236C43.0339 46.4473 43.0535 46.3747 43.0915 46.3058C43.1296 46.2369 43.1863 46.181 43.2542 46.1438C43.3248 46.1056 43.3945 46.086 43.4669 46.086C43.5413 46.086 43.6119 46.1056 43.6806 46.1438C43.7512 46.1819 43.8051 46.235 43.8442 46.3058ZM41.7517 42.0247L42.0621 40.1021L43.4994 40.0993L42.4031 46.9314H41.0084L41.0707 46.4184C41.0707 46.4184 40.595 47.0199 39.7346 47.0199C38.5425 47.0199 37.9581 45.8663 37.9581 44.6876C37.9581 42.8645 39.0526 41.2752 40.3664 41.2752C41.2119 41.2771 41.7517 42.0247 41.7517 42.0247ZM21.7623 43.4884H20.1707C20.1707 43.3943 20.3212 42.5033 21.1026 42.5033C21.9119 42.5033 21.7623 43.4157 21.7623 43.4884ZM40.6145 42.6597C41.1301 42.6597 41.3949 43.0144 41.3949 43.8505C41.3949 44.6075 41.0205 45.6233 40.2437 45.6233C39.7271 45.6233 39.4856 45.1876 39.4856 44.5079C39.4846 43.3934 39.9836 42.6597 40.6145 42.6597Z" fill="white"/>
</svg>
