<svg width="19" height="13" viewBox="0 0 19 13" fill="none" xmlns="http://www.w3.org/2000/svg">
<path d="M7.77346 9.29276L12.4648 6.50047L7.77346 3.70817V9.29276ZM18.2118 2.00673C18.3245 2.44326 18.4083 3.0315 18.4642 3.77332C18.521 4.51514 18.5498 5.16202 18.5498 5.7149L18.5913 6.50047C18.5913 8.53698 18.4651 10.0346 18.2109 10.9942C17.9855 11.8375 17.4644 12.3764 16.6477 12.6091C16.2249 12.7254 15.4298 12.812 14.2606 12.8697C13.1838 12.9258 12.1059 12.9553 11.0278 12.9581L9.59086 13C5.81543 13 3.46345 12.8697 2.53401 12.6072C1.71727 12.3745 1.19621 11.8365 0.970835 10.9933C0.857247 10.5567 0.772508 9.9685 0.716615 9.22668C0.664239 8.58085 0.635971 7.93318 0.631876 7.2851L0.591309 6.50047C0.591309 4.46395 0.717517 2.96635 0.970835 2.00673C1.19621 1.16346 1.71817 0.625475 2.53492 0.392783C2.95771 0.276438 3.75283 0.188015 4.92205 0.130307C5.99881 0.0748102 7.07669 0.0459483 8.15479 0.0437464L9.59086 0C13.3663 0 15.7183 0.130307 16.6477 0.391852C17.4644 0.624544 17.9864 1.16346 18.2118 2.00673Z" fill="white"/>
</svg>
